<?xml version="1.0" standalone="no"?>
<!DOCTYPE svg PUBLIC "-//W3C//DTD SVG 1.1//EN" "http://www.w3.org/Graphics/SVG/1.1/DTD/svg11.dtd" >
<svg xmlns="http://www.w3.org/2000/svg">
<metadata>
This is a custom SVG webfont generated by Font Squirrel.
</metadata>
<defs>
<font id="TheSerifSemiLightItalic" horiz-adv-x="1099" >
<font-face units-per-em="2048" ascent="1536" descent="-512" />
<missing-glyph horiz-adv-x="446" />
<glyph unicode=" "  horiz-adv-x="446" />
<glyph unicode="&#x09;" horiz-adv-x="446" />
<glyph unicode="&#xa0;" horiz-adv-x="446" />
<glyph unicode="!" horiz-adv-x="602" d="M119 88q0 47 31.5 79t78.5 32q45 0 75 -31t30 -74q0 -47 -32 -78.5t-79 -31.5q-45 0 -74.5 30.5t-29.5 73.5zM209 328l184 1112h178l-239 -1112h-123z" />
<glyph unicode="&#x22;" horiz-adv-x="714" d="M252 1055l29 452h165l-84 -452h-110zM575 1055l31 452h166l-84 -452h-113z" />
<glyph unicode="#" horiz-adv-x="1357" d="M49 403l21 107h315l119 410h-301l22 108h310l104 354h127l-102 -354h311l102 354h129l-104 -354h301l-23 -108h-309l-121 -410h299l-20 -107h-311l-119 -403h-127l119 403h-312l-119 -403h-129l121 403h-303zM512 510h311l119 410h-309z" />
<glyph unicode="$" horiz-adv-x="958" d="M49 18l57 301h101q0 -74 -8 -184q82 -18 153 -18q135 0 213 70.5t78 162.5q0 74 -45 128t-108.5 90t-128 74t-109.5 102.5t-45 154.5q0 141 101.5 245.5t275.5 125.5l41 219h116l-39 -211q119 -2 213 -27l-55 -288h-96q0 125 8 178q-72 10 -127 10q-137 0 -208.5 -63.5 t-71.5 -157.5q0 -68 45 -117t110.5 -85t131 -75t110.5 -105.5t45 -158.5q0 -143 -105.5 -258t-287.5 -139l-54 -275h-118l53 267q-131 1 -246 34z" />
<glyph unicode="%" horiz-adv-x="1595" d="M166 1018q0 170 103.5 279.5t252.5 109.5q127 0 204 -67.5t77 -209.5q0 -156 -99.5 -273.5t-265.5 -117.5q-272 0 -272 279zM215 35l1100 1392l102 -79l-1100 -1393zM309 1030q0 -178 154 -178q92 0 145.5 82t53.5 176t-37 139t-119 45q-90 0 -143.5 -80t-53.5 -184z M844 254q0 170 103.5 279.5t252.5 109.5q127 0 204 -67.5t77 -208.5q0 -156 -99.5 -274t-265.5 -118q-272 0 -272 279zM987 266q0 -92 36 -135t116 -43q92 0 145 82t53 176t-36.5 139t-118.5 45q-88 0 -141.5 -80t-53.5 -184z" />
<glyph unicode="&#x26;" horiz-adv-x="1652" d="M94 301q0 90 30 169t90 146.5t116.5 114.5t142.5 109q-125 199 -125 323q0 147 107.5 250t275.5 103q141 0 211 -65t70 -169q0 -131 -88 -234.5t-254 -222.5q139 -197 397 -454q160 168 215 428q-98 8 -156 26l17 88h475l-19 -88q-66 -18 -165 -26q-70 -307 -271 -516 q76 -72 187 -166q80 -8 153 -29l-18 -88h-236q-102 88 -202 182q-254 -203 -574 -202q-188 0 -283.5 91t-95.5 230zM256 342q0 -98 62.5 -164.5t189.5 -66.5q236 0 442 163q-246 248 -403 463q-141 -100 -216 -189t-75 -206zM502 1184q0 -92 96 -258q129 90 194.5 164.5 t65.5 169.5q0 61 -37 98t-106 37q-98 0 -155.5 -59.5t-57.5 -151.5z" />
<glyph unicode="'" horiz-adv-x="389" d="M266 1055l29 452h168l-84 -452h-113z" />
<glyph unicode="(" horiz-adv-x="612" d="M135 266q0 338 133 678t363 625h149q-223 -279 -359 -621t-138 -667q0 -389 120 -676h-141q-127 315 -127 661z" />
<glyph unicode=")" horiz-adv-x="612" d="M-123 -395q238 299 369 633.5t131 650.5q0 395 -117 680h135q127 -305 127 -668q0 -678 -491 -1296h-154z" />
<glyph unicode="*" horiz-adv-x="741" d="M199 1102l225 94l-186 102l65 99l166 -133l29 235l116 -12l-63 -221l199 129l51 -103l-228 -94l189 -102l-68 -103l-170 137l-26 -235l-117 12l61 219l-192 -129z" />
<glyph unicode="+" horiz-adv-x="1185" d="M84 463l22 129h443l90 461h145l-90 -461h447l-25 -129h-446l-90 -463h-144l90 463h-442z" />
<glyph unicode="," horiz-adv-x="436" d="M-86 -231q203 170 141 288q-27 47 0 96.5t84 49.5q78 0 101 -78q33 -119 -99 -272q-68 -78 -168 -152z" />
<glyph unicode="-" horiz-adv-x="671" d="M96 449v122h473v-122h-473z" />
<glyph unicode="." horiz-adv-x="436" d="M31 92q0 47 32.5 80t79.5 33q45 0 76 -32t31 -77q0 -47 -32 -79.5t-79 -32.5q-45 0 -76.5 31.5t-31.5 76.5z" />
<glyph unicode="/" horiz-adv-x="835" d="M10 0l781 1382h149l-778 -1382h-152z" />
<glyph unicode="0" horiz-adv-x="1234" d="M102 365q0 301 182.5 503.5t452.5 202.5q197 0 302.5 -107.5t105.5 -291.5q0 -297 -188.5 -493.5t-454.5 -196.5q-197 0 -298.5 98.5t-101.5 284.5zM256 397q0 -131 69.5 -207.5t204.5 -76.5q184 0 322.5 156.5t138.5 377.5q0 135 -70.5 215t-211.5 80q-195 0 -324 -162 t-129 -383z" />
<glyph unicode="1" horiz-adv-x="733" d="M6 0l17 90q129 27 231 29l149 786l-260 -104v141l316 111h129l-178 -934q90 -6 176 -29l-17 -90h-563z" />
<glyph unicode="2" horiz-adv-x="966" d="M10 0l21 123l344 254q182 135 249.5 218t67.5 181q0 68 -44 118t-140 50q-92 0 -180 -33q-35 -121 -60 -180h-90l53 279q150 59 310 59q154 0 235.5 -74.5t81.5 -191.5q0 -129 -80 -234.5t-252 -232.5l-276 -201v-2q117 6 534 6l-28 -139h-746z" />
<glyph unicode="3" horiz-adv-x="935" d="M-63 -389l32 141q76 -27 160 -26q193 0 315.5 104t122.5 266q0 129 -113.5 181.5t-318.5 29.5l25 125q231 0 371.5 93t140.5 253q0 164 -189 164q-74 0 -159 -29q-14 -59 -60 -182h-90l53 283q137 55 285 55q162 0 242 -72.5t80 -193.5q0 -276 -320 -406l-2 -2 q92 -10 157.5 -88t65.5 -188q0 -221 -180 -375t-451 -154q-91 1 -167 21z" />
<glyph unicode="4" horiz-adv-x="1093" d="M-39 0v127l748 928h213l-174 -916h239l-26 -139h-242l-53 -287q86 -6 165 -26l-14 -86h-498l17 86q92 20 180 26l53 287h-608zM117 135q129 4 481 4l145 768h-2z" />
<glyph unicode="5" horiz-adv-x="925" d="M-41 -399l33 145q55 -16 125 -16q201 0 329.5 97t128.5 267q0 129 -101 210t-324 81l124 668h607l-31 -150h-459l-74 -389q199 -14 311.5 -118.5t112.5 -268.5t-95 -290t-238.5 -186.5t-309.5 -60.5q-63 1 -139 11z" />
<glyph unicode="6" horiz-adv-x="1175" d="M143 381q0 123 28 258t95.5 280.5t164.5 261t253 190.5t344 75q41 0 86 -4l-27 -133q-43 8 -96 8q-217 0 -371.5 -137.5t-240.5 -374.5q-4 -10 -35 -88l2 -2q59 88 159.5 138t213.5 50q176 0 263 -96t87 -236q0 -260 -168 -424.5t-397 -164.5q-184 0 -272.5 108.5 t-88.5 290.5zM305 365q0 -57 14.5 -109.5t66.5 -99.5t136 -47q166 0 274.5 119.5t108.5 316.5q0 98 -59.5 161.5t-169.5 63.5q-150 0 -260.5 -120.5t-110.5 -284.5z" />
<glyph unicode="7" horiz-adv-x="925" d="M86 -399q324 745 686 1312q-37 -4 -512 -4q-25 -92 -59 -174h-101l62 318h811l-25 -131q-401 -614 -680 -1321h-182z" />
<glyph unicode="8" horiz-adv-x="1103" d="M90 272q0 154 99.5 258.5t275.5 204.5q-100 72 -155.5 147.5t-55.5 182.5q0 164 133 275.5t340 111.5q170 0 259 -74.5t89 -203.5q0 -139 -92 -237.5t-260 -193.5q233 -158 233 -350q0 -180 -146 -295.5t-353 -115.5q-367 -1 -367 290zM252 289q0 -74 57.5 -126 t175.5 -52q123 0 216.5 74.5t93.5 176.5q0 94 -56.5 160t-163.5 142q-152 -84 -237.5 -171t-85.5 -204zM416 1077q0 -78 50 -136t146 -126q150 84 226.5 158t76.5 172q0 80 -53 131t-157 51q-129 0 -209 -74t-80 -176z" />
<glyph unicode="9" horiz-adv-x="1167" d="M20 -399l27 141q68 -14 123 -14q424 0 618 483q39 100 41 106v2q-131 -174 -370 -174q-170 0 -258 92.5t-88 239.5q0 240 155.5 416t395.5 176q377 0 376 -401q0 -119 -26.5 -253t-93 -283.5t-165 -267.5t-259 -196t-357.5 -78q-58 1 -119 11zM279 500q0 -96 59 -155.5 t160 -59.5q160 0 269.5 108.5t109.5 292.5q0 113 -60.5 184.5t-177.5 71.5q-152 0 -256 -132t-104 -310z" />
<glyph unicode=":" horiz-adv-x="503" d="M66 92q0 47 31.5 80t78.5 33q45 0 77 -32t32 -77q0 -47 -32 -79.5t-79 -32.5q-45 0 -76.5 31.5t-31.5 76.5zM180 698q0 47 33 81t80 34q45 0 76.5 -32.5t31.5 -78.5q0 -47 -31.5 -79.5t-78.5 -32.5q-45 0 -78 31.5t-33 76.5z" />
<glyph unicode=";" horiz-adv-x="503" d="M-49 -231q205 172 141 288q-27 47 0 96.5t84 49.5q78 0 100 -78q33 -119 -98 -272q-68 -78 -168 -152zM180 698q0 47 33 81t80 34q45 0 76.5 -32.5t31.5 -78.5q0 -47 -31.5 -79.5t-78.5 -32.5q-45 0 -78 31.5t-33 76.5z" />
<glyph unicode="&#x3c;" horiz-adv-x="1038" d="M143 516l752 582l90 -105l-647 -489l450 -465l-106 -96z" />
<glyph unicode="=" horiz-adv-x="1224" d="M133 289l27 129h901l-25 -129h-903zM199 623l26 129h903l-26 -129h-903z" />
<glyph unicode="&#x3e;" horiz-adv-x="1038" d="M74 47l647 490l-451 464l107 97l538 -574l-751 -581z" />
<glyph unicode="?" horiz-adv-x="841" d="M160 88q0 47 31.5 79t76.5 32t76 -31t31 -74q0 -47 -32 -78.5t-79 -31.5q-45 0 -74.5 30.5t-29.5 73.5zM219 328q-12 88 4.5 163.5t51 129t80.5 99.5t93.5 86t87 78t65.5 86t26 99q0 92 -94.5 158.5t-245.5 83.5l45 139q217 -20 341 -123.5t124 -241.5q0 -78 -35 -145.5 t-87 -111.5t-111.5 -97t-107.5 -103t-73 -128t-12 -172h-152z" />
<glyph unicode="@" horiz-adv-x="1724" d="M164 635q0 332 225 554t541 222q303 0 474 -174t171 -430q0 -223 -105.5 -339t-281.5 -116q-111 0 -159 59.5t-34 141.5h-4q-27 -76 -103.5 -138.5t-168.5 -62.5q-180 0 -180 232q0 203 107.5 339t297.5 136q104 0 225 -23l-65 -362q-37 -207 110 -207q223 0 224 334 q0 207 -131 349t-385 142q-260 0 -439.5 -183t-179.5 -462q0 -250 148.5 -407.5t406.5 -157.5q150 0 291 45v-125q-129 -41 -309 -41q-309 0 -492.5 186.5t-183.5 487.5zM676 610q0 -139 78 -139q84 0 151.5 105.5t102.5 279.5l16 86q-39 10 -109 10q-117 0 -178 -108.5 t-61 -233.5z" />
<glyph unicode="A" horiz-adv-x="1392" d="M-82 0l16 88q61 16 134 25l704 1269h176l221 -1269q63 -6 125 -25l-18 -88h-457l17 88q86 20 170 27l-39 243h-598l-136 -243q78 -6 156 -27l-16 -88h-455zM434 483h514l-94 539q-20 121 -25 199h-4q-43 -98 -96 -197z" />
<glyph unicode="B" horiz-adv-x="1191" d="M-29 0l19 88q88 20 180 27l219 1153q-84 6 -168 26l17 88h174q37 0 161.5 3.5t212.5 3.5q190 0 284.5 -71t94.5 -192q0 -150 -91 -252t-220 -145v-2q102 -20 160.5 -92t58.5 -166q0 -201 -158.5 -338t-441.5 -137q-37 0 -150.5 3t-175.5 3h-176zM328 133q70 -12 180 -12 q188 0 294.5 96t106.5 238q0 201 -321 200q-127 0 -162 -2zM449 776q43 -2 126 -2q188 0 308.5 85t120.5 235q0 80 -58.5 124t-202.5 44q-84 0 -202 -5z" />
<glyph unicode="C" horiz-adv-x="1165" d="M117 455q0 252 87 461.5t268 344t429 134.5q162 0 316 -41l-60 -314h-102q0 31 6 191q-86 29 -199 29q-190 0 -324.5 -119t-192.5 -291t-58 -371q0 -170 84 -263t284 -93q180 0 336 72l-4 -140q-182 -72 -379 -71q-491 0 -491 471z" />
<glyph unicode="D" horiz-adv-x="1425" d="M-29 0l19 88q88 20 180 27l217 1153q-88 6 -170 26l19 88h172q51 0 184 3.5t199 3.5q313 0 454 -134.5t141 -367.5q0 -174 -55 -331t-161.5 -285t-283.5 -202.5t-403 -74.5q-80 0 -188.5 3t-147.5 3h-176zM326 137q96 -14 180 -14q184 0 327.5 65.5t226.5 175t124 237.5 t41 267q0 393 -457 394q-63 0 -229 -7z" />
<glyph unicode="E" horiz-adv-x="1073" d="M-31 0l19 88q88 20 180 27l217 1153q-88 6 -170 26l18 88h857l-58 -307h-104q0 111 6 185h-397l-93 -488h318q29 92 59 150h88l-80 -418h-88q-6 37 -6 86q0 29 2 63h-315l-100 -526h399q14 45 67 188h103l-60 -315h-862z" />
<glyph unicode="F" horiz-adv-x="1003" d="M-31 0l17 88q92 20 180 27l219 1153q-84 6 -168 26l16 88h861l-60 -307h-104q6 172 6 182h-399l-95 -497h324q27 84 61 149h88l-79 -422h-91q-5 46 -4 88q0 32 2 62h-323l-101 -522q88 -6 170 -27l-16 -88h-504z" />
<glyph unicode="G" horiz-adv-x="1392" d="M106 510q0 387 250 639t615 252q190 0 362 -51l-57 -306h-105q0 76 9 191q-125 33 -230 33q-291 0 -484.5 -216t-193.5 -528q0 -168 103.5 -287.5t318.5 -119.5q139 0 289 45l80 418q-92 6 -168 28l18 88h465l-18 -88q-59 -16 -143 -26l-101 -525q-215 -76 -448 -75 q-274 0 -418 144t-144 384z" />
<glyph unicode="H" horiz-adv-x="1523" d="M-31 0l17 88q92 20 180 27l219 1153q-84 6 -168 26l16 88h494l-16 -88q-72 -20 -172 -26l-90 -486h737l90 486q-96 6 -160 26l17 88h493l-16 -88q-94 -20 -180 -26l-220 -1153q88 -6 170 -27l-16 -88h-496l17 88q72 20 172 27l102 536h-737l-103 -536q98 -8 162 -27 l-16 -88h-496z" />
<glyph unicode="I" horiz-adv-x="632" d="M-31 0l17 88q92 20 180 27l219 1153q-84 6 -168 26l16 88h502l-16 -88q-94 -20 -180 -26l-220 -1153q88 -6 170 -27l-16 -88h-504z" />
<glyph unicode="J" horiz-adv-x="673" d="M-88 2l29 141q59 -25 131 -24q92 0 148 52t79 181l174 916q-84 6 -168 26l17 88h471l-19 -88q-78 -20 -147 -26l-174 -924q-68 -358 -394 -358q-65 0 -147 16z" />
<glyph unicode="K" horiz-adv-x="1316" d="M-31 0l17 88q92 20 180 27l219 1153q-84 6 -168 26l16 88h484l-17 -88q-66 -18 -161 -26l-105 -553l613 553q-76 6 -144 26l17 88h491l-20 -88q-61 -16 -144 -26l-635 -568l430 -585q84 -6 150 -27l-16 -88h-488l17 88q66 18 143 25l-418 587l-111 -585q94 -8 152 -27 l-16 -88h-486z" />
<glyph unicode="L" horiz-adv-x="921" d="M-31 0l17 88q92 20 180 27l219 1153q-84 6 -168 26l16 88h502l-16 -88q-94 -20 -180 -26l-217 -1139h383q16 63 65 193h102l-61 -322h-842z" />
<glyph unicode="M" horiz-adv-x="1843" d="M-70 0l17 88q61 16 133 25l383 1155q-84 6 -168 26l16 88h379l131 -933q25 -172 25 -269h4q35 88 121 254l493 948h402l-17 -88q-94 -20 -180 -26l-51 -1155q61 -6 127 -25l-16 -88h-453l16 88q86 20 170 27l35 751q12 246 23 334h-4q-68 -154 -111 -233l-500 -967h-176 l-127 905q-29 201 -29 295h-2q-25 -100 -102 -346l-227 -739q80 -6 155 -27l-16 -88h-451z" />
<glyph unicode="N" horiz-adv-x="1490" d="M-29 0l17 88q92 20 180 27l217 1153q-84 6 -168 26l16 88h363l387 -907q74 -182 109 -287q39 240 92 529l98 551q-92 6 -158 26l17 88h456l-16 -88q-76 -20 -147 -26l-242 -1268h-188l-388 909q-66 154 -106 291q-33 -227 -96 -563l-95 -522q94 -6 160 -27l-16 -88h-492z " />
<glyph unicode="O" horiz-adv-x="1415" d="M106 483q0 379 226.5 648.5t558.5 269.5q238 0 365.5 -130t127.5 -370q0 -391 -229 -655t-561 -264q-242 0 -365 129.5t-123 371.5zM274 504q0 -180 88.5 -282.5t251.5 -102.5q248 0 425.5 221t177.5 543q0 180 -88.5 281.5t-262.5 101.5q-254 0 -423 -223.5t-169 -538.5 z" />
<glyph unicode="P" horiz-adv-x="1103" d="M-29 0l17 88q92 20 180 27l217 1153q-84 6 -168 26l16 88h148q29 0 150.5 3.5t195.5 3.5q199 0 301 -87.5t102 -236.5q0 -227 -182 -375.5t-426 -148.5q-66 0 -121 6l-79 -432q88 -6 170 -27l-17 -88h-504zM428 682q57 -10 123 -10q168 0 293 106.5t125 261.5 q0 221 -277 222q-66 0 -155 -5z" />
<glyph unicode="Q" horiz-adv-x="1419" d="M109 483q0 248 101 459t282.5 335t400.5 124q236 0 364.5 -131t128.5 -369q0 -391 -230 -655t-560 -264q-242 0 -364.5 129.5t-122.5 371.5zM276 504q0 -180 88.5 -282.5t251.5 -102.5q248 0 425.5 221t177.5 543q0 180 -89.5 281.5t-261.5 101.5q-254 0 -423 -223.5 t-169 -538.5zM510 -287l25 133q51 6 100 6q54 0 106 -7q100 -13 167 -34.5t166 -34.5q48 -6 97 -7q53 0 107 8l-27 -133q-65 -9 -125 -9q-76 0 -146 14q-126 26 -240 53q-71 17 -144 17q-43 0 -86 -6z" />
<glyph unicode="R" horiz-adv-x="1161" d="M-29 0l17 88q92 20 180 27l217 1153q-84 6 -168 26l16 88h156q39 0 147.5 3.5t180.5 3.5q399 0 399 -297q0 -195 -149.5 -315t-372.5 -130q18 -31 68 -129l206 -403q72 -6 146 -27l-21 -88h-256l-303 639h-16l-96 -524q92 -6 153 -27l-16 -88h-488zM442 760q45 -4 119 -4 q172 0 282.5 83t110.5 234q0 98 -61.5 144.5t-198.5 46.5q-96 0 -157 -7z" />
<glyph unicode="S" horiz-adv-x="931" d="M39 10l57 312h107q-2 -23 -5 -90.5t-5 -98.5q57 -14 98 -14q162 0 255 77.5t93 202.5q0 70 -45 126.5t-108.5 98.5t-127 88t-108.5 117.5t-45 163.5q0 170 134 289t366 119q102 0 206 -21l-59 -303h-100q0 98 10 187q-33 8 -90 8q-145 0 -227.5 -74t-82.5 -172 q0 -61 33 -113.5t82 -87t105.5 -76.5t105.5 -81t82 -102.5t33 -139.5q0 -193 -151.5 -318.5t-387.5 -125.5q-139 -1 -225 28z" />
<glyph unicode="T" horiz-adv-x="1105" d="M141 1057l64 325h1028l-62 -325h-102q2 29 3 99.5t5 98.5h-307l-215 -1140q82 -6 170 -27l-18 -88h-502l16 88q94 20 180 27l217 1140h-307q-16 -59 -67 -198h-103z" />
<glyph unicode="U" horiz-adv-x="1441" d="M185 280q-4 28 -3 57q0 64 17 134l151 797q-70 6 -139 26l16 88h463l-18 -88q-70 -18 -168 -26l-154 -799q-12 -64 -12 -116q0 -97 42 -154q65 -88 257 -88t302 94t153 319l141 744q-98 8 -162 26l16 88h461l-18 -88q-76 -20 -146 -26l-145 -762q-98 -524 -623 -524 q-145 0 -241 37.5t-137.5 104.5t-52.5 156z" />
<glyph unicode="V" horiz-adv-x="1372" d="M180 1294l17 88h456l-16 -88q-90 -20 -170 -26l119 -805q31 -207 39 -295h2q37 88 153 307l432 793q-86 6 -159 26l16 88h459l-17 -88q-63 -16 -131 -24l-700 -1270h-172l-205 1270q-68 6 -123 24z" />
<glyph unicode="W" horiz-adv-x="1976" d="M166 1294l16 88h455l-16 -88q-92 -20 -177 -26l52 -844q5 -114 4 -202v-56h2q70 180 104 252l451 964h184l96 -976q9 -114 9 -204v-34h2q55 147 84 211l387 889q-74 6 -154 26l16 88h445l-17 -88q-63 -16 -131 -24l-567 -1270h-192l-93 995q-8 104 -8 222h-2 q-49 -135 -92 -222l-461 -995h-192l-82 1270q-68 6 -123 24z" />
<glyph unicode="X" horiz-adv-x="1357" d="M-63 0l16 88q74 18 153 25l517 608l-275 549q-80 6 -139 24l16 88h486l-19 -88q-78 -20 -162 -26l201 -443l369 443q-70 6 -146 26l17 88h483l-16 -88q-66 -16 -156 -26l-481 -561l297 -594q80 -6 139 -25l-18 -88h-486l17 88q88 20 161 27l-221 485l-397 -485 q68 -6 143 -27l-16 -88h-483z" />
<glyph unicode="Y" horiz-adv-x="1212" d="M168 1294l18 88h455l-16 -88q-66 -20 -168 -26l104 -398q41 -156 57 -233h5q23 37 48 78t63 99t65 101l225 353q-86 8 -143 26l16 88h451l-17 -88q-68 -18 -133 -24l-526 -774l-72 -381q84 -6 168 -27l-16 -88h-502l16 88q88 20 180 27l72 381l-221 774q-66 6 -129 24z " />
<glyph unicode="Z" horiz-adv-x="1062" d="M-4 0l20 115l758 956q68 84 156 180q-143 -4 -291 -4h-256q-23 -76 -61 -184h-103l60 319h858l-23 -116l-801 -1002q-47 -57 -110 -131q45 4 334 4h237q12 39 64 191h102l-61 -328h-883z" />
<glyph unicode="[" horiz-adv-x="641" d="M14 -401l377 1976h379l-25 -117h-237l-332 -1741h240l-25 -118h-377z" />
<glyph unicode="\" horiz-adv-x="819" d="M248 1382h133l258 -1382h-137z" />
<glyph unicode="]" horiz-adv-x="641" d="M-92 -401l22 118h238l332 1741h-240l25 117h379l-377 -1976h-379z" />
<glyph unicode="^" horiz-adv-x="1091" d="M147 764l359 618h127l334 -614l-119 -61l-289 557l-307 -557z" />
<glyph unicode="_" horiz-adv-x="1024" d="M0 -395h1024v-121h-1024v121z" />
<glyph unicode="`" horiz-adv-x="737" d="M305 1393l94 106l246 -227l-74 -86z" />
<glyph unicode="a" horiz-adv-x="1150" d="M76 287q0 143 38 273t111.5 237.5t199.5 171t286 63.5q145 0 303 -28l-168 -881q74 -14 168 -21l-17 -88q-120 -16 -249 -15q-39 0 -78 1q23 113 127 449l-4 2q-209 -471 -494 -471q-223 0 -223 307zM231 313q0 -203 115 -202q98 0 204.5 121.5t177.5 278.5t97 292l17 88 q-86 20 -158 20q-117 0 -208 -55t-142 -144t-77 -191t-26 -208z" />
<glyph unicode="b" horiz-adv-x="1120" d="M111 16l258 1356q-82 14 -170 21l16 88q120 16 249 15q39 0 79 -1l-99 -520q-20 -94 -114 -402h4q86 209 211 337t278 128q225 0 226 -307q0 -143 -38 -273t-112 -237.5t-200 -171t-285 -63.5q-156 -1 -303 30zM281 127q82 -20 159 -21q94 0 172 37t129.5 96.5t85 138.5 t49 161t15.5 166q0 203 -113 202q-100 0 -205.5 -121.5t-176 -276.5t-97.5 -290z" />
<glyph unicode="c" horiz-adv-x="866" d="M76 317q0 303 158.5 509t418.5 206q109 0 236 -35l-55 -286h-93q0 102 9 178q-70 20 -115 20q-180 0 -287.5 -172t-107.5 -385q0 -106 47 -169.5t180 -63.5q137 0 256 57l-8 -135q-137 -53 -287 -53q-352 -1 -352 329z" />
<glyph unicode="d" horiz-adv-x="1150" d="M76 287q0 143 38 273t111.5 237.5t199.5 171t286 63.5q76 0 155 -12l66 352q-78 14 -170 21l18 88q120 16 249 15q39 0 79 -1l-262 -1372q74 -14 168 -21l-17 -88q-118 -16 -247 -15q-39 0 -78 1q20 117 125 449l-4 2q-209 -471 -494 -471q-223 0 -223 307zM231 313 q0 -203 115 -202q98 0 204.5 121.5t177.5 278.5t97 292l17 88q-86 20 -158 20q-117 0 -208 -55t-142 -144t-77 -191t-26 -208z" />
<glyph unicode="e" horiz-adv-x="970" d="M82 307q0 195 64.5 358.5t192.5 267t296 103.5q143 0 215 -63.5t72 -161.5q0 -324 -670 -350q-12 -66 -12 -133q0 -129 51 -174t182 -45q150 0 285 61v-127q-145 -61 -340 -61q-170 0 -253 76.5t-83 248.5zM274 582q489 20 490 211q0 59 -40 92t-110 33 q-123 0 -212 -94.5t-128 -241.5z" />
<glyph unicode="f" horiz-adv-x="698" d="M-365 -508l37 133q70 -23 156 -22q119 0 187.5 75.5t103.5 260.5l184 958h-219l25 121h217l14 69q72 418 455 418q82 0 172 -18l-39 -127q-70 20 -154 20q-119 0 -188.5 -70.5t-96.5 -222.5l-12 -69h293l-25 -121h-290l-183 -954q-49 -248 -161.5 -358.5t-300.5 -110.5 q-93 0 -175 18z" />
<glyph unicode="g" d="M-47 -489l41 153q131 -55 266 -55q168 0 263 75.5t130 258.5q35 188 133 495l-4 2q-205 -461 -489 -460q-223 0 -223 307q0 143 37.5 273t111.5 237.5t200 171t286 63.5q147 0 301 -28l-211 -1110q-82 -420 -572 -420q-153 0 -270 37zM225 313q0 -203 113 -202 q100 0 206.5 121.5t177.5 278.5t97 292l17 88q-90 20 -158 20q-156 0 -262.5 -96t-148.5 -226.5t-42 -275.5z" />
<glyph unicode="h" horiz-adv-x="1212" d="M109 0l260 1372q-76 14 -170 21l16 88q121 16 250 15q39 0 78 -1l-94 -496q-29 -145 -117 -415l4 -2q84 195 209 325.5t278 130.5q137 0 190 -91q32 -56 32 -140q0 -53 -13 -117l-108 -567q80 -16 168 -21l-17 -88q-121 -16 -248 -15q-38 0 -77 1l127 655q11 61 11 108 q0 145 -112 144q-98 0 -203.5 -120.5t-176 -277.5t-97.5 -292l-41 -217h-149z" />
<glyph unicode="i" horiz-adv-x="606" d="M141 0l172 895q-82 14 -170 20l17 89q121 16 250 15q39 0 77 -1l-170 -895q82 -14 168 -21l-16 -88q-120 -16 -249 -15q-39 0 -79 1zM362 1294q0 51 34 84t79 33q41 0 68.5 -28.5t27.5 -65.5q0 -51 -32.5 -83t-79.5 -32q-41 0 -69 27.5t-28 64.5z" />
<glyph unicode="j" horiz-adv-x="573" d="M-262 -506l41 135q55 -25 117 -24q106 0 153 61.5t80 231.5l190 997q-76 14 -172 20l17 89q121 16 250 15q39 0 78 -1l-220 -1161q-39 -199 -130 -291t-269 -92q-74 0 -135 20zM369 1294q0 51 32.5 84t77.5 33q41 0 68.5 -28.5t27.5 -65.5q0 -51 -32.5 -83t-77.5 -32 q-41 0 -68.5 27.5t-27.5 64.5z" />
<glyph unicode="k" horiz-adv-x="1067" d="M109 0l260 1372q-76 14 -170 21l16 88q121 16 250 15q39 0 78 -1l-58 -299q-35 -184 -116 -438l4 -2q127 281 375 280q115 0 185.5 -61.5t70.5 -155.5q0 -266 -453 -356l199 -346q80 -6 163 -27l-16 -90h-270l-273 502l-96 -502h-149zM373 541q250 39 360.5 97t110.5 150 q0 53 -36 88t-95 35q-80 0 -156 -67.5t-117.5 -146t-66.5 -156.5z" />
<glyph unicode="l" horiz-adv-x="573" d="M109 0l260 1372q-76 14 -170 21l16 88q121 16 250 15q39 0 78 -1l-260 -1372q84 -14 170 -21l-17 -88q-121 -16 -250 -15q-38 0 -77 1z" />
<glyph unicode="m" horiz-adv-x="1855" d="M141 0l172 895q-76 14 -172 20l17 89q123 16 252 15q39 0 77 -1q-33 -166 -120 -434l4 -2q80 195 203.5 325.5t275.5 130.5q98 0 149.5 -52t51.5 -146q0 -82 -56 -258l4 -2q80 195 204 326.5t276 131.5q131 0 183 -91q32 -56 32 -140q0 -53 -13 -117l-108 -567 q80 -16 166 -21l-17 -88q-120 -16 -246 -15q-38 0 -77 1l125 655q13 66 13 115q0 137 -105 137q-86 0 -185.5 -104.5t-176.5 -264t-107 -321.5l-41 -217h-152l127 655q12 63 12 111q0 142 -106 141q-129 0 -274.5 -222t-192.5 -468l-43 -217h-152z" />
<glyph unicode="n" horiz-adv-x="1249" d="M141 0l172 895q-82 14 -172 20l17 89q123 16 250 15q38 0 77 -1q-39 -186 -118 -434l4 -2q82 195 208 325.5t277 130.5q137 0 190 -91q33 -57 32 -144q0 -51 -11 -113l-109 -567q76 -16 166 -21l-16 -88q-120 -16 -247 -15q-38 0 -77 1l125 655q13 64 13 112 q0 141 -113 140q-96 0 -201.5 -119.5t-176.5 -274.5t-95 -286l-45 -227h-150z" />
<glyph unicode="o" d="M80 342q0 299 166 496.5t416 197.5q186 0 278 -98t92 -268q0 -303 -176 -495.5t-412 -192.5q-364 0 -364 360zM238 371q0 -258 233 -258q162 0 280.5 153.5t118.5 388.5q0 252 -231 252q-174 0 -287.5 -160.5t-113.5 -375.5z" />
<glyph unicode="p" horiz-adv-x="1155" d="M-127 -510l16 88q86 23 181 29l243 1282l2 6q-76 14 -172 20l17 89q123 16 252 15q39 0 77 -1q-25 -127 -120 -443l4 -2q86 209 210 337t279 128q223 0 223 -307q0 -143 -37.5 -273t-111.5 -236.5t-200 -170t-285 -63.5q-82 0 -158 12l-74 -393q92 -6 168 -29l-16 -88 h-498zM322 135q74 -27 157 -26q94 0 171 36.5t128 96t86 137.5t50.5 160t15.5 166q0 203 -115 202q-98 0 -203.5 -121.5t-176 -277.5t-97.5 -289z" />
<glyph unicode="q" horiz-adv-x="1101" d="M76 287q0 143 38 273t111.5 237.5t199.5 171t286 63.5q154 0 303 -31l-266 -1394q88 -6 165 -29l-16 -88h-496l17 88q82 23 180 29l70 370q29 156 129 472l-4 2q-209 -471 -494 -471q-223 0 -223 307zM231 313q0 -203 117 -202q98 0 203.5 121.5t176.5 278.5t97 292 l17 88q-86 20 -158 20q-117 0 -208 -55t-142 -144t-77 -191t-26 -208z" />
<glyph unicode="r" horiz-adv-x="790" d="M141 0l172 889v6q-76 14 -172 20l17 89q123 16 250 15q38 0 77 -1q-29 -143 -112 -404h4q51 113 92 184.5t97.5 138.5t124.5 90q40 14 86 14q31 0 65 -7l-29 -151q-25 9 -51 9q-53 0 -109 -40q-82 -59 -144.5 -169t-107.5 -228.5t-65 -221.5l-43 -233h-152z" />
<glyph unicode="s" horiz-adv-x="806" d="M37 -2l55 287h88q0 -102 -8 -170q49 -8 86 -9q113 0 179.5 46.5t66.5 132.5q0 47 -37 87t-89 72.5t-104.5 68.5t-89.5 91t-37 127q0 131 104.5 218t291.5 87q98 0 194 -20l-53 -273h-88q0 88 6 170q-37 6 -82 7q-104 0 -161.5 -46.5t-57.5 -119.5q0 -49 37 -90t89 -74 t105.5 -69t90 -89t36.5 -121q0 -135 -118.5 -232t-317.5 -97q-94 0 -186 16z" />
<glyph unicode="t" horiz-adv-x="747" d="M82 897l24 121h218l65 338l158 37l-72 -375h293l-27 -121h-288l-107 -561q-13 -69 -13 -114q0 -37 9 -58q20 -45 102 -45q80 0 146 16l-8 -131q-96 -20 -183 -20q-152 0 -197 75q-27 44 -27 122q0 55 13 126l113 590h-219z" />
<glyph unicode="u" horiz-adv-x="1226" d="M123 915l16 89q120 16 249 15q39 0 79 -1l-125 -656q-11 -61 -11 -107q0 -145 111 -144q98 0 204 120.5t176.5 277.5t97.5 294l18 92q-78 14 -164 20l17 89q118 16 243 15q38 0 76 -1l-172 -895q74 -12 170 -21l-18 -88q-120 -16 -247 -15q-38 0 -77 1q25 135 121 434 l-4 2q-84 -195 -209 -325.5t-279 -130.5q-137 0 -189 91q-32 56 -32 140q0 53 12 117l107 567q-76 14 -170 20z" />
<glyph unicode="v" horiz-adv-x="1048" d="M66 915l16 89q112 16 227 15q35 0 70 -1l100 -674q14 -90 17 -172h2l460 889l140 -53l-549 -1008h-164l-154 895q-81 14 -165 20z" />
<glyph unicode="w" horiz-adv-x="1503" d="M68 915l16 89q113 16 229 15q35 0 70 -1l76 -860h2l317 620l-12 117q-80 14 -166 20l16 89q99 16 221 15q36 0 74 -1l78 -862h2l430 903l140 -49l-508 -1010h-185l-65 578l-293 -578h-174l-100 895q-82 14 -168 20z" />
<glyph unicode="x" horiz-adv-x="1112" d="M0 29l463 491l-158 383q-104 8 -170 27l17 88h278l150 -387l403 442l113 -82l-455 -485l172 -389q131 -16 176 -29l-18 -88h-285l-162 395l-409 -454z" />
<glyph unicode="y" horiz-adv-x="1067" d="M-168 -510l27 141q55 -20 129 -20q119 0 237 131q125 133 125 350q0 340 -108 803q-88 14 -170 20l16 89q113 16 228 15q34 0 69 -1q111 -481 111 -828q0 -59 -19 -141h4q240 414 488 1010l143 -45q-430 -1008 -782 -1358q-186 -180 -359 -180q-84 0 -139 14z" />
<glyph unicode="z" horiz-adv-x="882" d="M0 0l23 111l647 788q-131 -4 -256 -4h-115q-29 -96 -55 -160h-92l55 283h663l-20 -109l-645 -782q123 4 262 4h127q29 84 59 164h90l-55 -295h-688z" />
<glyph unicode="{" horiz-adv-x="669" d="M78 590l24 123q129 8 183.5 53t76.5 168l50 266q74 375 362 375h39l-22 -117q-106 0 -157.5 -54t-80.5 -198l-49 -262q-53 -270 -246 -295v-4q88 -12 122 -87t9 -202l-74 -387q-29 -143 1 -197.5t137 -54.5l-23 -118h-35q-156 0 -205 97t-14 279l76 392q23 119 -16 167 t-158 56z" />
<glyph unicode="|" horiz-adv-x="573" d="M25 -512l399 2048h121l-400 -2048h-120z" />
<glyph unicode="}" horiz-adv-x="671" d="M-94 -401l24 120q106 0 156.5 54.5t79.5 195.5l72 387q51 272 245 297v4q-88 12 -121.5 86t-9.5 201l51 264q29 141 -0.5 196.5t-136.5 55.5l23 117h28q301 0 226 -377l-54 -266q-25 -117 15.5 -165t159.5 -56l-25 -123q-127 -8 -182.5 -54.5t-77.5 -168.5l-72 -390 q-37 -197 -122 -287.5t-240 -90.5h-39z" />
<glyph unicode="~" horiz-adv-x="1187" d="M117 582q125 109 268 108q106 0 232 -66.5t210 -66.5q94 0 207 96l45 -106q-131 -123 -276 -123q-109 0 -239 67.5t-202 67.5q-98 0 -202 -86z" />
<glyph unicode="&#xa1;" horiz-adv-x="602" d="M33 -420l239 1112h123l-184 -1112h-178zM270 928q0 47 33 78.5t78 31.5t74.5 -30.5t29.5 -73.5q0 -47 -31.5 -80t-78.5 -33q-45 0 -75 32t-30 75z" />
<glyph unicode="&#xa2;" horiz-adv-x="933" d="M90 432q0 264 142.5 431t357.5 194l35 186h123l-35 -180q104 -2 221 -41l-53 -270h-88q-2 80 6 166q-78 20 -146 20q-176 0 -290.5 -137t-114.5 -342q0 -244 260 -244q145 0 274 59l-8 -135q-119 -51 -250 -59l-41 -219h-121l44 223q-152 14 -234 103t-82 245z" />
<glyph unicode="&#xa3;" horiz-adv-x="1032" d="M27 0l18 115q215 158 270.5 255t73.5 324h-229l22 119h215q25 256 31 289q66 346 418 346q98 0 184 -21l-55 -282h-90q0 119 4 172q-33 6 -66 6q-201 0 -245 -229q-6 -33 -29 -281h301l-23 -119h-288q-18 -211 -72.5 -327.5t-218.5 -239.5q86 8 158 8h327q23 78 62 180 h100l-61 -315h-807z" />
<glyph unicode="&#xa4;" d="M45 53l184 189q-63 98 -28 270q27 160 141 260l-121 201l123 82l111 -211q80 41 180 41q102 0 164 -41l196 211l86 -84l-198 -203q51 -90 20 -246q-27 -150 -129 -248l133 -219l-125 -84l-120 226q-92 -55 -199 -56q-82 0 -139 31l-185 -201zM338 518q-23 -117 16 -188.5 t154 -71.5q86 0 160.5 71.5t97.5 192.5q47 246 -174 246q-90 0 -160.5 -68.5t-93.5 -181.5z" />
<glyph unicode="&#xa5;" horiz-adv-x="1300" d="M172 238l18 102h342l29 152h-342l19 102h303l-201 676q-63 6 -127 24l16 88h453l-16 -88q-63 -20 -166 -26l102 -387q59 -229 62 -236h2q27 45 85 133t78 121l240 369q-88 8 -145 26l16 88h449l-17 -88q-66 -16 -135 -24l-463 -676h299l-20 -102h-340l-29 -152h342 l-18 -102h-342l-25 -127q92 -6 168 -29l-14 -82h-502l16 82q82 23 180 29l23 127h-340z" />
<glyph unicode="&#xa6;" horiz-adv-x="573" d="M27 -512l149 774h121l-150 -774h-120zM276 782l148 754h121l-148 -754h-121z" />
<glyph unicode="&#xa7;" horiz-adv-x="976" d="M98 -328l31 142q57 -29 133 -29q109 0 170.5 62.5t61.5 156.5q0 66 -45.5 153t-100.5 159.5t-101 172t-46 187.5q0 100 48 192.5t136 155.5q-25 57 -25 141q0 141 101.5 249t292.5 108q76 0 137 -11l-27 -133q-61 16 -121 17q-115 0 -169 -60.5t-54 -156.5q0 -68 45 -155 t99.5 -158.5t99.5 -171t45 -189.5q0 -211 -182 -342q29 -53 28 -137q0 -152 -113.5 -261.5t-297.5 -109.5q-91 0 -146 18zM348 719q0 -57 34 -136t63.5 -129.5t119.5 -189.5q39 29 68 86.5t29 116.5q0 63 -28 127.5t-92.5 168t-92.5 155.5q-45 -31 -73 -86.5t-28 -112.5z " />
<glyph unicode="&#xa8;" horiz-adv-x="1095" d="M317 1341q0 43 30 72t73 29q39 0 66.5 -28t27.5 -64q0 -43 -29.5 -73t-70.5 -30t-69 27.5t-28 66.5zM702 1341q0 43 30 72t73 29q39 0 66.5 -28t27.5 -64q0 -43 -29.5 -73t-70.5 -30t-69 27.5t-28 66.5z" />
<glyph unicode="&#xa9;" horiz-adv-x="1511" d="M104 684q8 285 212 483.5t489 198.5t478.5 -196.5t186.5 -481.5q-8 -283 -211.5 -482.5t-486.5 -199.5q-291 0 -482.5 196.5t-185.5 481.5zM231 688q-6 -231 154 -397t391.5 -166t397 164t172.5 395q4 231 -155 397t-390.5 166t-398.5 -163t-171 -396zM465 674 q0 164 87 271.5t273 107.5q70 0 156 -23v-221h-76q-12 55 -22 129q-45 8 -76 8q-207 0 -207 -260q0 -252 211 -252q90 0 170 31l8 -111q-96 -31 -196 -30q-328 0 -328 350z" />
<glyph unicode="&#xaa;" horiz-adv-x="811" d="M174 909q0 201 112.5 342.5t315.5 141.5q121 0 219 -17q-96 -508 -102 -549q70 -12 115 -14l-17 -84q-137 -18 -246 -10q12 68 62 213h-2q-109 -225 -289 -225q-168 -1 -168 202zM305 938q0 -117 76 -117q92 0 174 120t113 278l10 57q-47 12 -103 12 q-123 0 -196.5 -106.5t-73.5 -243.5z" />
<glyph unicode="&#xab;" horiz-adv-x="993" d="M123 502l278 360l109 -69l-236 -293l168 -283l-120 -70zM498 502l295 358l106 -72l-250 -288l185 -279l-121 -71z" />
<glyph unicode="&#xac;" horiz-adv-x="1073" d="M86 475v127h877v-455h-134v328h-743z" />
<glyph unicode="&#xad;" horiz-adv-x="671" d="M96 449v122h473v-122h-473z" />
<glyph unicode="&#xae;" horiz-adv-x="1132" d="M227 1081q2 184 134.5 313.5t314.5 129.5q184 0 309 -125t121 -307q-2 -182 -134 -312.5t-313 -130.5q-186 0 -311 125t-121 307zM336 1087q-2 -137 93 -237t230 -100q139 0 237.5 98t100.5 237q2 137 -92 237.5t-231 100.5q-139 0 -237.5 -98.5t-100.5 -237.5zM479 854 v49q29 14 58 21v331q-37 8 -58 19v51h64h135q164 0 164 -123q0 -106 -103 -133q23 -31 37 -61l39 -84q10 -2 53 -21v-49h-125l-90 197h-30v-127q31 -8 51 -21v-49h-195zM623 1118l32 -2q49 0 72 22.5t23 53.5q0 61 -76 61h-51v-135z" />
<glyph unicode="&#xaf;" horiz-adv-x="804" d="M342 1276v117h449v-117h-449z" />
<glyph unicode="&#x2c9;" horiz-adv-x="804" d="M342 1276v117h449v-117h-449z" />
<glyph unicode="&#xb0;" horiz-adv-x="745" d="M268 1237q0 123 82 196.5t191 73.5q123 0 184 -68.5t61 -166.5q0 -121 -85 -193.5t-193 -72.5q-113 0 -176.5 63.5t-63.5 167.5zM393 1245q0 -61 34 -98t91 -37q61 0 102.5 42t41.5 112q0 53 -31 96t-101 43q-57 0 -97 -43t-40 -115z" />
<glyph unicode="&#xb1;" horiz-adv-x="1255" d="M4 -113l25 129h942l-27 -129h-940zM127 559l23 129h409l80 418h143l-80 -418h408l-27 -129h-407l-80 -420h-143l79 420h-405z" />
<glyph unicode="&#xb2;" horiz-adv-x="700" d="M80 553l20 111l256 206q113 92 163 154.5t50 124.5q0 129 -127 129q-55 0 -108 -16q-29 -100 -53 -160h-82l47 252q127 41 223 41q125 0 189.5 -58.5t64.5 -162.5q0 -156 -229 -343l-189 -153q129 6 365 6l-25 -131h-565z" />
<glyph unicode="&#xb3;" horiz-adv-x="649" d="M84 553l37 115q63 -20 151 -21q100 0 156.5 44t56.5 118q0 133 -286 96l22 109q324 0 324 170q0 100 -109 100q-59 0 -90 -8q-25 -84 -47 -137h-84l43 231q104 25 199 25q238 0 237 -187q0 -80 -52 -140t-140 -89q61 -10 98 -53t37 -101q0 -125 -106.5 -206.5 t-268.5 -81.5q-96 0 -178 16z" />
<glyph unicode="&#xb4;" horiz-adv-x="776" d="M291 1272l284 227l78 -106l-299 -207z" />
<glyph unicode="&#xb5;" horiz-adv-x="1224" d="M-2 -510l293 1528h149l-125 -651q-47 -256 158 -256q100 0 206.5 121.5t177.5 277.5t95 291l41 217h150l-195 -1018h-149q35 166 121 434h-5q-80 -193 -201.5 -322.5t-267.5 -129.5q-150 0 -190 92l-4 -2q0 -35 -37 -230l-65 -352h-152z" />
<glyph unicode="&#x3bc;" horiz-adv-x="1224" d="M-2 -510l293 1528h149l-125 -651q-47 -256 158 -256q100 0 206.5 121.5t177.5 277.5t95 291l41 217h150l-195 -1018h-149q35 166 121 434h-5q-80 -193 -201.5 -322.5t-267.5 -129.5q-150 0 -190 92l-4 -2q0 -35 -37 -230l-65 -352h-152z" />
<glyph unicode="&#xb6;" horiz-adv-x="1142" d="M219 858q0 203 143.5 363.5t382.5 160.5l-163 -862q-180 -2 -271.5 90t-91.5 248zM446 -197l21 117h149l279 1462h285l-19 -116h-147l-279 -1463h-289z" />
<glyph unicode="&#xb7;" horiz-adv-x="442" d="M123 588q2 49 37 84t84 35t79.5 -33t28.5 -80q-2 -51 -39 -86t-84 -35q-49 0 -79.5 34t-26.5 81z" />
<glyph unicode="&#x2219;" horiz-adv-x="442" d="M123 588q2 49 37 84t84 35t79.5 -33t28.5 -80q-2 -51 -39 -86t-84 -35q-49 0 -79.5 34t-26.5 81z" />
<glyph unicode="&#xb8;" horiz-adv-x="802" d="M166 -418q203 137 147 314h150q61 -221 -240 -385z" />
<glyph unicode="&#xb9;" horiz-adv-x="641" d="M106 553l15 84q78 23 188 29l113 579l-201 -76v127l254 86h123l-139 -716q78 -6 157 -29l-16 -84h-494z" />
<glyph unicode="&#xba;" horiz-adv-x="841" d="M195 942q0 186 108.5 321.5t282.5 135.5q264 0 264 -240q0 -213 -121 -332.5t-283 -119.5q-251 -1 -251 235zM342 967q0 -141 123 -142q104 0 170.5 91.5t66.5 222.5q0 143 -131 143q-115 0 -172 -100t-57 -215z" />
<glyph unicode="&#xbb;" horiz-adv-x="993" d="M119 219l250 289l-185 280l121 70l215 -352l-295 -359zM508 217l235 291l-168 283l123 71l197 -356l-279 -361z" />
<glyph unicode="&#xbc;" horiz-adv-x="1947" d="M104 553l17 84q74 23 188 29l111 579l-199 -76v127l254 86h123l-141 -716q78 -6 157 -29l-16 -84h-494zM254 -182l1206 1730l107 -73l-1207 -1731zM1130 203l3 104l444 522h195l-101 -512h139l-20 -114h-139l-21 -107q66 -6 137 -24l-12 -72h-436l14 72q90 20 158 24 l20 107h-381zM1274 311q70 4 260 4l76 402z" />
<glyph unicode="&#xbd;" horiz-adv-x="1996" d="M109 553l16 84q74 23 188 29l113 579l-201 -76v127l254 86h123l-139 -716q80 -6 155 -29l-14 -84h-495zM258 -182l1208 1730l107 -73l-1208 -1731zM1194 0l20 111l256 206q113 92 163 155t50 124q0 129 -129 129q-53 0 -106 -16q-29 -100 -53 -160h-82l47 252 q127 41 223 41q125 0 189.5 -58.5t64.5 -162.5q0 -156 -229 -342l-189 -154q133 6 365 6l-25 -131h-565z" />
<glyph unicode="&#xbe;" horiz-adv-x="2002" d="M100 553l37 115q63 -20 152 -21q102 0 157.5 43t55.5 119q0 133 -285 96l23 109q324 0 323 170q0 100 -108 100q-61 0 -93 -8q-27 -98 -47 -137h-84l45 231q100 25 197 25q238 0 238 -187q0 -80 -51.5 -140t-141.5 -89q61 -10 99 -53t38 -101q0 -125 -107.5 -206.5 t-268.5 -81.5q-97 0 -179 16zM311 -182l1207 1730l106 -73l-1206 -1731zM1186 203l2 104l446 522h193l-98 -512h139l-21 -114h-139l-20 -107q59 -6 137 -24l-13 -72h-436l13 72q94 20 159 24l21 107h-383zM1329 311q72 4 262 4l76 402z" />
<glyph unicode="&#xbf;" horiz-adv-x="841" d="M37 -63q0 78 34.5 144t87 111.5t111 97.5t106.5 102t73.5 128t13.5 172h149q16 -121 -19.5 -217t-99 -158.5t-128 -116t-112.5 -115.5t-48 -132q0 -92 94 -158.5t246 -85.5l-45 -139q-217 23 -340 125.5t-123 241.5zM459 928q0 47 31.5 78.5t76.5 31.5t76 -30.5t31 -73.5 q0 -47 -32 -80t-79 -33q-45 0 -74.5 32t-29.5 75z" />
<glyph unicode="&#xc0;" horiz-adv-x="1392" d="M-82 0l16 88q61 16 134 25l704 1269h176l221 -1269q63 -6 125 -25l-18 -88h-457l17 88q86 20 170 27l-39 243h-598l-136 -243q78 -6 156 -27l-16 -88h-455zM434 483h514l-94 539q-20 121 -25 199h-4q-43 -98 -96 -197zM594 1704l94 106l246 -227l-74 -86z" />
<glyph unicode="&#xc1;" horiz-adv-x="1392" d="M-82 0l16 88q61 16 134 25l704 1269h176l221 -1269q63 -6 125 -25l-18 -88h-457l17 88q86 20 170 27l-39 243h-598l-136 -243q78 -6 156 -27l-16 -88h-455zM434 483h514l-94 539q-20 121 -25 199h-4q-43 -98 -96 -197zM748 1583l284 227l78 -106l-299 -207z" />
<glyph unicode="&#xc2;" horiz-adv-x="1392" d="M-82 0l16 88q61 16 134 25l704 1269h176l221 -1269q63 -6 125 -25l-18 -88h-457l17 88q86 20 170 27l-39 243h-598l-136 -243q78 -6 156 -27l-16 -88h-455zM434 483h514l-94 539q-20 121 -25 199h-4q-43 -98 -96 -197zM598 1593l287 195l260 -189l-74 -90l-199 142 l-215 -142z" />
<glyph unicode="&#xc3;" horiz-adv-x="1392" d="M-82 0l16 88q61 16 134 25l704 1269h176l221 -1269q63 -6 125 -25l-18 -88h-457l17 88q86 20 170 27l-39 243h-598l-136 -243q78 -6 156 -27l-16 -88h-455zM434 483h514l-94 539q-20 121 -25 199h-4q-43 -98 -96 -197zM541 1679q82 78 190 78q68 0 156 -48t141 -48 q76 0 139 57l37 -100q-90 -76 -194 -76q-76 0 -160 48t-139 48q-74 0 -136 -57z" />
<glyph unicode="&#xc4;" horiz-adv-x="1392" d="M-82 0l16 88q61 16 134 25l704 1269h176l221 -1269q63 -6 125 -25l-18 -88h-457l17 88q86 20 170 27l-39 243h-598l-136 -243q78 -6 156 -27l-16 -88h-455zM434 483h514l-94 539q-20 121 -25 199h-4q-43 -98 -96 -197zM602 1618q0 43 30 71.5t73 28.5q39 0 66.5 -27.5 t27.5 -64.5q0 -43 -30 -72.5t-71 -29.5t-68.5 27.5t-27.5 66.5zM987 1618q0 43 30 71.5t73 28.5q39 0 66.5 -27.5t27.5 -64.5q0 -43 -30 -72.5t-71 -29.5t-68.5 27.5t-27.5 66.5z" />
<glyph unicode="&#xc5;" horiz-adv-x="1392" d="M-82 0l16 88q61 16 134 25l704 1269h176l221 -1269q63 -6 125 -25l-18 -88h-457l17 88q86 20 170 27l-39 243h-598l-136 -243q78 -6 156 -27l-16 -88h-455zM434 483h514l-94 539q-20 121 -25 199h-4q-43 -98 -96 -197zM653 1573q4 92 73 154.5t159 62.5q92 0 150.5 -61.5 t54.5 -151.5q-6 -90 -75 -153.5t-157 -63.5q-92 0 -150.5 60.5t-54.5 152.5zM758 1575q-4 -49 26.5 -84t79.5 -35q47 0 82 35t39 84q2 49 -27.5 84t-79 35t-84 -35t-36.5 -84z" />
<glyph unicode="&#xc6;" horiz-adv-x="1650" d="M-164 0l17 88q57 16 131 25l845 1155q-84 6 -167 26l16 88h995l-57 -307h-103q-4 123 5 185h-390l-94 -488h316q20 70 61 150h88l-80 -418h-90q-8 66 -2 149h-315l-101 -526h408q47 139 67 188h103l-59 -315h-861l17 88q68 18 170 27l47 243h-469l-180 -243 q76 -6 155 -27l-18 -88h-455zM416 483h411l146 770h-6q-102 -156 -193 -278z" />
<glyph unicode="&#xc7;" horiz-adv-x="1165" d="M117 455q0 252 87 461.5t268 344t429 134.5q162 0 316 -41l-60 -314h-102q0 31 6 191q-86 29 -199 29q-190 0 -324.5 -119t-192.5 -291t-58 -371q0 -170 84 -263t284 -93q180 0 336 72l-4 -140q-182 -72 -379 -71q-491 0 -491 471zM358 -418q203 137 148 314h149 q61 -221 -239 -385z" />
<glyph unicode="&#xc8;" horiz-adv-x="1073" d="M-31 0l19 88q88 20 180 27l217 1153q-88 6 -170 26l18 88h857l-58 -307h-104q0 111 6 185h-397l-93 -488h318q29 92 59 150h88l-80 -418h-88q-10 59 -4 149h-315l-100 -526h399q14 45 67 188h103l-60 -315h-862zM502 1704l94 106l246 -227l-74 -86z" />
<glyph unicode="&#xc9;" horiz-adv-x="1073" d="M-31 0l19 88q88 20 180 27l217 1153q-88 6 -170 26l18 88h857l-58 -307h-104q0 111 6 185h-397l-93 -488h318q29 92 59 150h88l-80 -418h-88q-10 59 -4 149h-315l-100 -526h399q14 45 67 188h103l-60 -315h-862zM653 1583l285 227l78 -106l-299 -207z" />
<glyph unicode="&#xca;" horiz-adv-x="1073" d="M-31 0l19 88q88 20 180 27l217 1153q-88 6 -170 26l18 88h857l-58 -307h-104q0 111 6 185h-397l-93 -488h318q29 92 59 150h88l-80 -418h-88q-10 59 -4 149h-315l-100 -526h399q14 45 67 188h103l-60 -315h-862zM457 1593l286 195l261 -189l-74 -90l-199 142l-215 -142z " />
<glyph unicode="&#xcb;" horiz-adv-x="1073" d="M-31 0l19 88q88 20 180 27l217 1153q-88 6 -170 26l18 88h857l-58 -307h-104q0 111 6 185h-397l-93 -488h318q29 92 59 150h88l-80 -418h-88q-10 59 -4 149h-315l-100 -526h399q14 45 67 188h103l-60 -315h-862zM455 1618q0 43 29.5 71.5t72.5 28.5q39 0 66.5 -27.5 t27.5 -64.5q0 -43 -29.5 -72.5t-70.5 -29.5t-68.5 27.5t-27.5 66.5zM840 1618q0 43 29.5 71.5t72.5 28.5q39 0 66.5 -27.5t27.5 -64.5q0 -43 -29.5 -72.5t-70.5 -29.5t-68.5 27.5t-27.5 66.5z" />
<glyph unicode="&#xcc;" horiz-adv-x="632" d="M-31 0l17 88q92 20 180 27l219 1153q-84 6 -168 26l16 88h502l-16 -88q-94 -20 -180 -26l-220 -1153q88 -6 170 -27l-16 -88h-504zM256 1702l94 108l246 -227l-74 -86z" />
<glyph unicode="&#xcd;" horiz-adv-x="632" d="M-31 0l17 88q92 20 180 27l219 1153q-84 6 -168 26l16 88h502l-16 -88q-94 -20 -180 -26l-220 -1153q88 -6 170 -27l-16 -88h-504zM385 1583l285 225l78 -104l-299 -207z" />
<glyph unicode="&#xce;" horiz-adv-x="632" d="M-31 0l17 88q92 20 180 27l219 1153q-84 6 -168 26l16 88h502l-16 -88q-94 -20 -180 -26l-220 -1153q88 -6 170 -27l-16 -88h-504zM242 1593l286 195l260 -191l-73 -90l-199 144l-215 -144z" />
<glyph unicode="&#xcf;" horiz-adv-x="632" d="M-31 0l17 88q92 20 180 27l219 1153q-84 6 -168 26l16 88h502l-16 -88q-94 -20 -180 -26l-220 -1153q88 -6 170 -27l-16 -88h-504zM233 1618q0 43 30 71.5t73 28.5q41 0 67.5 -27.5t26.5 -64.5q0 -45 -28.5 -73.5t-71.5 -28.5q-41 0 -69 27.5t-28 66.5zM618 1618 q0 43 30 71.5t73 28.5q39 0 66.5 -27.5t27.5 -64.5q0 -45 -28.5 -73.5t-71.5 -28.5q-41 0 -69 27.5t-28 66.5z" />
<glyph unicode="&#xd0;" horiz-adv-x="1413" d="M-45 0l16 88q90 20 179 27l104 538h-209l10 119h221l93 496q-84 6 -168 26l16 88h172q39 0 177.5 3.5t207.5 3.5q311 0 453.5 -135.5t142.5 -366.5q0 -174 -55 -331t-161.5 -285t-284 -202.5t-402.5 -74.5q-80 0 -188.5 3t-149.5 3h-174zM309 137q96 -14 180 -14 q184 0 328 65.5t225.5 175t122.5 237.5t41 267q0 184 -103.5 289t-350.5 105q-63 0 -230 -7l-92 -483h291l-10 -119h-305z" />
<glyph unicode="&#xd1;" horiz-adv-x="1490" d="M-29 0l17 88q92 20 180 27l217 1153q-84 6 -168 26l16 88h363l387 -907q74 -182 109 -287q39 240 92 529l98 551q-92 6 -158 26l17 88h456l-16 -88q-76 -20 -147 -26l-242 -1268h-188l-388 909q-66 154 -106 291q-33 -227 -96 -563l-95 -522q94 -6 160 -27l-16 -88h-492z M629 1679q82 78 190 78q68 0 156 -48t141 -48q76 0 139 57l37 -100q-90 -76 -194 -76q-76 0 -160 48t-139 48q-74 0 -135 -57z" />
<glyph unicode="&#xd2;" horiz-adv-x="1415" d="M106 483q0 379 226.5 648.5t558.5 269.5q238 0 365.5 -130t127.5 -370q0 -391 -229 -655t-561 -264q-242 0 -365 129.5t-123 371.5zM274 504q0 -180 88.5 -282.5t251.5 -102.5q248 0 425.5 221t177.5 543q0 180 -88.5 281.5t-262.5 101.5q-254 0 -423 -223.5t-169 -538.5 zM705 1704l94 106l245 -227l-73 -86z" />
<glyph unicode="&#xd3;" horiz-adv-x="1415" d="M106 483q0 379 226.5 648.5t558.5 269.5q238 0 365.5 -130t127.5 -370q0 -391 -229 -655t-561 -264q-242 0 -365 129.5t-123 371.5zM274 504q0 -180 88.5 -282.5t251.5 -102.5q248 0 425.5 221t177.5 543q0 180 -88.5 281.5t-262.5 101.5q-254 0 -423 -223.5t-169 -538.5 zM836 1583l284 227l78 -106l-299 -207z" />
<glyph unicode="&#xd4;" horiz-adv-x="1415" d="M106 483q0 379 226.5 648.5t558.5 269.5q238 0 365.5 -130t127.5 -370q0 -391 -229 -655t-561 -264q-242 0 -365 129.5t-123 371.5zM274 504q0 -180 88.5 -282.5t251.5 -102.5q248 0 425.5 221t177.5 543q0 180 -88.5 281.5t-262.5 101.5q-254 0 -423 -223.5t-169 -538.5 zM696 1593l287 195l260 -189l-74 -90l-198 142l-215 -142z" />
<glyph unicode="&#xd5;" horiz-adv-x="1415" d="M106 483q0 379 226.5 648.5t558.5 269.5q238 0 365.5 -130t127.5 -370q0 -391 -229 -655t-561 -264q-242 0 -365 129.5t-123 371.5zM274 504q0 -180 88.5 -282.5t251.5 -102.5q248 0 425.5 221t177.5 543q0 180 -88.5 281.5t-262.5 101.5q-254 0 -423 -223.5t-169 -538.5 zM618 1681q82 78 191 78q68 0 156 -48t141 -48q76 0 139 57l37 -100q-90 -76 -195 -76q-76 0 -159.5 48t-139.5 48q-74 0 -135 -57z" />
<glyph unicode="&#xd6;" horiz-adv-x="1415" d="M106 483q0 379 226.5 648.5t558.5 269.5q238 0 365.5 -130t127.5 -370q0 -391 -229 -655t-561 -264q-242 0 -365 129.5t-123 371.5zM274 504q0 -180 88.5 -282.5t251.5 -102.5q248 0 425.5 221t177.5 543q0 180 -88.5 281.5t-262.5 101.5q-254 0 -423 -223.5t-169 -538.5 zM662 1618q0 43 29.5 71.5t72.5 28.5q39 0 66.5 -27.5t27.5 -64.5q0 -43 -29.5 -72.5t-70.5 -29.5t-68.5 27.5t-27.5 66.5zM1047 1618q0 43 29.5 71.5t72.5 28.5q39 0 66.5 -27.5t27.5 -64.5q0 -43 -29.5 -72.5t-70.5 -29.5t-68.5 27.5t-27.5 66.5z" />
<glyph unicode="&#xd7;" horiz-adv-x="1191" d="M100 158l422 354l-286 356l104 84l287 -354l426 356l73 -90l-428 -356l287 -354l-104 -86l-285 354l-420 -354z" />
<glyph unicode="&#xd8;" horiz-adv-x="1415" d="M106 483q0 248 101.5 459t283 335t400.5 124q84 0 156 -19l106 193l111 -49l-103 -187q223 -117 223 -438q0 -391 -229 -655t-561 -264q-92 0 -172 22l-113 -207l-110 49l110 203q-203 119 -203 434zM272 504q0 -215 119 -305l584 1054q-55 12 -129 13 q-162 -6 -294 -110.5t-206 -276.5t-74 -375zM496 137q57 -20 141 -16q240 10 411 229t171 535q0 221 -134 315z" />
<glyph unicode="&#xd9;" horiz-adv-x="1441" d="M185.5 279.5q-11.5 89.5 13.5 191.5l151 797q-70 6 -139 26l16 88h463l-18 -88q-70 -18 -168 -26l-154 -799q-35 -182 29.5 -270t257 -88t302.5 94t153 319l141 744q-98 8 -162 26l16 88h461l-18 -88q-76 -20 -146 -26l-145 -762q-98 -524 -623 -524q-145 0 -241 37.5 t-137 104t-52.5 156zM682 1704l94 106l246 -227l-74 -86z" />
<glyph unicode="&#xda;" horiz-adv-x="1441" d="M185.5 279.5q-11.5 89.5 13.5 191.5l151 797q-70 6 -139 26l16 88h463l-18 -88q-70 -18 -168 -26l-154 -799q-35 -182 29.5 -270t257 -88t302.5 94t153 319l141 744q-98 8 -162 26l16 88h461l-18 -88q-76 -20 -146 -26l-145 -762q-98 -524 -623 -524q-145 0 -241 37.5 t-137 104t-52.5 156zM795 1583l284 227l78 -106l-299 -207z" />
<glyph unicode="&#xdb;" horiz-adv-x="1441" d="M185.5 279.5q-11.5 89.5 13.5 191.5l151 797q-70 6 -139 26l16 88h463l-18 -88q-70 -18 -168 -26l-154 -799q-35 -182 29.5 -270t257 -88t302.5 94t153 319l141 744q-98 8 -162 26l16 88h461l-18 -88q-76 -20 -146 -26l-145 -762q-98 -524 -623 -524q-145 0 -241 37.5 t-137 104t-52.5 156zM647 1593l287 195l260 -189l-74 -90l-198 142l-215 -142z" />
<glyph unicode="&#xdc;" horiz-adv-x="1441" d="M185.5 279.5q-11.5 89.5 13.5 191.5l151 797q-70 6 -139 26l16 88h463l-18 -88q-70 -18 -168 -26l-154 -799q-35 -182 29.5 -270t257 -88t302.5 94t153 319l141 744q-98 8 -162 26l16 88h461l-18 -88q-76 -20 -146 -26l-145 -762q-98 -524 -623 -524q-145 0 -241 37.5 t-137 104t-52.5 156zM629 1618q0 43 29.5 71.5t72.5 28.5q39 0 66.5 -27.5t27.5 -64.5q0 -43 -29.5 -72.5t-70.5 -29.5t-68.5 27.5t-27.5 66.5zM1014 1618q0 43 29.5 71.5t72.5 28.5q39 0 66.5 -27.5t27.5 -64.5q0 -43 -29.5 -72.5t-70.5 -29.5t-68.5 27.5t-27.5 66.5z" />
<glyph unicode="&#xdd;" horiz-adv-x="1181" d="M160 1294l16 88h457l-19 -88q-61 -20 -165 -26l104 -398q41 -156 57 -233h2q68 109 179 278l225 353q-86 8 -144 26l17 88h450l-16 -88q-68 -18 -133 -24l-526 -774l-72 -381q84 -6 168 -27l-17 -88h-501l16 88q88 20 180 27l72 381l-221 774q-66 6 -129 24zM649 1583 l283 225l80 -104l-301 -207z" />
<glyph unicode="&#xde;" horiz-adv-x="1077" d="M-70 0l17 88q94 20 180 27l219 1153q-88 6 -170 26l17 88h503l-16 -88q-94 -20 -180 -26l-25 -131q94 6 209 6q211 0 310.5 -88t99.5 -236q0 -211 -170 -364.5t-457 -153.5q-61 0 -148 12l-38 -198q84 -6 168 -27l-17 -88h-502zM342 440q90 -12 137 -12q209 0 328 109.5 t119 261.5q0 221 -285 221q-117 0 -190 -14z" />
<glyph unicode="&#xdf;" horiz-adv-x="1187" d="M-338 -510l35 133q63 -20 139 -20q119 0 180.5 70.5t98.5 263.5l182 958q-78 14 -176 20l16 89q96 12 185 14q43 248 175 370.5t337 122.5q141 0 221 -64.5t80 -164.5q0 -74 -27 -130t-67 -89t-87 -65.5t-87 -58.5t-66.5 -67t-26.5 -92t28.5 -96t68.5 -81t80 -75t69 -94 t29 -121q0 -139 -115 -235t-299 -96q-102 0 -182 14l55 291h88q0 -100 -8 -172q45 -8 74 -9q109 0 170 48.5t61 132.5q0 51 -28.5 95t-69.5 81t-81 74.5t-69 93t-29 121.5q0 80 37 141t90.5 99t106.5 73t90 83t37 112q0 59 -43 95t-121 36q-270 0 -338 -353l-209 -1099 q-49 -258 -158.5 -361.5t-300.5 -103.5q-73 0 -145 16z" />
<glyph unicode="&#xe0;" horiz-adv-x="1150" d="M76 287q0 143 38 273t111.5 237.5t199.5 171t286 63.5q145 0 303 -28l-168 -881q74 -14 168 -21l-17 -88q-156 -20 -327 -14q23 113 127 449l-4 2q-209 -471 -494 -471q-223 0 -223 307zM231 313q0 -203 115 -202q98 0 204.5 121.5t177.5 278.5t97 292l17 88 q-86 20 -158 20q-117 0 -208 -55t-142 -144t-77 -191t-26 -208zM520 1393l94 106l246 -227l-74 -86z" />
<glyph unicode="&#xe1;" horiz-adv-x="1150" d="M76 287q0 143 38 273t111.5 237.5t199.5 171t286 63.5q145 0 303 -28l-168 -881q74 -14 168 -21l-17 -88q-156 -20 -327 -14q23 113 127 449l-4 2q-209 -471 -494 -471q-223 0 -223 307zM231 313q0 -203 115 -202q98 0 204.5 121.5t177.5 278.5t97 292l17 88 q-86 20 -158 20q-117 0 -208 -55t-142 -144t-77 -191t-26 -208zM666 1272l284 227l78 -106l-299 -207z" />
<glyph unicode="&#xe2;" horiz-adv-x="1150" d="M76 287q0 143 38 273t111.5 237.5t199.5 171t286 63.5q145 0 303 -28l-168 -881q74 -14 168 -21l-17 -88q-156 -20 -327 -14q23 113 127 449l-4 2q-209 -471 -494 -471q-223 0 -223 307zM231 313q0 -203 115 -202q98 0 204.5 121.5t177.5 278.5t97 292l17 88 q-86 20 -158 20q-117 0 -208 -55t-142 -144t-77 -191t-26 -208zM475 1282l287 195l260 -189l-74 -90l-198 141l-215 -141z" />
<glyph unicode="&#xe3;" horiz-adv-x="1150" d="M76 287q0 143 38 273t111.5 237.5t199.5 171t286 63.5q145 0 303 -28l-168 -881q74 -14 168 -21l-17 -88q-156 -20 -327 -14q23 113 127 449l-4 2q-209 -471 -494 -471q-223 0 -223 307zM231 313q0 -203 115 -202q98 0 204.5 121.5t177.5 278.5t97 292l17 88 q-86 20 -158 20q-117 0 -208 -55t-142 -144t-77 -191t-26 -208zM424 1368q82 78 190 78q68 0 156 -48t141 -48q76 0 140 57l36 -100q-90 -76 -194 -76q-76 0 -160 48t-139 48q-74 0 -135 -57z" />
<glyph unicode="&#xe4;" horiz-adv-x="1150" d="M76 287q0 143 38 273t111.5 237.5t199.5 171t286 63.5q145 0 303 -28l-168 -881q74 -14 168 -21l-17 -88q-156 -20 -327 -14q23 113 127 449l-4 2q-209 -471 -494 -471q-223 0 -223 307zM231 313q0 -203 115 -202q98 0 204.5 121.5t177.5 278.5t97 292l17 88 q-86 20 -158 20q-117 0 -208 -55t-142 -144t-77 -191t-26 -208zM440 1341q0 43 30 72t73 29q39 0 66.5 -28t27.5 -64q0 -43 -29.5 -73t-70.5 -30t-69 27.5t-28 66.5zM825 1341q0 43 30 72t73 29q39 0 66.5 -28t27.5 -64q0 -43 -29.5 -73t-70.5 -30t-69 27.5t-28 66.5z" />
<glyph unicode="&#xe5;" horiz-adv-x="1150" d="M76 287q0 143 38 273t111.5 237.5t199.5 171t286 63.5q145 0 303 -28l-168 -881q74 -14 168 -21l-17 -88q-156 -20 -327 -14q23 113 127 449l-4 2q-209 -471 -494 -471q-223 0 -223 307zM231 313q0 -203 115 -202q98 0 204.5 121.5t177.5 278.5t97 292l17 88 q-86 20 -158 20q-117 0 -208 -55t-142 -144t-77 -191t-26 -208zM569 1352q4 92 73 154.5t159 62.5q92 0 150.5 -61.5t54.5 -151.5q-6 -90 -75 -153.5t-157 -63.5q-92 0 -150.5 60.5t-54.5 152.5zM674 1354q-4 -49 26.5 -84t79.5 -35q47 0 82 35t39 84q2 49 -27.5 84t-79 35 t-84 -35t-36.5 -84z" />
<glyph unicode="&#xe6;" horiz-adv-x="1568" d="M45 186q0 104 51 179t149.5 117t210 63.5t263.5 32.5l16 73q29 135 -10 198.5t-162 63.5q-96 0 -207 -26q-14 -55 -59 -178h-92l51 272q162 55 338 55q133 0 194.5 -45t83.5 -125q59 72 154.5 121t206.5 49q143 0 215 -63.5t72 -161.5t-53.5 -165.5t-206 -117 t-410.5 -63.5q-10 -57 -10 -137q0 -129 50 -174t181 -45q150 0 285 61v-127q-145 -61 -338 -61q-156 0 -226.5 62t-91.5 177q-53 -96 -164.5 -167.5t-242.5 -71.5q-123 0 -185.5 55t-62.5 149zM203 225q0 -53 35.5 -86t93.5 -33q133 0 234.5 103.5t129.5 251.5 q-244 -16 -368.5 -65.5t-124.5 -170.5zM874 584q121 8 201 19t150.5 33.5t104.5 61.5t34 95q0 59 -41 92t-109 33q-123 0 -211 -93.5t-129 -240.5z" />
<glyph unicode="&#xe7;" horiz-adv-x="866" d="M76 317q0 303 158.5 509t418.5 206q109 0 236 -35l-55 -286h-93q0 102 9 178q-70 20 -115 20q-180 0 -287.5 -172t-107.5 -385q0 -106 47 -169.5t180 -63.5q137 0 256 57l-8 -135q-137 -53 -287 -53q-352 -1 -352 329zM164 -418q203 137 147 314h150q61 -221 -240 -385z " />
<glyph unicode="&#xe8;" horiz-adv-x="970" d="M82 307q0 195 64.5 358.5t192.5 267t296 103.5q143 0 215 -63.5t72 -161.5q0 -324 -670 -350q-12 -66 -12 -133q0 -129 51 -174t182 -45q150 0 285 61v-127q-145 -61 -340 -61q-170 0 -253 76.5t-83 248.5zM274 582q489 20 490 211q0 59 -40 92t-110 33 q-123 0 -212 -94.5t-128 -241.5zM453 1393l94 106l246 -227l-74 -86z" />
<glyph unicode="&#xe9;" horiz-adv-x="970" d="M82 307q0 195 64.5 358.5t192.5 267t296 103.5q143 0 215 -63.5t72 -161.5q0 -324 -670 -350q-12 -66 -12 -133q0 -129 51 -174t182 -45q150 0 285 61v-127q-145 -61 -340 -61q-170 0 -253 76.5t-83 248.5zM274 582q489 20 490 211q0 59 -40 92t-110 33 q-123 0 -212 -94.5t-128 -241.5zM569 1272l285 227l78 -106l-299 -207z" />
<glyph unicode="&#xea;" horiz-adv-x="970" d="M82 307q0 195 64.5 358.5t192.5 267t296 103.5q143 0 215 -63.5t72 -161.5q0 -324 -670 -350q-12 -66 -12 -133q0 -129 51 -174t182 -45q150 0 285 61v-127q-145 -61 -340 -61q-170 0 -253 76.5t-83 248.5zM274 582q489 20 490 211q0 59 -40 92t-110 33 q-123 0 -212 -94.5t-128 -241.5zM389 1282l287 195l260 -189l-74 -90l-198 141l-215 -141z" />
<glyph unicode="&#xeb;" horiz-adv-x="970" d="M82 307q0 195 64.5 358.5t192.5 267t296 103.5q143 0 215 -63.5t72 -161.5q0 -324 -670 -350q-12 -66 -12 -133q0 -129 51 -174t182 -45q150 0 285 61v-127q-145 -61 -340 -61q-170 0 -253 76.5t-83 248.5zM274 582q489 20 490 211q0 59 -40 92t-110 33 q-123 0 -212 -94.5t-128 -241.5zM399 1341q0 43 30 72t73 29q39 0 66.5 -28t27.5 -64q0 -43 -29.5 -73t-70.5 -30t-69 27.5t-28 66.5zM784 1341q0 43 30 72t73 29q39 0 66.5 -28t27.5 -64q0 -43 -29.5 -73t-70.5 -30t-69 27.5t-28 66.5z" />
<glyph unicode="&#xec;" horiz-adv-x="606" d="M141 0l172 895q-82 14 -170 20l17 89q158 20 327 14l-170 -895q82 -14 168 -21l-16 -88q-156 -20 -328 -14zM201 1393l92 106l246 -227l-74 -86z" />
<glyph unicode="&#xed;" horiz-adv-x="606" d="M141 0l172 895q-82 14 -170 20l17 89q158 20 327 14l-170 -895q82 -14 168 -21l-16 -88q-156 -20 -328 -14zM279 1272l284 227l78 -106l-299 -207z" />
<glyph unicode="&#xee;" horiz-adv-x="606" d="M141 0l172 895q-82 14 -170 20l17 89q158 20 327 14l-170 -895q82 -14 168 -21l-16 -88q-156 -20 -328 -14zM162 1282l287 195l262 -189l-76 -90l-197 141l-215 -141z" />
<glyph unicode="&#xef;" horiz-adv-x="606" d="M141 0l172 895q-82 14 -170 20l17 89q158 20 327 14l-170 -895q82 -14 168 -21l-16 -88q-156 -20 -328 -14zM147 1341q0 43 30 72t71 29t67.5 -28t26.5 -64q0 -43 -29.5 -73t-70.5 -30q-39 0 -67 27.5t-28 66.5zM532 1341q0 43 30 72t71 29t67.5 -28t26.5 -64 q0 -43 -29.5 -73t-70.5 -30t-68 27.5t-27 66.5z" />
<glyph unicode="&#xf0;" horiz-adv-x="1161" d="M86 350q0 164 64.5 312.5t196.5 248t300 99.5q195 0 262 -119q12 221 -102 369l-252 -140l-72 86l228 129q-100 61 -230 62q-35 0 -104 -8l22 118q31 6 84 6q211 0 353 -98l204 117l72 -88l-192 -109q133 -164 133 -426q0 -135 -18.5 -261t-63.5 -249t-112.5 -214 t-174 -147t-240.5 -56q-186 0 -272 99t-86 269zM240 375q0 -115 59 -188.5t170 -73.5q80 0 145.5 32.5t107.5 86t72.5 115t46 127t22.5 113.5t7 83q0 86 -51 151.5t-176 65.5q-100 0 -181 -52.5t-127 -132t-70.5 -164.5t-24.5 -163z" />
<glyph unicode="&#xf1;" horiz-adv-x="1249" d="M141 0l172 895q-82 14 -172 20l17 89q160 20 327 14q-39 -186 -118 -434l4 -2q82 195 208 325.5t277 130.5q137 0 189.5 -91t21.5 -257l-109 -567q76 -16 166 -21l-16 -88q-156 -20 -324 -14l125 655q51 252 -100 252q-96 0 -201.5 -119.5t-176.5 -274.5t-95 -286 l-45 -227h-150zM414 1368q82 78 190 78q68 0 156 -48t141 -48q76 0 139 57l37 -100q-90 -76 -194 -76q-76 0 -160 48t-139 48q-74 0 -135 -57z" />
<glyph unicode="&#xf2;" d="M80 342q0 299 166 496.5t416 197.5q186 0 278 -98t92 -268q0 -303 -176 -495.5t-412 -192.5q-364 0 -364 360zM238 371q0 -258 233 -258q162 0 280.5 153.5t118.5 388.5q0 252 -231 252q-174 0 -287.5 -160.5t-113.5 -375.5zM485 1393l95 106l245 -227l-73 -86z" />
<glyph unicode="&#xf3;" d="M80 342q0 299 166 496.5t416 197.5q186 0 278 -98t92 -268q0 -303 -176 -495.5t-412 -192.5q-364 0 -364 360zM238 371q0 -258 233 -258q162 0 280.5 153.5t118.5 388.5q0 252 -231 252q-174 0 -287.5 -160.5t-113.5 -375.5zM610 1272l285 227l78 -106l-299 -207z" />
<glyph unicode="&#xf4;" d="M80 342q0 299 166 496.5t416 197.5q186 0 278 -98t92 -268q0 -303 -176 -495.5t-412 -192.5q-364 0 -364 360zM238 371q0 -258 233 -258q162 0 280.5 153.5t118.5 388.5q0 252 -231 252q-174 0 -287.5 -160.5t-113.5 -375.5zM457 1282l286 195l261 -189l-74 -90l-199 141 l-215 -141z" />
<glyph unicode="&#xf5;" d="M80 342q0 299 166 496.5t416 197.5q186 0 278 -98t92 -268q0 -303 -176 -495.5t-412 -192.5q-364 0 -364 360zM238 371q0 -258 233 -258q162 0 280.5 153.5t118.5 388.5q0 252 -231 252q-174 0 -287.5 -160.5t-113.5 -375.5zM391 1368q82 78 191 78q68 0 155.5 -48 t141.5 -48q76 0 139 57l37 -100q-90 -76 -195 -76q-76 0 -160 48t-139 48q-74 0 -135 -57z" />
<glyph unicode="&#xf6;" d="M80 342q0 299 166 496.5t416 197.5q186 0 278 -98t92 -268q0 -303 -176 -495.5t-412 -192.5q-364 0 -364 360zM238 371q0 -258 233 -258q162 0 280.5 153.5t118.5 388.5q0 252 -231 252q-174 0 -287.5 -160.5t-113.5 -375.5zM436 1341q0 43 30 72t73 29q39 0 66.5 -28 t27.5 -64q0 -43 -30 -73t-70.5 -30t-68.5 27.5t-28 66.5zM821 1341q0 43 30 72t73 29q39 0 66.5 -28t27.5 -64q0 -43 -30 -73t-70.5 -30t-68.5 27.5t-28 66.5z" />
<glyph unicode="&#xf7;" horiz-adv-x="1388" d="M203 463l24 129h998l-23 -129h-999zM524 113q0 47 33 78.5t78 31.5t75.5 -31.5t30.5 -74.5q0 -47 -31.5 -80t-76.5 -33t-77 32t-32 77zM686 938q0 47 32 80t79 33q45 0 75.5 -32t30.5 -77q0 -47 -31.5 -80t-78.5 -33q-45 0 -76 32t-31 77z" />
<glyph unicode="&#xf8;" d="M84 342q0 297 163 495.5t419 198.5q59 0 104 -12l113 203l98 -49l-107 -189q162 -86 162 -319q0 -303 -175 -495.5t-412 -192.5q-72 0 -132 18l-118 -209l-99 51l115 201q-131 90 -131 299zM238 375q0 -129 55 -193l409 723q-31 6 -69 6q-170 -4 -282.5 -162.5 t-112.5 -373.5zM385 123q49 -16 102 -14q160 4 278 159.5t118 386.5q0 145 -84 205z" />
<glyph unicode="&#xf9;" horiz-adv-x="1226" d="M123 915l16 89q156 20 328 14l-125 -656q-47 -252 100 -251q98 0 204 120.5t176.5 277.5t97.5 294l18 92q-78 14 -164 20l17 89q154 20 319 14l-172 -895q74 -12 170 -21l-18 -88q-156 -20 -324 -14q25 135 121 434l-4 2q-84 -195 -209 -325.5t-279 -130.5 q-137 0 -189 91t-20 257l107 567q-76 14 -170 20zM492 1393l94 106l245 -227l-73 -86z" />
<glyph unicode="&#xfa;" horiz-adv-x="1226" d="M123 915l16 89q156 20 328 14l-125 -656q-47 -252 100 -251q98 0 204 120.5t176.5 277.5t97.5 294l18 92q-78 14 -164 20l17 89q154 20 319 14l-172 -895q74 -12 170 -21l-18 -88q-156 -20 -324 -14q25 135 121 434l-4 2q-84 -195 -209 -325.5t-279 -130.5 q-137 0 -189 91t-20 257l107 567q-76 14 -170 20zM608 1272l285 227l78 -106l-299 -207z" />
<glyph unicode="&#xfb;" horiz-adv-x="1226" d="M123 915l16 89q156 20 328 14l-125 -656q-47 -252 100 -251q98 0 204 120.5t176.5 277.5t97.5 294l18 92q-78 14 -164 20l17 89q154 20 319 14l-172 -895q74 -12 170 -21l-18 -88q-156 -20 -324 -14q25 135 121 434l-4 2q-84 -195 -209 -325.5t-279 -130.5 q-137 0 -189 91t-20 257l107 567q-76 14 -170 20zM451 1282l286 195l260 -189l-73 -90l-199 141l-215 -141z" />
<glyph unicode="&#xfc;" horiz-adv-x="1226" d="M123 915l16 89q156 20 328 14l-125 -656q-47 -252 100 -251q98 0 204 120.5t176.5 277.5t97.5 294l18 92q-78 14 -164 20l17 89q154 20 319 14l-172 -895q74 -12 170 -21l-18 -88q-156 -20 -324 -14q25 135 121 434l-4 2q-84 -195 -209 -325.5t-279 -130.5 q-137 0 -189 91t-20 257l107 567q-76 14 -170 20zM446 1341q0 43 30 72t73 29q39 0 66.5 -28t27.5 -64q0 -43 -29.5 -73t-70.5 -30t-69 27.5t-28 66.5zM831 1341q0 43 30 72t73 29q39 0 66.5 -28t27.5 -64q0 -43 -29.5 -73t-70.5 -30t-69 27.5t-28 66.5z" />
<glyph unicode="&#xfd;" horiz-adv-x="1021" d="M-213 -510l27 141q55 -20 129 -20q121 0 239 131q125 137 125 350q0 330 -110 803q-82 14 -170 20l16 89q150 20 297 14q111 -465 111 -828q0 -70 -17 -141h2q246 426 490 1010l141 -45q-426 -1008 -782 -1358q-186 -180 -357 -180q-84 0 -141 14zM516 1272l285 227 l78 -106l-299 -207z" />
<glyph unicode="&#xfe;" horiz-adv-x="1103" d="M-162 -510l17 88q86 23 180 29l338 1759l2 6q-74 14 -172 21l16 88q156 20 328 14l-84 -436q-41 -209 -129 -481l6 -3q86 207 210 335t279 128q221 0 222 -307q0 -143 -38 -273t-112 -236.5t-198.5 -170t-286.5 -63.5q-82 0 -156 12l-74 -393q94 -6 170 -29l-16 -88h-502 zM287 135q74 -27 157 -26q117 0 207 54t141.5 143t77 190.5t25.5 208.5q0 203 -113 202q-100 0 -205.5 -121.5t-176 -276.5t-97.5 -290z" />
<glyph unicode="&#xff;" horiz-adv-x="1067" d="M-168 -510l27 141q55 -20 129 -20q119 0 237 131q125 133 125 350q0 340 -108 803q-88 14 -170 20l16 89q147 20 297 14q111 -481 111 -828q0 -59 -19 -141h4q240 414 488 1010l143 -45q-430 -1008 -782 -1358q-186 -180 -359 -180q-84 0 -139 14zM313 1341q0 43 30 72 t73 29q39 0 66.5 -28t27.5 -64q0 -43 -29.5 -73t-70.5 -30t-69 27.5t-28 66.5zM698 1341q0 43 30 72t73 29q39 0 66.5 -28t27.5 -64q0 -43 -29.5 -73t-70.5 -30t-69 27.5t-28 66.5z" />
<glyph unicode="&#x152;" horiz-adv-x="1687" d="M106 479q0 385 221.5 649.5t561.5 264.5q51 0 134 -5.5t120 -5.5h561l-59 -307h-103q0 135 4 185h-395l-94 -488h317q29 94 62 150h86l-80 -418h-88q-10 59 -4 149h-314l-102 -526h399q37 106 68 188h102l-59 -315h-561q-57 0 -150.5 -5t-132.5 -5q-494 0 -494 489z M272 508q0 -184 87 -283.5t266 -99.5q96 0 159 12l211 1112q-70 12 -135 13q-248 0 -418 -222.5t-170 -531.5z" />
<glyph unicode="&#x153;" horiz-adv-x="1720" d="M80 342q0 297 163 495.5t419 198.5q258 0 331 -211q150 211 391 211q143 0 216 -63.5t73 -161.5q0 -324 -672 -350q-10 -82 -10 -133q0 -129 51.5 -174t182.5 -45q150 0 284 61v-127q-150 -61 -340 -61q-139 0 -213.5 47t-95.5 161q-72 -100 -183.5 -154t-232.5 -54 q-364 0 -364 360zM238 371q0 -258 233 -258q162 0 280.5 153.5t118.5 388.5q0 252 -231 252q-174 0 -287.5 -160.5t-113.5 -375.5zM1026 582q256 10 374 61t118 150q0 59 -41 92t-111 33q-123 0 -211 -93t-129 -243z" />
<glyph unicode="&#x178;" horiz-adv-x="1212" d="M168 1294l18 88h455l-16 -88q-66 -20 -168 -26l104 -398q41 -156 57 -233h5q23 37 48 78t63 99t65 101l225 353q-86 8 -143 26l16 88h451l-17 -88q-68 -18 -133 -24l-526 -774l-72 -381q84 -6 168 -27l-16 -88h-502l16 88q88 20 180 27l72 381l-221 774q-66 6 -129 24z M494 1618q0 43 29.5 71.5t72.5 28.5q39 0 66.5 -27.5t27.5 -64.5q0 -43 -29.5 -72.5t-70.5 -29.5t-68.5 27.5t-27.5 66.5zM879 1618q0 43 29.5 71.5t72.5 28.5q39 0 66.5 -27.5t27.5 -64.5q0 -43 -29.5 -72.5t-70.5 -29.5t-68.5 27.5t-27.5 66.5z" />
<glyph unicode="&#x2c6;" horiz-adv-x="874" d="M254 1282l287 195l260 -189l-74 -90l-199 141l-215 -141z" />
<glyph unicode="&#x2dc;" horiz-adv-x="1017" d="M268 1368q82 78 191 78q68 0 155.5 -48t141.5 -48q76 0 139 57l37 -100q-90 -76 -195 -76q-76 0 -159.5 48t-139.5 48q-74 0 -135 -57z" />
<glyph unicode="&#x2000;" horiz-adv-x="905" />
<glyph unicode="&#x2001;" horiz-adv-x="1810" />
<glyph unicode="&#x2002;" horiz-adv-x="905" />
<glyph unicode="&#x2003;" horiz-adv-x="1810" />
<glyph unicode="&#x2004;" horiz-adv-x="602" />
<glyph unicode="&#x2005;" horiz-adv-x="452" />
<glyph unicode="&#x2006;" horiz-adv-x="301" />
<glyph unicode="&#x2007;" horiz-adv-x="301" />
<glyph unicode="&#x2008;" horiz-adv-x="225" />
<glyph unicode="&#x2009;" horiz-adv-x="360" />
<glyph unicode="&#x200a;" horiz-adv-x="100" />
<glyph unicode="&#x2010;" horiz-adv-x="671" d="M96 449v122h473v-122h-473z" />
<glyph unicode="&#x2011;" horiz-adv-x="671" d="M96 449v122h473v-122h-473z" />
<glyph unicode="&#x2012;" horiz-adv-x="671" d="M96 449v122h473v-122h-473z" />
<glyph unicode="&#x2013;" horiz-adv-x="1024" d="M0 524v135h1024v-135h-1024z" />
<glyph unicode="&#x2014;" horiz-adv-x="2048" d="M0 524v135h2048v-135h-2048z" />
<glyph unicode="&#x2018;" horiz-adv-x="471" d="M244 1104q-33 119 100 274q68 78 168 152l57 -70q-203 -172 -139 -286q27 -49 -1 -98.5t-85 -49.5q-77 0 -100 78z" />
<glyph unicode="&#x2019;" horiz-adv-x="471" d="M193 1081q203 172 139 287q-27 49 0.5 98.5t85.5 49.5q76 0 98 -76q35 -117 -96 -273q-66 -80 -170 -153z" />
<glyph unicode="&#x201a;" horiz-adv-x="471" d="M-70 -231q203 170 140 288q-27 49 0.5 97.5t85.5 48.5q76 0 98 -76q35 -117 -96 -272q-66 -80 -170 -154z" />
<glyph unicode="&#x201c;" horiz-adv-x="827" d="M244 1104q-33 119 100 274q68 78 168 152l57 -70q-203 -172 -139 -286q27 -49 -1 -98.5t-85 -49.5q-77 0 -100 78zM608 1104q-33 119 101 274q66 78 165 152l58 -70q-203 -172 -139 -286q27 -47 0 -97.5t-84 -50.5q-78 0 -101 78z" />
<glyph unicode="&#x201d;" horiz-adv-x="827" d="M193 1081q203 172 139 287q-27 49 0.5 98.5t85.5 49.5q76 0 98 -76q35 -117 -96 -273q-66 -80 -170 -153zM553 1081q205 172 141 287q-29 47 -1 97.5t85 50.5q78 0 101 -78q33 -119 -101 -273q-66 -78 -168 -151z" />
<glyph unicode="&#x201e;" horiz-adv-x="827" d="M-70 -231q203 170 140 288q-27 49 0.5 97.5t85.5 48.5q76 0 98 -76q35 -117 -96 -272q-66 -80 -170 -154zM293 -231q205 172 141 288q-29 47 -1 96.5t85 49.5q78 0 100 -78q33 -119 -100 -272q-66 -78 -168 -152z" />
<glyph unicode="&#x2022;" horiz-adv-x="868" d="M209 588q0 98 66.5 165.5t162.5 67.5q90 0 153.5 -64.5t63.5 -152.5q0 -100 -65.5 -166.5t-161.5 -66.5q-90 0 -154.5 63.5t-64.5 153.5z" />
<glyph unicode="&#x2026;" horiz-adv-x="1306" d="M49 92q2 47 35 80t80 33q45 0 75.5 -32t28.5 -77q-2 -47 -36.5 -79.5t-80 -32.5t-76 31.5t-26.5 76.5zM471 92q2 47 36 80t81 33q45 0 75.5 -32t26.5 -77q-2 -47 -34.5 -79.5t-80.5 -32.5q-45 0 -75.5 31.5t-28.5 76.5zM895 92q2 47 36 80t81 33q45 0 74.5 -32t27.5 -77 q-2 -47 -36 -79.5t-81 -32.5q-45 0 -74.5 31.5t-27.5 76.5z" />
<glyph unicode="&#x202f;" horiz-adv-x="360" />
<glyph unicode="&#x2039;" horiz-adv-x="636" d="M123 502l289 360l106 -71l-244 -291l179 -281l-123 -72z" />
<glyph unicode="&#x203a;" horiz-adv-x="636" d="M123 219l244 289l-179 283l121 69l209 -354l-289 -361z" />
<glyph unicode="&#x205f;" horiz-adv-x="452" />
<glyph unicode="&#x20ac;" horiz-adv-x="1126" d="M25 469l20 102h168q10 88 31 183h-164l18 102h174q76 238 226.5 391.5t386.5 153.5q129 0 270 -33l-53 -285h-92q-2 72 8 168q-72 20 -156 21q-156 0 -261 -117t-165 -299h393l-20 -102h-403q-20 -94 -31 -183h401l-20 -102h-389q-2 -12 -2 -35q0 -319 270 -319 q162 0 303 65l-6 -133q-156 -66 -340 -65q-190 0 -288.5 112.5t-98.5 331.5v43h-180z" />
<glyph unicode="&#x2122;" horiz-adv-x="1599" d="M223 793l15 67q57 14 116 21l78 409h-94q-18 -70 -43 -116h-66l41 208h480l-41 -208h-66q-2 39 2 116h-94l-78 -409q55 -6 111 -21l-13 -67h-348zM655 793l15 67q27 8 92 17l147 417q-53 6 -92 19l12 69h269l32 -346l5 -98l34 88l177 356h264l-15 -69q-35 -10 -96 -19 l-12 -417q41 -2 84 -17l-12 -67h-289l14 67q45 12 86 17l8 258l6 108l-43 -92l-176 -358h-127l-37 362l-6 88l-20 -72l-101 -294q41 -6 80 -17l-10 -67h-289z" />
<glyph unicode="&#xe000;" horiz-adv-x="1075" d="M0 1075h1075v-1075h-1075v1075z" />
<glyph unicode="&#xf001;" horiz-adv-x="1210" d="M-362 -508l36 133q70 -23 154 -22q121 0 189.5 75.5t103.5 260.5l184 958h-219l25 121h219l8 49q68 440 528 440q137 0 273 -39l-56 -127q-106 39 -229 39q-309 0 -362 -293l-13 -69h617l-170 -895q82 -14 168 -21l-17 -88q-156 -20 -325 -14l170 897h-467l-181 -954 q-49 -248 -161.5 -358.5t-300.5 -110.5q-90 0 -174 18z" />
<glyph unicode="&#xfb01;" horiz-adv-x="1210" d="M-362 -508l36 133q70 -23 154 -22q121 0 189.5 75.5t103.5 260.5l184 958h-219l25 121h219l8 49q68 440 528 440q137 0 273 -39l-56 -127q-106 39 -229 39q-309 0 -362 -293l-13 -69h617l-170 -895q82 -14 168 -21l-17 -88q-156 -20 -325 -14l170 897h-467l-181 -954 q-49 -248 -161.5 -358.5t-300.5 -110.5q-90 0 -174 18z" />
<glyph unicode="&#xf002;" horiz-adv-x="1214" d="M-362 -508l36 133q70 -23 154 -22q121 0 189.5 75.5t103.5 260.5l184 958h-219l25 121h217l22 112q72 377 498 377q160 0 336 -28l-256 -1356q84 -14 170 -21l-17 -88q-158 -20 -327 -14l260 1366q-88 16 -180 16q-145 0 -226.5 -61t-107.5 -195l-21 -108h289l-25 -121 h-288l-181 -954q-49 -248 -161.5 -358.5t-300.5 -110.5q-90 0 -174 18z" />
<glyph unicode="&#xfb02;" horiz-adv-x="1214" d="M-362 -508l36 133q70 -23 154 -22q121 0 189.5 75.5t103.5 260.5l184 958h-219l25 121h217l22 112q72 377 498 377q160 0 336 -28l-256 -1356q84 -14 170 -21l-17 -88q-158 -20 -327 -14l260 1366q-88 16 -180 16q-145 0 -226.5 -61t-107.5 -195l-21 -108h289l-25 -121 h-288l-181 -954q-49 -248 -161.5 -358.5t-300.5 -110.5q-90 0 -174 18z" />
<glyph unicode="&#xfb03;" horiz-adv-x="1826" d="M-362 -508l36 133q70 -23 154 -22q121 0 189.5 75.5t103.5 260.5l184 958h-219l25 121h217l10 59q80 426 506 426q170 0 330 -71q119 76 307 75q137 0 272 -39l-55 -127q-106 39 -230 39q-307 0 -362 -301l-12 -61h616l-170 -895q82 -14 168 -21l-14 -88 q-158 -20 -328 -14l170 897h-465l-182 -967q-47 -242 -176 -347t-334 -105q-160 0 -316 65q-102 -70 -251 -69q-90 0 -174 18zM166 -344q104 -49 231 -49q143 0 224 73.5t114 239.5l187 977h-467l-181 -954q-36 -187 -108 -287zM479 1018h465l10 55q25 154 109 252 q-113 53 -234 53q-289 0 -340 -291z" />
<glyph unicode="&#xfb04;" horiz-adv-x="1830" d="M-362 -508l36 133q70 -23 154 -22q121 0 189.5 75.5t103.5 260.5l184 958h-219l25 121h217l12 59q76 426 504 426q160 0 319 -65q121 70 299 69q160 0 336 -28l-258 -1356q82 -14 170 -21l-16 -88q-158 -20 -328 -14l260 1366q-84 16 -178 16q-147 0 -227 -61t-105 -195 l-20 -108h293l-25 -121h-293l-182 -967q-47 -242 -176 -347t-334 -105q-160 0 -316 65q-102 -70 -251 -69q-90 0 -174 18zM166 -344q104 -49 231 -49q143 0 224 73.5t114 239.5l187 977h-467l-181 -954q-36 -187 -108 -287zM479 1018h465l23 112q20 117 86 199 q-104 49 -224 49q-291 0 -337 -291z" />
</font>
</defs>
</svg>
