<?xml version="1.0" standalone="no"?>
<!DOCTYPE svg PUBLIC "-//W3C//DTD SVG 1.1//EN" "http://www.w3.org/Graphics/SVG/1.1/DTD/svg11.dtd" >
<svg xmlns="http://www.w3.org/2000/svg">
<metadata></metadata>
<defs>
<font id="TheSerifSemiLightItalic" horiz-adv-x="1150" >
<font-face units-per-em="2048" ascent="1536" descent="-512" />
<missing-glyph horiz-adv-x="446" />
<glyph horiz-adv-x="0" />
<glyph horiz-adv-x="2048" />
<glyph unicode="&#x9;" horiz-adv-x="446" />
<glyph unicode="&#xd;" horiz-adv-x="446" />
<glyph unicode=" "  horiz-adv-x="446" />
<glyph unicode="&#x09;" horiz-adv-x="446" />
<glyph unicode="&#xa0;" horiz-adv-x="446" />
<glyph unicode="!" horiz-adv-x="602" d="M119 88q0 47 32 79t78 32q45 0 75 -31t30 -74q0 -47 -32.5 -78.5t-78.5 -31.5q-45 0 -74.5 30.5t-29.5 73.5zM209 328l184 1112h178l-239 -1112h-123z" />
<glyph unicode="&#x22;" horiz-adv-x="714" d="M252 1055l29 452h165l-84 -452h-110zM575 1055l31 452h166l-84 -452h-113z" />
<glyph unicode="#" horiz-adv-x="1357" d="M49 403l21 107h315l119 410h-301l22 108h310l104 354h127l-102 -354h311l102 354h129l-104 -354h301l-23 -108h-309l-121 -410h299l-20 -107h-311l-119 -403h-127l119 403h-312l-119 -403h-129l121 403h-303zM512 510h311l119 410h-309z" />
<glyph unicode="$" horiz-adv-x="958" d="M49 18l57 301h101q0 -74 -8 -184q81 -18 153 -18q134 0 212.5 70.5t78.5 162.5q0 55 -24 98t-62.5 72.5t-85 56t-93 55t-85 62.5t-62.5 86.5t-24 118.5q0 142 101.5 246t275.5 125l41 219h116l-39 -211q114 -3 213 -27l-55 -288h-96q0 125 8 178q-72 10 -127 10 q-138 0 -209 -63t-71 -158q0 -49 24.5 -89t63.5 -67.5t86 -53.5t94 -56t86 -65t63.5 -89t24.5 -121q0 -143 -105.5 -257.5t-287.5 -139.5l-54 -275h-118l53 267q-131 3 -246 34z" />
<glyph unicode="%" horiz-adv-x="1595" d="M166 1018q0 170 103.5 279.5t252.5 109.5q128 0 204.5 -67.5t76.5 -209.5q0 -74 -25 -143.5t-70 -125t-115.5 -89t-154.5 -33.5q-129 0 -200.5 68.5t-71.5 210.5zM215 35l1100 1392l102 -79l-1100 -1393zM309 1030q0 -91 37.5 -134.5t116.5 -43.5q63 0 110 42.5t68 100 t21 115.5q0 94 -36.5 139t-119.5 45q-90 0 -143.5 -80t-53.5 -184zM844 254q0 170 103.5 279.5t252.5 109.5q128 0 204.5 -67t76.5 -209q0 -100 -41.5 -188t-126.5 -146t-197 -58q-130 0 -201 68.5t-71 210.5zM987 266q0 -91 36.5 -134.5t115.5 -43.5q63 0 109.5 42.5 t67.5 100t21 115.5q0 94 -36 139t-119 45q-89 0 -142 -79.5t-53 -184.5z" />
<glyph unicode="&#x26;" horiz-adv-x="1652" d="M94 301q0 73 22.5 140.5t55 118.5t87.5 105t100.5 90.5t113.5 84.5q-125 199 -125 323q0 146 107.5 249.5t275.5 103.5q141 0 211 -64.5t70 -169.5q0 -69 -26.5 -132.5t-80 -122t-105 -102t-130.5 -100.5q138 -195 397 -454q71 74 129 185.5t86 242.5q-99 7 -156 26 l17 88h475l-19 -88q-66 -19 -165 -26q-68 -307 -271 -516q81 -75 187 -166q73 -8 153 -29l-18 -88h-236q-88 75 -202 182q-126 -100 -275.5 -151t-298.5 -51q-96 0 -170 25.5t-119 70.5t-67.5 102t-22.5 123zM256 342q0 -98 62.5 -164.5t189.5 -66.5q236 0 442 163 q-242 246 -403 463q-68 -48 -111.5 -85t-89 -87t-68 -105.5t-22.5 -117.5zM502 1184q0 -92 96 -258q61 43 100.5 75.5t80 75t60 88t19.5 95.5q0 62 -36.5 98.5t-106.5 36.5q-98 0 -155.5 -59.5t-57.5 -151.5z" />
<glyph unicode="'" horiz-adv-x="389" d="M266 1055l29 452h168l-84 -452h-113z" />
<glyph unicode="(" horiz-adv-x="612" d="M135 266q0 338 133 678.5t363 624.5h149q-224 -277 -360 -619.5t-137 -668.5q0 -391 120 -676h-141q-127 315 -127 661z" />
<glyph unicode=")" horiz-adv-x="612" d="M-123 -395q238 298 369 634t131 650q0 394 -117 680h135q127 -306 127 -668q0 -677 -491 -1296h-154z" />
<glyph unicode="*" horiz-adv-x="741" d="M199 1102l225 94l-186 102l65 99l166 -133l29 235l116 -12l-63 -221l199 129l51 -103l-228 -94l189 -102l-68 -103l-170 137l-26 -235l-117 12l61 219l-192 -129z" />
<glyph unicode="+" horiz-adv-x="1185" d="M84 463l22 129h443l90 461h145l-90 -461h447l-25 -129h-446l-90 -463h-144l90 463h-442z" />
<glyph unicode="," horiz-adv-x="436" d="M-86 -231q202 169 141 288q-27 47 0 96.5t84 49.5q66 0 93 -59q37 -78 -24 -193q-67 -128 -235 -250z" />
<glyph unicode="-" horiz-adv-x="671" d="M96 449v122h473v-122h-473z" />
<glyph unicode="." horiz-adv-x="436" d="M31 92q0 47 33 80t79 33q45 0 76 -32t31 -77q0 -47 -32.5 -79.5t-78.5 -32.5q-44 0 -76 32t-32 76z" />
<glyph unicode="/" horiz-adv-x="835" d="M10 0l781 1382h149l-778 -1382h-152z" />
<glyph unicode="0" horiz-adv-x="1234" d="M102 365q0 149 49 280t133.5 224.5t202.5 147.5t250 54q196 0 302 -107t106 -292q0 -147 -51.5 -276.5t-139 -219.5t-205.5 -142t-247 -52q-197 0 -298.5 98.5t-101.5 284.5zM256 397q0 -130 70 -207t204 -77q121 0 227 71t170 194.5t64 268.5q0 135 -70.5 215t-211.5 80 q-129 0 -234 -76.5t-162 -201t-57 -267.5z" />
<glyph unicode="1" horiz-adv-x="733" d="M6 0l17 90q137 27 231 29l149 786l-260 -104v141l316 111h129l-178 -934q86 -6 176 -29l-17 -90h-563z" />
<glyph unicode="2" horiz-adv-x="966" d="M10 0l21 123l344 254q182 134 249.5 217t67.5 182q0 68 -44 118t-140 50q-89 0 -180 -33q-33 -116 -60 -180h-90l53 279q147 59 310 59q153 0 235 -75t82 -191q0 -88 -40 -167t-109 -147.5t-183 -152.5l-276 -201v-2q117 6 534 6l-28 -139h-746z" />
<glyph unicode="3" horiz-adv-x="935" d="M-63 -389l32 141q76 -26 160 -26q192 0 315 103.5t123 266.5q0 128 -113.5 181.5t-318.5 29.5l25 125q231 0 371.5 92.5t140.5 253.5q0 79 -48 121.5t-141 42.5q-70 0 -159 -29q-15 -62 -60 -182h-90l53 283q135 55 285 55q161 0 241.5 -72.5t80.5 -193.5 q0 -277 -320 -406l-2 -2q92 -11 157.5 -88t65.5 -188q0 -145 -81 -266t-226 -192t-324 -71q-87 0 -167 21z" />
<glyph unicode="4" horiz-adv-x="1093" d="M-39 0v127l748 928h213l-174 -916h239l-26 -139h-242l-53 -287q86 -6 165 -26l-14 -86h-498l17 86q92 20 180 26l53 287h-608zM117 135q129 4 481 4l145 768h-2z" />
<glyph unicode="5" horiz-adv-x="925" d="M-41 -399l33 145q56 -16 125 -16q201 0 329.5 97t128.5 267q0 61 -22.5 111.5t-70.5 92t-132.5 64.5t-199.5 23l124 668h607l-31 -150h-459l-74 -389q199 -13 311.5 -117.5t112.5 -269.5q0 -125 -55 -228.5t-146 -169.5t-205.5 -102.5t-236.5 -36.5q-56 0 -139 11z" />
<glyph unicode="6" horiz-adv-x="1175" d="M143 381q0 85 14 179t46.5 198.5t80.5 202t120.5 186.5t160.5 155t207.5 105t255.5 39q40 0 86 -4l-27 -133q-44 8 -96 8q-217 0 -371.5 -137t-240.5 -375q-4 -13 -16 -42t-19 -46l2 -2q60 88 159.5 138t213.5 50q90 0 159.5 -28t110 -75.5t60.5 -105.5t20 -123 q0 -130 -47 -242t-125 -187t-180 -117.5t-213 -42.5q-94 0 -164.5 30t-113 84t-63 125.5t-20.5 159.5zM305 365q0 -31 5 -62t19.5 -67.5t37.5 -63.5t63 -45t92 -18q166 0 274.5 120t108.5 316q0 98 -58.5 161.5t-170.5 63.5q-150 0 -260.5 -121t-110.5 -284z" />
<glyph unicode="7" horiz-adv-x="925" d="M86 -399q322 744 686 1312q-37 -4 -512 -4q-25 -96 -59 -174h-101l62 318h811l-25 -131q-400 -610 -680 -1321h-182z" />
<glyph unicode="8" horiz-adv-x="1103" d="M90 272q0 65 21.5 124.5t54 104t85 89.5t100.5 76.5t114 68.5q-47 34 -81.5 64.5t-66 71t-47.5 89.5t-16 105q0 165 133 276t340 111q170 0 259 -74.5t89 -203.5q0 -73 -27 -136.5t-80 -116.5t-109 -93t-136 -85q106 -72 169.5 -156t63.5 -194q0 -120 -68.5 -215 t-182 -145.5t-248.5 -50.5q-189 0 -278 76.5t-89 213.5zM252 289q0 -73 57 -125.5t176 -52.5q123 0 216.5 74t93.5 177q0 50 -17 93.5t-51.5 81t-67 64.5t-84.5 63q-56 -31 -99.5 -59t-87 -64.5t-72 -73t-46.5 -83t-18 -95.5zM416 1077q0 -54 28.5 -102.5t66 -82 t101.5 -77.5q71 40 118 71.5t93.5 72.5t69 87.5t22.5 98.5q0 79 -53.5 130.5t-156.5 51.5q-130 0 -209.5 -74t-79.5 -176z" />
<glyph unicode="9" horiz-adv-x="1167" d="M20 -399l27 141q68 -14 123 -14q424 0 618 483q30 80 41 106v2q-64 -85 -161.5 -129.5t-208.5 -44.5q-171 0 -258.5 92t-87.5 240q0 116 40.5 223t111 189t175 131t224.5 49q194 0 285 -105.5t91 -295.5q0 -83 -13.5 -175.5t-45 -198.5t-78.5 -204.5t-120 -190.5 t-163 -160t-214 -108.5t-267 -40.5q-51 0 -119 11zM279 500q0 -95 59 -155t160 -60q159 0 269 108t110 293q0 112 -61 184t-177 72q-152 0 -256 -132t-104 -310z" />
<glyph unicode=":" horiz-adv-x="503" d="M66 92q0 47 32 80t78 33q45 0 77 -32t32 -77q0 -47 -32.5 -79.5t-78.5 -32.5q-45 0 -76.5 31.5t-31.5 76.5zM180 698q0 47 33.5 81t79.5 34q45 0 76.5 -33t31.5 -78q0 -47 -32 -79.5t-78 -32.5t-78.5 32t-32.5 76z" />
<glyph unicode=";" horiz-adv-x="503" d="M-49 -231q204 171 141 288q-27 47 0 96.5t84 49.5q66 0 93 -59q37 -78 -24 -193q-67 -128 -235 -250zM180 698q0 47 33.5 81t79.5 34q45 0 76.5 -33t31.5 -78q0 -47 -32 -79.5t-78 -32.5t-78.5 32t-32.5 76z" />
<glyph unicode="&#x3c;" horiz-adv-x="1038" d="M143 516l752 582l90 -105l-647 -489l450 -465l-106 -96z" />
<glyph unicode="=" horiz-adv-x="1224" d="M133 289l27 129h901l-25 -129h-903zM199 623l26 129h903l-26 -129h-903z" />
<glyph unicode="&#x3e;" horiz-adv-x="1038" d="M74 47l647 490l-451 464l107 97l538 -574l-751 -581z" />
<glyph unicode="?" horiz-adv-x="841" d="M160 88q0 47 31.5 79t76.5 32t76 -31t31 -74q0 -47 -32.5 -78.5t-78.5 -31.5q-45 0 -74.5 30.5t-29.5 73.5zM219 328q-12 89 4.5 164t51.5 128.5t80.5 99.5t93 86t87.5 78t65.5 85.5t25.5 99.5q0 93 -94.5 159t-245.5 83l45 139q217 -21 341 -124.5t124 -240.5 q0 -68 -26.5 -126.5t-67.5 -101.5t-90.5 -84.5t-97 -84.5t-84 -92t-54 -117.5t-6.5 -150.5h-152z" />
<glyph unicode="@" horiz-adv-x="1724" d="M164 635q0 165 62 311t166.5 247t244.5 159.5t293 58.5t277 -48.5t203.5 -132t122 -192t42.5 -231.5q0 -224 -105.5 -339.5t-281.5 -115.5q-111 0 -159.5 60t-33.5 141h-4q-27 -76 -103.5 -138.5t-168.5 -62.5q-95 0 -137.5 58.5t-42.5 173.5q0 131 45 237.5t138.5 172 t221.5 65.5q98 0 225 -23l-65 -362q-20 -110 8.5 -158.5t101.5 -48.5q224 0 224 334q0 97 -31 183.5t-91.5 156t-162 110.5t-231.5 41q-127 0 -241 -48t-197 -132.5t-132 -205.5t-49 -259q0 -250 149 -407.5t406 -157.5q152 0 291 45v-125q-128 -41 -309 -41 q-205 0 -359.5 86t-235.5 238.5t-81 349.5zM676 610q0 -139 78 -139q84 0 152 105.5t102 279.5l16 86q-39 10 -109 10q-61 0 -109.5 -33.5t-75.5 -86t-40.5 -110t-13.5 -112.5z" />
<glyph unicode="A" horiz-adv-x="1392" d="M-82 0l16 88q67 18 134 25l704 1269h176l221 -1269q58 -6 125 -25l-18 -88h-457l17 88q91 21 170 27l-39 243h-598l-136 -243q73 -6 156 -27l-16 -88h-455zM434 483h514l-94 539q-21 130 -25 199h-4q-49 -110 -96 -197z" />
<glyph unicode="B" horiz-adv-x="1191" d="M-29 0l19 88q94 21 180 27l219 1153q-86 6 -168 26l17 88h174q38 0 162 3.5t212 3.5q191 0 285 -71t94 -192q0 -77 -26.5 -144.5t-71.5 -116t-98.5 -82.5t-114.5 -54v-2q102 -20 160.5 -91.5t58.5 -166.5q0 -96 -39 -181.5t-112.5 -151t-189.5 -104t-259 -38.5 q-37 0 -150.5 3t-175.5 3h-176zM328 133q70 -12 180 -12q189 0 295 96t106 238q0 100 -78 150t-243 50q-127 0 -162 -2zM449 776q43 -2 126 -2q188 0 308.5 84.5t120.5 235.5q0 52 -21.5 87.5t-81 58t-158.5 22.5q-55 0 -202 -5z" />
<glyph unicode="C" horiz-adv-x="1165" d="M117 455q0 149 31.5 286.5t97 256.5t157 207.5t220 139t278.5 50.5q165 0 316 -41l-60 -314h-102q0 32 6 191q-86 29 -199 29q-116 0 -212.5 -45t-162.5 -121t-112 -177.5t-67 -211.5t-21 -226q0 -82 18 -144.5t59.5 -111.5t114.5 -74.5t176 -25.5q179 0 336 72l-4 -140 q-181 -71 -379 -71q-491 0 -491 471z" />
<glyph unicode="D" horiz-adv-x="1425" d="M-29 0l19 88q94 21 180 27l217 1153q-88 6 -170 26l19 88h172q50 0 183.5 3.5t199.5 3.5q161 0 278 -37t185 -106t100 -158t32 -201q0 -139 -33.5 -267t-105.5 -242.5t-176 -199.5t-255.5 -134.5t-332.5 -49.5q-80 0 -188.5 3t-147.5 3h-176zM326 137q96 -14 180 -14 q149 0 271.5 43.5t204 116t137.5 169.5t81 201.5t25 214.5q0 89 -23 157.5t-74 123.5t-142 84t-218 29q-36 0 -229 -7z" />
<glyph unicode="E" horiz-adv-x="1073" d="M-31 0l19 88q94 21 180 27l217 1153q-88 6 -170 26l18 88h857l-58 -307h-104q0 111 6 185h-397l-93 -488h318q29 96 59 150h88l-80 -418h-88q-7 37 -7 84q0 30 3 65h-315l-100 -526h399q17 55 67 188h103l-60 -315h-862z" />
<glyph unicode="F" horiz-adv-x="1003" d="M-31 0l17 88q98 21 180 27l219 1153q-86 6 -168 26l16 88h861l-60 -307h-104q5 171 6 182h-399l-95 -497h324q26 86 61 149h88l-79 -422h-91q-4 47 -4 90q0 31 2 60h-323l-101 -522q83 -6 170 -27l-16 -88h-504z" />
<glyph unicode="G" horiz-adv-x="1392" d="M106 510q0 192 68 359.5t184.5 283.5t275.5 182t337 66q190 0 362 -51l-57 -306h-105q0 63 9 191q-129 33 -230 33q-144 0 -270.5 -58.5t-215.5 -158.5t-140.5 -237t-51.5 -290q0 -78 23.5 -148t71 -129.5t132 -94.5t195.5 -35q142 0 289 45l80 418q-92 6 -168 28l18 88 h465l-18 -88q-59 -16 -143 -26l-101 -525q-213 -75 -448 -75q-184 0 -312.5 69t-189 186t-60.5 273z" />
<glyph unicode="H" horiz-adv-x="1523" d="M-31 0l17 88q98 21 180 27l219 1153q-86 6 -168 26l16 88h494l-16 -88q-72 -19 -172 -26l-90 -486h737l90 486q-96 7 -160 26l17 88h493l-16 -88q-93 -20 -180 -26l-220 -1153q83 -6 170 -27l-16 -88h-496l17 88q77 20 172 27l102 536h-737l-103 -536q94 -7 162 -27 l-16 -88h-496z" />
<glyph unicode="I" horiz-adv-x="632" d="M-31 0l17 88q98 21 180 27l219 1153q-86 6 -168 26l16 88h502l-16 -88q-93 -20 -180 -26l-220 -1153q83 -6 170 -27l-16 -88h-504z" />
<glyph unicode="J" horiz-adv-x="673" d="M-88 2l29 141q60 -24 131 -24q92 0 147.5 52t79.5 181l174 916q-86 6 -168 26l17 88h471l-19 -88q-77 -20 -147 -26l-174 -924q-34 -176 -128 -267t-266 -91q-65 0 -147 16z" />
<glyph unicode="K" horiz-adv-x="1316" d="M-31 0l17 88q98 21 180 27l219 1153q-86 6 -168 26l16 88h484l-17 -88q-65 -18 -161 -26l-105 -553l613 553q-77 6 -144 26l17 88h491l-20 -88q-61 -16 -144 -26l-635 -568l430 -585q80 -7 150 -27l-16 -88h-488l17 88q71 19 143 25l-418 587l-111 -585q91 -8 152 -27 l-16 -88h-486z" />
<glyph unicode="L" horiz-adv-x="921" d="M-31 0l17 88q98 21 180 27l219 1153q-86 6 -168 26l16 88h502l-16 -88q-93 -20 -180 -26l-217 -1139h383q19 71 65 193h102l-61 -322h-842z" />
<glyph unicode="M" horiz-adv-x="1843" d="M-70 0l17 88q68 18 133 25l383 1155q-86 6 -168 26l16 88h379l131 -933q25 -179 25 -269h4q35 88 121 254l493 948h402l-17 -88q-93 -20 -180 -26l-51 -1155q56 -6 127 -25l-16 -88h-453l16 88q91 21 170 27l35 751q11 230 23 334h-4q-75 -164 -111 -233l-500 -967h-176 l-127 905q-29 207 -29 295h-2q-31 -118 -102 -346l-227 -739q74 -5 155 -27l-16 -88h-451z" />
<glyph unicode="N" horiz-adv-x="1490" d="M-29 0l17 88q98 21 180 27l217 1153q-86 6 -168 26l16 88h363l387 -907q72 -178 109 -287q45 283 92 529l98 551q-94 7 -158 26l17 88h456l-16 -88q-76 -20 -147 -26l-242 -1268h-188l-388 909q-62 144 -106 291q-36 -252 -96 -563l-95 -522q91 -6 160 -27l-16 -88h-492z " />
<glyph unicode="O" horiz-adv-x="1415" d="M106 483q0 186 60.5 355t164 292.5t250 197t310.5 73.5q237 0 365 -130.5t128 -369.5q0 -155 -40 -297t-112.5 -254t-170 -195.5t-217.5 -128t-250 -44.5q-242 0 -365 130t-123 371zM274 504q0 -180 88.5 -282.5t251.5 -102.5q162 0 300.5 100t220.5 276.5t82 387.5 q0 181 -88 282t-263 101q-167 0 -303.5 -104t-212.5 -278t-76 -380z" />
<glyph unicode="P" horiz-adv-x="1103" d="M-29 0l17 88q98 21 180 27l217 1153q-86 6 -168 26l16 88h148q29 0 151 3.5t195 3.5q198 0 300.5 -87t102.5 -237q0 -151 -86.5 -272.5t-225 -186.5t-296.5 -65q-66 0 -121 6l-79 -432q83 -6 170 -27l-17 -88h-504zM428 682q58 -10 123 -10q168 0 293 106t125 262 q0 222 -277 222q-42 0 -155 -5z" />
<glyph unicode="Q" horiz-adv-x="1419" d="M109 483q0 249 101.5 459t282 334.5t400.5 124.5q236 0 364.5 -131t128.5 -369q0 -193 -62.5 -364.5t-168.5 -292.5t-252 -191.5t-307 -70.5q-242 0 -364.5 129.5t-122.5 371.5zM276 504q0 -180 87.5 -282.5t252.5 -102.5q162 0 300.5 100t220.5 276.5t82 387.5 q0 181 -89 282t-262 101q-168 0 -304.5 -104t-212 -278t-75.5 -380zM510 -287l25 133q54 7 106 7q33 0 65 -3q82 -7 139 -23.5t128 -32t137 -22.5q25 -3 54 -3q50 0 114 8l-27 -133q-67 -10 -129 -10q-27 0 -54 2q-87 6 -146 22.5t-129 33t-131 24.5q-25 3 -56 3 q-43 0 -96 -6z" />
<glyph unicode="R" horiz-adv-x="1161" d="M-29 0l17 88q98 21 180 27l217 1153q-86 6 -168 26l16 88h156q39 0 148 3.5t180 3.5q202 0 300.5 -77t98.5 -220q0 -129 -70.5 -229.5t-188 -155t-263.5 -60.5q13 -21 68 -129l206 -403q69 -5 146 -27l-21 -88h-256l-303 639h-16l-96 -524q87 -7 153 -27l-16 -88h-488z M442 760q46 -4 119 -4q172 0 282.5 83t110.5 234q0 98 -62 144.5t-198 46.5q-85 0 -157 -7z" />
<glyph unicode="S" horiz-adv-x="931" d="M39 10l57 312h107q-1 -22 -4.5 -90t-5.5 -99q58 -14 98 -14q162 0 255 78t93 202q0 52 -24 95.5t-62 76t-84.5 63.5t-93 65t-84.5 73.5t-62 96t-24 124.5q0 82 34 155.5t96 130t158 89.5t212 33q95 0 206 -21l-59 -303h-100q0 99 10 187q-33 8 -90 8q-146 0 -228 -74 t-82 -172q0 -54 24.5 -99.5t63 -79.5t85.5 -66t94.5 -66.5t86 -73t63 -94t24.5 -121.5q0 -191 -152 -317.5t-387 -126.5q-142 0 -225 28z" />
<glyph unicode="T" horiz-adv-x="1105" d="M141 1057l64 325h1028l-62 -325h-102q1 28 3 98.5t5 99.5h-307l-215 -1140q78 -5 170 -27l-18 -88h-502l16 88q100 22 180 27l217 1140h-307q-18 -64 -67 -198h-103z" />
<glyph unicode="U" horiz-adv-x="1441" d="M184 316q2 73 15 155l151 797q-70 6 -139 26l16 88h463l-18 -88q-68 -19 -168 -26l-154 -799q-12 -63 -13 -115q0 -96 43 -154q65 -88 257 -89q193 0 302.5 94.5t152.5 318.5l141 744q-99 7 -162 26l16 88h461l-18 -88q-76 -20 -146 -26l-145 -762q-51 -266 -206.5 -395 t-416.5 -129q-117 0 -202 24.5t-132.5 69t-73.5 106.5q-24 58 -24 126v8z" />
<glyph unicode="V" horiz-adv-x="1372" d="M180 1294l17 88h456l-16 -88q-89 -20 -170 -26l119 -805q33 -228 39 -295h2q35 81 153 307l432 793q-85 6 -159 26l16 88h459l-17 -88q-63 -17 -131 -24l-700 -1270h-172l-205 1270q-66 7 -123 24z" />
<glyph unicode="W" horiz-adv-x="1976" d="M166 1294l16 88h455l-16 -88q-91 -21 -177 -26l52 -844q5 -106 5 -190q0 -36 -1 -68h2q75 192 104 252l451 964h184l96 -976q9 -124 9 -209v-29h2q58 154 84 211l387 889q-75 6 -154 26l16 88h445l-17 -88q-63 -17 -131 -24l-567 -1270h-192l-93 995q-8 104 -8 222h-2 q-54 -144 -92 -222l-461 -995h-192l-82 1270q-66 7 -123 24z" />
<glyph unicode="X" horiz-adv-x="1357" d="M-63 0l16 88q79 19 153 25l517 608l-275 549q-79 6 -139 24l16 88h486l-19 -88q-77 -20 -162 -26l201 -443l369 443q-71 5 -146 26l17 88h483l-16 -88q-65 -15 -156 -26l-481 -561l297 -594q76 -6 139 -25l-18 -88h-486l17 88q94 22 161 27l-221 485l-397 -485 q61 -5 143 -27l-16 -88h-483z" />
<glyph unicode="Y" horiz-adv-x="1212" d="M168 1294l18 88h455l-16 -88q-65 -19 -168 -26l104 -398q46 -179 57 -233h5q22 36 48 77.5t63.5 100t64.5 100.5l225 353q-85 7 -143 26l16 88h451l-17 -88q-67 -17 -133 -24l-526 -774l-72 -381q80 -5 168 -27l-16 -88h-502l16 88q94 21 180 27l72 381l-221 774 q-65 7 -129 24z" />
<glyph unicode="Z" horiz-adv-x="1062" d="M-4 0l20 115l758 956q60 77 156 180q-144 -4 -291 -4h-256q-22 -80 -61 -184h-103l60 319h858l-23 -116l-801 -1002q-65 -80 -110 -131q45 4 334 4h237q12 41 64 191h102l-61 -328h-883z" />
<glyph unicode="[" horiz-adv-x="641" d="M14 -401l377 1976h379l-25 -117h-237l-332 -1741h240l-25 -118h-377z" />
<glyph unicode="\" horiz-adv-x="819" d="M248 1382h133l258 -1382h-137z" />
<glyph unicode="]" horiz-adv-x="641" d="M-92 -401l22 118h238l332 1741h-240l25 117h379l-377 -1976h-379z" />
<glyph unicode="^" horiz-adv-x="1091" d="M147 764l359 618h127l334 -614l-119 -61l-289 557l-307 -557z" />
<glyph unicode="_" horiz-adv-x="1024" d="M0 -395h1024v-121h-1024v121z" />
<glyph unicode="`" horiz-adv-x="737" d="M305 1393l94 106l246 -227l-74 -86z" />
<glyph unicode="a" d="M76 287q0 114 23 220t73 202.5t123 167.5t180 113t236 42q145 0 303 -28l-168 -881q84 -15 168 -21l-17 -88q-116 -16 -242 -16q-42 0 -85 2q22 115 127 449l-4 2q-209 -471 -494 -471q-223 0 -223 307zM231 313q0 -202 115 -202q75 0 156 71.5t145 178.5t111.5 225 t66.5 217l17 88q-86 20 -158 20q-79 0 -147 -25.5t-116.5 -70t-85.5 -102.5t-59.5 -126t-33.5 -136.5t-11 -137.5z" />
<glyph unicode="b" horiz-adv-x="1120" d="M111 16l258 1356q-91 15 -170 21l16 88q117 16 243 16q42 0 85 -2l-99 -520q-21 -104 -114 -402h4q86 209 211 337t278 128q226 0 226 -307q0 -114 -23 -220t-73 -202.5t-123 -167.5t-180 -113t-236 -42q-156 0 -303 30zM281 127q86 -21 159 -21q95 0 172.5 37 t128.5 96.5t85.5 139t49.5 161t15 165.5q0 202 -113 202q-76 0 -157 -71.5t-144 -178.5t-110.5 -223.5t-67.5 -214.5z" />
<glyph unicode="c" horiz-adv-x="866" d="M76 317q0 197 69.5 359t202.5 259t305 97q104 0 236 -35l-55 -286h-93q0 92 9 178q-70 20 -115 20q-75 0 -140 -33.5t-111 -89t-79 -127.5t-49 -150.5t-16 -156.5q0 -49 8.5 -86.5t31.5 -73t70 -54.5t117 -19q139 0 256 57l-8 -135q-135 -53 -287 -53q-352 0 -352 329z " />
<glyph unicode="d" d="M76 287q0 114 23 220t73 202.5t123 167.5t180 113t236 42q75 0 155 -12l66 352q-86 15 -170 21l18 88q116 16 243 16q42 0 85 -2l-262 -1372q84 -15 168 -21l-17 -88q-116 -16 -241 -16q-42 0 -84 2q21 118 125 449l-4 2q-209 -471 -494 -471q-223 0 -223 307zM231 313 q0 -202 115 -202q75 0 156 71.5t145 178.5t111.5 225t66.5 217l17 88q-86 20 -158 20q-79 0 -147 -25.5t-116.5 -70t-85.5 -102.5t-59.5 -126t-33.5 -136.5t-11 -137.5z" />
<glyph unicode="e" horiz-adv-x="970" d="M82 307q0 144 38 275.5t107.5 232.5t175 161t232.5 60q143 0 215 -63.5t72 -161.5q0 -158 -167.5 -247.5t-502.5 -102.5q-12 -66 -12 -133q0 -128 50.5 -173.5t182.5 -45.5q150 0 285 61v-127q-144 -61 -340 -61q-171 0 -253.5 76.5t-82.5 248.5zM274 582 q255 10 372.5 62.5t117.5 148.5q0 60 -40.5 92.5t-109.5 32.5q-123 0 -212 -94t-128 -242z" />
<glyph unicode="f" horiz-adv-x="698" d="M-365 -508l37 133q70 -22 156 -22q120 0 188.5 75.5t102.5 260.5l184 958h-219l25 121h217l14 69q37 212 149.5 315t305.5 103q83 0 172 -18l-39 -127q-70 20 -154 20q-120 0 -189.5 -70.5t-95.5 -222.5l-12 -69h293l-25 -121h-290l-183 -954q-49 -247 -161.5 -358 t-300.5 -111q-92 0 -175 18z" />
<glyph unicode="g" horiz-adv-x="1099" d="M-47 -489l41 153q57 -24 133.5 -39.5t132.5 -15.5q168 0 263.5 76.5t129.5 257.5q24 124 48.5 215.5t84.5 279.5l-4 2q-207 -460 -489 -460q-223 0 -223 307q0 114 23 220t73 202.5t123 167.5t180 113t236 42q147 0 301 -28l-211 -1110q-83 -420 -572 -420 q-154 0 -270 37zM225 313q0 -202 113 -202q61 0 126.5 47t121 123t104 168t81.5 184t48 170l17 88q-90 20 -158 20q-95 0 -173.5 -36.5t-129 -96.5t-85.5 -139t-50 -160.5t-15 -165.5z" />
<glyph unicode="h" horiz-adv-x="1212" d="M109 0l260 1372q-84 15 -170 21l16 88q118 16 244 16q42 0 84 -2l-94 -496q-25 -138 -117 -415l4 -2q39 91 87.5 168.5t109 144.5t135.5 105t155 38q136 0 189 -92q33 -56 33 -140q0 -52 -13 -116l-108 -567q85 -18 168 -21l-17 -88q-121 -15 -248 -15q-38 0 -77 1 l127 655q12 65 12.5 113t-12.5 78q-25 61 -101 61q-60 0 -124.5 -47t-119.5 -122t-103.5 -166.5t-81.5 -184t-48 -170.5l-41 -217h-149z" />
<glyph unicode="i" horiz-adv-x="606" d="M141 0l172 895q-81 14 -170 20l17 89q118 16 243 16q42 0 84 -2l-170 -895q92 -16 168 -21l-16 -88q-116 -16 -243 -16q-42 0 -85 2zM362 1294q0 51 33.5 84t79.5 33q40 0 68 -29t28 -65q0 -51 -33 -83t-79 -32q-40 0 -68.5 28t-28.5 64z" />
<glyph unicode="j" horiz-adv-x="573" d="M-262 -506l41 135q57 -24 117 -24q105 0 152.5 62t80.5 231l190 997q-76 13 -172 20l17 89q118 16 244 16q42 0 84 -2l-220 -1161q-38 -199 -129 -291t-270 -92q-73 0 -135 20zM369 1294q0 51 33 84t77 33q41 0 68.5 -28.5t27.5 -65.5q0 -51 -32.5 -83t-77.5 -32 q-41 0 -68.5 27.5t-27.5 64.5z" />
<glyph unicode="k" horiz-adv-x="1067" d="M109 0l260 1372q-84 15 -170 21l16 88q118 16 244 16q42 0 84 -2l-58 -299q-36 -190 -116 -438l4 -2q127 280 375 280q116 0 186 -61t70 -156q0 -127 -111.5 -218.5t-341.5 -137.5l199 -346q74 -5 163 -27l-16 -90h-270l-273 502l-96 -502h-149zM373 541 q250 38 360.5 96.5t110.5 150.5q0 53 -35.5 88t-95.5 35q-61 0 -119.5 -38t-101 -98t-72.5 -119.5t-47 -114.5z" />
<glyph unicode="l" horiz-adv-x="573" d="M109 0l260 1372q-84 15 -170 21l16 88q118 16 244 16q42 0 84 -2l-260 -1372q93 -16 170 -21l-17 -88q-118 -16 -243 -16q-42 0 -84 2z" />
<glyph unicode="m" horiz-adv-x="1855" d="M141 0l172 895q-76 13 -172 20l17 89q119 16 245 16q42 0 84 -2q-35 -176 -120 -434l4 -2q37 90 85 168.5t108 144.5t134 104.5t152 38.5q98 0 149.5 -52t51.5 -146q0 -52 -12.5 -106t-43.5 -152l4 -2q37 91 85 170t108 145t134.5 104.5t152.5 38.5q131 0 183 -92 q31 -56 31 -138q0 -53 -12 -118l-108 -567q85 -18 166 -21l-17 -88q-116 -16 -240 -16q-41 0 -83 2l125 655q13 66 13 115q0 137 -105 137q-86 0 -185 -104.5t-176 -264.5t-108 -321l-41 -217h-152l127 655q12 67 12 115q0 46 -11 76q-23 60 -95 61q-86 0 -185 -107 t-175.5 -266.5t-106.5 -316.5l-43 -217h-152z" />
<glyph unicode="n" horiz-adv-x="1249" d="M141 0l172 895q-81 14 -172 20l17 89q119 16 244 16q41 0 83 -2q-37 -184 -118 -434l4 -2q38 90 86.5 168.5t109 144.5t135.5 104.5t154 38.5q138 0 190 -91q33 -57 32 -144q0 -51 -11 -113l-109 -567q81 -18 166 -21l-16 -88q-116 -16 -240 -16q-41 0 -84 2l125 655 q13 67 13 116q0 45 -12 75q-24 60 -101 61q-74 0 -154 -71t-143 -176.5t-110.5 -221.5t-65.5 -211l-45 -227h-150z" />
<glyph unicode="o" horiz-adv-x="1099" d="M80 342q0 197 75.5 356t208.5 248.5t298 89.5q186 0 278 -98.5t92 -267.5q0 -153 -49.5 -284t-131.5 -218.5t-188 -136.5t-219 -49q-183 0 -273.5 91.5t-90.5 268.5zM238 371q0 -129 55.5 -193.5t177.5 -64.5q162 0 280.5 153t118.5 389q0 252 -231 252 q-116 0 -209 -76.5t-142.5 -198.5t-49.5 -261z" />
<glyph unicode="p" horiz-adv-x="1155" d="M-127 -510l16 88q90 23 181 29l243 1282l2 6q-76 13 -172 20l17 89q119 16 245 16q41 0 84 -2q-26 -133 -120 -443l4 -2q85 208 209.5 336.5t279.5 128.5q223 0 223 -307q0 -114 -23 -220t-73 -202t-122.5 -166.5t-179.5 -112.5t-236 -42q-81 0 -158 12l-74 -393 q87 -6 168 -29l-16 -88h-498zM322 135q73 -26 157 -26q94 0 171 36.5t128 96t86 138t50.5 160.5t15.5 165q0 202 -115 202q-75 0 -156 -71.5t-144 -178.5t-110.5 -224t-66.5 -214z" />
<glyph unicode="q" horiz-adv-x="1101" d="M76 287q0 114 23 220t73 202.5t123 167.5t180 113t236 42q148 0 303 -31l-266 -1394q83 -6 165 -29l-16 -88h-496l17 88q87 23 180 29l70 370q31 163 129 472l-4 2q-209 -471 -494 -471q-223 0 -223 307zM231 313q0 -202 117 -202q60 0 124.5 47t119.5 123t103.5 168 t81.5 184t48 170l17 88q-86 20 -158 20q-79 0 -147 -25.5t-116.5 -70t-85.5 -102.5t-59.5 -126t-33.5 -136.5t-11 -137.5z" />
<glyph unicode="r" horiz-adv-x="790" d="M141 0l172 889v6q-76 13 -172 20l17 89q120 16 244 16q41 0 83 -2q-27 -139 -112 -404h4q41 89 73 149.5t76.5 123t88.5 95.5q45 34 103 50q31 9 64 8q29 0 60 -6l-29 -151q-25 9 -50 9q-39 0 -79 -22q-66 -36 -120 -108t-101.5 -166.5t-79.5 -188.5t-47 -174l-43 -233 h-152z" />
<glyph unicode="s" horiz-adv-x="806" d="M37 -2l55 287h88q0 -102 -8 -170q56 -9 86 -9q112 0 179 46t67 133q0 35 -19.5 65.5t-51 54.5t-69.5 47.5t-76.5 50.5t-70 57.5t-51 74.5t-19.5 96q0 132 104.5 218.5t291.5 86.5q99 0 194 -20l-53 -273h-88q0 87 6 170q-44 7 -82 7q-103 0 -161 -46t-58 -120 q0 -41 26.5 -77.5t66.5 -62.5t86 -57.5t86 -62.5t66.5 -78.5t26.5 -104.5q0 -136 -118.5 -232.5t-317.5 -96.5q-95 0 -186 16z" />
<glyph unicode="t" horiz-adv-x="747" d="M82 897l24 121h218l65 338l158 37l-72 -375h293l-27 -121h-288l-107 -561q-14 -70 -14 -115q0 -37 10 -57q20 -44 102 -45q80 0 146 16l-8 -131q-95 -20 -183 -20q-151 0 -197 76q-27 44 -28 121q0 55 14 126l113 590h-219z" />
<glyph unicode="u" horiz-adv-x="1226" d="M123 915l16 89q117 16 243 16q42 0 85 -2l-125 -656q-12 -65 -12.5 -112.5t12.5 -77.5q25 -60 100 -61q74 0 155 71t144.5 177.5t111.5 225t67 218.5l18 92q-77 14 -164 20l17 89q116 16 237 16q41 0 82 -2l-172 -895q82 -15 170 -21l-18 -88q-116 -16 -240 -16 q-41 0 -84 2q22 131 121 434l-4 2q-39 -91 -87.5 -169t-109.5 -144.5t-136 -104.5t-155 -38q-136 0 -189 92q-33 56 -33 140q0 52 13 116l107 567q-75 13 -170 20z" />
<glyph unicode="v" horiz-adv-x="1048" d="M66 915l16 89q112 15 228 15q35 0 69 -1l100 -674q14 -99 17 -172h2l460 889l140 -53l-549 -1008h-164l-154 895q-82 14 -165 20z" />
<glyph unicode="w" horiz-adv-x="1503" d="M68 915l16 89q114 15 229 15q35 0 70 -1l76 -860h2l317 620l-12 117q-79 13 -166 20l16 89q98 16 215 16q39 0 80 -2l78 -862h2l430 903l140 -49l-508 -1010h-185l-65 578l-293 -578h-174l-100 895q-82 14 -168 20z" />
<glyph unicode="x" horiz-adv-x="1112" d="M0 29l463 491l-158 383q-99 8 -170 27l17 88h278l150 -387l403 442l113 -82l-455 -485l172 -389q124 -15 176 -29l-18 -88h-285l-162 395l-409 -454z" />
<glyph unicode="y" horiz-adv-x="1067" d="M-168 -510l27 141q56 -20 129 -20q56 0 119 35t118 96q67 71 96 152t29 198q0 344 -108 803q-87 14 -170 20l16 89q114 15 228 15q35 0 69 -1q50 -215 80.5 -442t30.5 -386q0 -56 -19 -141h4q242 418 488 1010l143 -45q-430 -1009 -782 -1358q-186 -180 -359 -180 q-84 0 -139 14z" />
<glyph unicode="z" horiz-adv-x="882" d="M0 0l23 111l647 788q-132 -4 -256 -4h-115q-29 -101 -55 -160h-92l55 283h663l-20 -109l-645 -782q122 4 262 4h127q30 93 59 164h90l-55 -295h-688z" />
<glyph unicode="{" horiz-adv-x="669" d="M78 590l24 123q128 8 182.5 53.5t77.5 167.5l50 266q16 83 42.5 147.5t68.5 117.5t105.5 81.5t145.5 28.5h39l-22 -117q-107 0 -158.5 -54.5t-79.5 -197.5l-49 -262q-28 -139 -88.5 -211t-157.5 -84v-4q88 -12 122 -87t9 -202l-74 -387q-28 -142 2 -197t136 -55l-23 -118 h-35q-156 0 -205.5 96.5t-13.5 279.5l76 392q23 118 -16 166.5t-158 56.5z" />
<glyph unicode="|" horiz-adv-x="573" d="M25 -512l399 2048h121l-400 -2048h-120z" />
<glyph unicode="}" horiz-adv-x="671" d="M-94 -401l24 120q107 0 157.5 54t78.5 196l72 387q52 273 245 297v4q-88 12 -122 86t-9 201l51 264q29 141 -1 196.5t-136 55.5l23 117h28q81 0 135.5 -28.5t77.5 -79t27 -119.5t-14 -150l-54 -266q-24 -118 16 -165.5t159 -55.5l-25 -123q-127 -8 -182 -54.5t-78 -168.5 l-72 -390q-38 -196 -121.5 -287t-240.5 -91h-39z" />
<glyph unicode="~" horiz-adv-x="1187" d="M117 582q124 108 268 108q69 0 131.5 -21t101.5 -45.5t95 -45.5t114 -21q47 0 103 27.5t104 68.5l45 -106q-130 -123 -276 -123q-69 0 -133.5 21t-105.5 46.5t-96 46.5t-106 21q-98 0 -202 -86z" />
<glyph unicode="&#xa1;" horiz-adv-x="602" d="M33 -420l239 1112h123l-184 -1112h-178zM270 928q0 46 32.5 78t78.5 32q45 0 74.5 -31t29.5 -73q0 -47 -32 -80t-78 -33q-45 0 -75 31.5t-30 75.5z" />
<glyph unicode="&#xa2;" horiz-adv-x="933" d="M90 432q0 134 39.5 247t108 190.5t158.5 126t194 61.5l35 186h123l-35 -180q105 -3 221 -41l-53 -270h-88q-3 80 6 166q-78 20 -146 20q-176 0 -290.5 -137.5t-114.5 -341.5q0 -244 260 -244q146 0 274 59l-8 -135q-117 -50 -250 -59l-41 -219h-121l44 223 q-152 14 -234 103t-82 245z" />
<glyph unicode="&#xa3;" horiz-adv-x="1032" d="M27 0l18 115q77 56 127 97t88.5 85.5t59 78.5t35 87.5t21 100.5t13.5 130h-229l22 119h215q2 20 6 67.5t6.5 78.5t7.5 72t11 71q34 177 136 261.5t282 84.5q95 0 184 -21l-55 -282h-90q0 119 4 172q-34 6 -66 6q-38 0 -70 -8t-55.5 -20t-43 -34.5t-33 -43.5t-24 -55.5 t-16.5 -61.5t-11.5 -71t-8.5 -74.5t-7 -80.5q-3 -40 -5 -61h301l-23 -119h-288q-8 -85 -17.5 -142t-28.5 -117.5t-49.5 -108t-78.5 -97.5t-117 -102q86 8 158 8h327q21 77 62 180h100l-61 -315h-807z" />
<glyph unicode="&#xa5;" horiz-adv-x="1300" d="M172 238l18 102h342l29 152h-342l19 102h303l-201 676q-64 7 -127 24l16 88h453l-16 -88q-64 -19 -166 -26l102 -387q58 -216 62 -236h2q27 45 84.5 133t78.5 121l240 369q-87 7 -145 26l16 88h449l-17 -88q-66 -17 -135 -24l-463 -676h299l-20 -102h-340l-29 -152h342 l-18 -102h-342l-25 -127q87 -6 168 -29l-14 -82h-502l16 82q87 23 180 29l23 127h-340z" />
<glyph unicode="&#xa7;" horiz-adv-x="976" d="M98 -328l31 142q60 -29 133 -29q108 0 170 63t62 156q0 55 -30 120.5t-73 129t-86 129.5t-73 143.5t-31 149.5q0 100 47.5 192.5t136.5 155.5q-25 61 -25 141q0 66 24 128t70.5 114t124 83.5t175.5 31.5q69 0 137 -11l-27 -133q-66 17 -121 17q-114 0 -168.5 -60.5 t-54.5 -156.5q0 -56 30 -121.5t72 -128.5t84.5 -128.5t72.5 -143.5t30 -152q0 -101 -48 -190.5t-134 -151.5q28 -54 28 -137q0 -73 -28.5 -139.5t-80.5 -118t-130.5 -82.5t-171.5 -31q-90 0 -146 18zM348 719q0 -41 12 -84.5t44 -103.5t57.5 -102.5t82.5 -131.5l21 -33 q39 30 68 86.5t29 116.5q1 49 -20 106.5t-48 102t-72.5 118t-72.5 124.5q-45 -30 -73 -85.5t-28 -113.5z" />
<glyph unicode="&#xa8;" horiz-adv-x="1095" d="M317 1341q0 42 30.5 71.5t72.5 29.5q39 0 66.5 -27.5t27.5 -64.5q0 -44 -30 -73.5t-70 -29.5q-41 0 -69 27.5t-28 66.5zM702 1341q0 42 30.5 71.5t72.5 29.5q39 0 66.5 -27.5t27.5 -64.5q0 -44 -29.5 -73.5t-70.5 -29.5t-69 27.5t-28 66.5z" />
<glyph unicode="&#xa9;" horiz-adv-x="1511" d="M104 684q5 186 100 343t254.5 248t346.5 91t341 -90t241 -245.5t83 -342.5q-4 -139 -61 -265t-150 -217.5t-220.5 -145.5t-266.5 -54q-191 0 -346 90.5t-240.5 246t-81.5 341.5zM231 688q-4 -152 67.5 -281.5t198.5 -205.5t279 -76t282 75t207 203.5t81 280.5 q3 151 -68.5 280.5t-198 206t-278.5 76.5t-282 -74.5t-207.5 -203t-80.5 -281.5zM465 674q0 61 11.5 114.5t38.5 103t68 84.5t103 56t139 21q66 0 156 -23v-221h-76q-13 55 -22 129q-46 8 -76 8q-207 0 -207 -260q0 -125 50.5 -188.5t160.5 -63.5q88 0 170 31l8 -111 q-94 -30 -196 -30q-89 0 -154 26.5t-102 75t-54.5 110t-17.5 138.5z" />
<glyph unicode="&#xaa;" horiz-adv-x="811" d="M174 909q0 96 27.5 182t79.5 154t135 108t186 40q114 0 219 -17q-87 -452 -102 -549q69 -11 115 -14l-17 -84q-139 -19 -246 -10q11 65 62 213h-2q-52 -108 -126 -166.5t-163 -58.5q-168 0 -168 202zM305 938q0 -64 19 -90.5t57 -26.5q92 0 174 119.5t113 278.5l10 57 q-47 12 -103 12q-82 0 -145.5 -52.5t-94 -131.5t-30.5 -166z" />
<glyph unicode="&#xab;" horiz-adv-x="993" d="M123 502l278 360l109 -69l-236 -293l168 -283l-120 -70zM498 502l295 358l106 -72l-250 -288l185 -279l-121 -71z" />
<glyph unicode="&#xac;" horiz-adv-x="1073" d="M86 475v127h877v-455h-134v328h-743z" />
<glyph unicode="&#xad;" horiz-adv-x="671" d="M96 449v122h473v-122h-473z" />
<glyph unicode="&#xae;" horiz-adv-x="1132" d="M227 1081q1 122 62.5 224t164.5 160.5t222 58.5q185 0 309 -125t121 -307q-1 -120 -62.5 -222t-164.5 -161.5t-220 -59.5q-187 0 -311 125t-121 307zM336 1087q-2 -136 93 -236.5t230 -100.5q138 0 237.5 98t100.5 237q2 137 -92.5 237.5t-230.5 100.5 q-138 0 -237.5 -98.5t-100.5 -237.5zM479 854v49q29 15 58 21v331q-36 8 -58 19v51h199q164 0 164 -123q0 -51 -28 -86t-75 -47q23 -33 37 -61l39 -84q8 -2 53 -21v-49h-125l-90 197h-30v-127q28 -8 51 -21v-49h-195zM623 1118l32 -2q49 0 72 22.5t23 53.5q0 32 -17.5 46.5 t-58.5 14.5h-51v-135z" />
<glyph unicode="&#xaf;" horiz-adv-x="804" d="M342 1276v117h449v-117h-449z" />
<glyph unicode="&#xb0;" horiz-adv-x="745" d="M268 1237q0 123 82.5 196.5t190.5 73.5q122 0 183.5 -68t61.5 -167q0 -121 -84.5 -193.5t-193.5 -72.5q-113 0 -176.5 63.5t-63.5 167.5zM393 1245q0 -62 33.5 -98.5t91.5 -36.5q61 0 102.5 42.5t41.5 111.5q0 54 -31 96.5t-101 42.5q-57 0 -97 -43.5t-40 -114.5z" />
<glyph unicode="&#xb1;" horiz-adv-x="1255" d="M4 -113l25 129h942l-27 -129h-940zM127 559l23 129h409l80 418h143l-80 -418h408l-27 -129h-407l-80 -420h-143l79 420h-405z" />
<glyph unicode="&#xb4;" horiz-adv-x="776" d="M291 1272l284 227l78 -106l-299 -207z" />
<glyph unicode="&#xb6;" horiz-adv-x="1142" d="M219 858q0 75 21.5 149.5t66 142t106 119.5t147.5 82.5t185 30.5l-163 -862q-180 -1 -271.5 91t-91.5 247zM446 -197l21 117h149l279 1462h285l-19 -116h-147l-279 -1463h-289z" />
<glyph unicode="&#xb7;" horiz-adv-x="442" d="M123 588q1 50 37 84.5t84 34.5q49 0 79.5 -33t28.5 -80q-3 -51 -39 -86t-84 -35q-49 0 -79 34t-27 81z" />
<glyph unicode="&#xb8;" horiz-adv-x="802" d="M166 -418q203 138 147 314h150q62 -221 -240 -385z" />
<glyph unicode="&#xba;" horiz-adv-x="841" d="M195 942q0 121 47 224.5t137.5 168t206.5 64.5q135 0 199.5 -62.5t64.5 -177.5q0 -109 -35 -197.5t-93.5 -143t-129 -83t-146.5 -28.5q-125 0 -188 57t-63 178zM342 967q0 -142 123 -142q105 0 171 91t66 223q0 143 -131 143q-60 0 -107 -31.5t-72 -80.5t-37.5 -101 t-12.5 -102z" />
<glyph unicode="&#xbb;" horiz-adv-x="993" d="M119 219l250 289l-185 280l121 70l215 -352l-295 -359zM508 217l235 291l-168 283l123 71l197 -356l-279 -361z" />
<glyph unicode="&#xbf;" horiz-adv-x="841" d="M37 -63q0 68 26.5 126t67.5 101t90.5 84.5t96.5 84.5t84 92t54.5 117.5t6.5 149.5h149q12 -89 -4 -164t-51 -128.5t-80.5 -99.5t-93 -85.5t-87.5 -77.5t-65.5 -85t-25.5 -99q0 -92 94.5 -158.5t245.5 -85.5l-45 -139q-216 23 -339.5 126t-123.5 241zM459 928q0 46 31 78 t77 32q45 0 76 -31t31 -73q0 -47 -32.5 -80t-78.5 -33q-45 0 -74.5 31.5t-29.5 75.5z" />
<glyph unicode="&#xc0;" horiz-adv-x="1392" d="M-82 0l16 88q67 18 134 25l704 1269h176l221 -1269q58 -6 125 -25l-18 -88h-457l17 88q91 21 170 27l-39 243h-598l-136 -243q73 -6 156 -27l-16 -88h-455zM434 483h514l-94 539q-21 130 -25 199h-4q-49 -110 -96 -197zM594 1704l94 106l246 -227l-74 -86z" />
<glyph unicode="&#xc1;" horiz-adv-x="1392" d="M-82 0l16 88q67 18 134 25l704 1269h176l221 -1269q58 -6 125 -25l-18 -88h-457l17 88q91 21 170 27l-39 243h-598l-136 -243q73 -6 156 -27l-16 -88h-455zM434 483h514l-94 539q-21 130 -25 199h-4q-49 -110 -96 -197zM748 1583l284 227l78 -106l-299 -207z" />
<glyph unicode="&#xc2;" horiz-adv-x="1392" d="M-82 0l16 88q67 18 134 25l704 1269h176l221 -1269q58 -6 125 -25l-18 -88h-457l17 88q91 21 170 27l-39 243h-598l-136 -243q73 -6 156 -27l-16 -88h-455zM434 483h514l-94 539q-21 130 -25 199h-4q-49 -110 -96 -197zM598 1593l287 195l260 -189l-74 -90l-199 142 l-215 -142z" />
<glyph unicode="&#xc3;" horiz-adv-x="1392" d="M-82 0l16 88q67 18 134 25l704 1269h176l221 -1269q58 -6 125 -25l-18 -88h-457l17 88q91 21 170 27l-39 243h-598l-136 -243q73 -6 156 -27l-16 -88h-455zM434 483h514l-94 539q-21 130 -25 199h-4q-49 -110 -96 -197zM541 1679q37 35 87.5 56.5t102.5 21.5 q55 0 106 -24t98 -48t93 -24q76 0 139 57l37 -100q-91 -76 -194 -76q-48 0 -90.5 15t-69 33t-63.5 33t-76 15q-76 0 -136 -57z" />
<glyph unicode="&#xc4;" horiz-adv-x="1392" d="M-82 0l16 88q67 18 134 25l704 1269h176l221 -1269q58 -6 125 -25l-18 -88h-457l17 88q91 21 170 27l-39 243h-598l-136 -243q73 -6 156 -27l-16 -88h-455zM434 483h514l-94 539q-21 130 -25 199h-4q-49 -110 -96 -197zM602 1618q0 42 30.5 71t72.5 29q39 0 66.5 -27.5 t27.5 -64.5q0 -43 -30 -72.5t-71 -29.5t-68.5 27.5t-27.5 66.5zM987 1618q0 42 30.5 71t72.5 29q39 0 66.5 -27.5t27.5 -64.5q0 -43 -30 -72.5t-71 -29.5t-68.5 27.5t-27.5 66.5z" />
<glyph unicode="&#xc5;" horiz-adv-x="1392" d="M-82 0l16 88q67 18 134 25l704 1269h176l221 -1269q58 -6 125 -25l-18 -88h-457l17 88q91 21 170 27l-39 243h-598l-136 -243q73 -6 156 -27l-16 -88h-455zM434 483h514l-94 539q-21 130 -25 199h-4q-49 -110 -96 -197zM653 1573q4 91 73 154t159 63q92 0 151 -61.5 t54 -151.5q-6 -89 -74.5 -153t-157.5 -64q-92 0 -150.5 60.5t-54.5 152.5zM758 1575q-3 -50 27 -84.5t79 -34.5q47 0 82.5 35t38.5 84q2 51 -27.5 85t-78.5 34t-84 -34.5t-37 -84.5z" />
<glyph unicode="&#xc6;" horiz-adv-x="1650" d="M-164 0l17 88q63 18 131 25l845 1155q-84 6 -167 26l16 88h995l-57 -307h-103q-3 116 5 185h-390l-94 -488h316q23 75 61 150h88l-80 -418h-90q-9 66 -2 149h-315l-101 -526h408q45 133 67 188h103l-59 -315h-861l17 88q73 20 170 27l47 243h-469l-180 -243 q70 -5 155 -27l-18 -88h-455zM416 483h411l146 770h-6q-87 -134 -193 -278z" />
<glyph unicode="&#xc7;" horiz-adv-x="1165" d="M117 455q0 149 31.5 286.5t97 256.5t157 207.5t220 139t278.5 50.5q165 0 316 -41l-60 -314h-102q0 32 6 191q-86 29 -199 29q-116 0 -212.5 -45t-162.5 -121t-112 -177.5t-67 -211.5t-21 -226q0 -82 18 -144.5t59.5 -111.5t114.5 -74.5t176 -25.5q179 0 336 72l-4 -140 q-181 -71 -379 -71q-491 0 -491 471zM358 -418q203 138 148 314h149q62 -221 -239 -385z" />
<glyph unicode="&#xc8;" horiz-adv-x="1073" d="M-31 0l19 88q94 21 180 27l217 1153q-88 6 -170 26l18 88h857l-58 -307h-104q0 111 6 185h-397l-93 -488h318q29 96 59 150h88l-80 -418h-88q-11 60 -4 149h-315l-100 -526h399q17 55 67 188h103l-60 -315h-862zM502 1704l94 106l246 -227l-74 -86z" />
<glyph unicode="&#xc9;" horiz-adv-x="1073" d="M-31 0l19 88q94 21 180 27l217 1153q-88 6 -170 26l18 88h857l-58 -307h-104q0 111 6 185h-397l-93 -488h318q29 96 59 150h88l-80 -418h-88q-11 60 -4 149h-315l-100 -526h399q17 55 67 188h103l-60 -315h-862zM653 1583l285 227l78 -106l-299 -207z" />
<glyph unicode="&#xca;" horiz-adv-x="1073" d="M-31 0l19 88q94 21 180 27l217 1153q-88 6 -170 26l18 88h857l-58 -307h-104q0 111 6 185h-397l-93 -488h318q29 96 59 150h88l-80 -418h-88q-11 60 -4 149h-315l-100 -526h399q17 55 67 188h103l-60 -315h-862zM457 1593l286 195l261 -189l-74 -90l-199 142l-215 -142z " />
<glyph unicode="&#xcb;" horiz-adv-x="1073" d="M-31 0l19 88q94 21 180 27l217 1153q-88 6 -170 26l18 88h857l-58 -307h-104q0 111 6 185h-397l-93 -488h318q29 96 59 150h88l-80 -418h-88q-11 60 -4 149h-315l-100 -526h399q17 55 67 188h103l-60 -315h-862zM455 1618q0 42 30 71t72 29q39 0 66.5 -27.5t27.5 -64.5 q0 -43 -29.5 -72.5t-70.5 -29.5t-68.5 27.5t-27.5 66.5zM840 1618q0 42 30 71t72 29q39 0 66.5 -27.5t27.5 -64.5q0 -43 -29.5 -72.5t-70.5 -29.5t-68.5 27.5t-27.5 66.5z" />
<glyph unicode="&#xcc;" horiz-adv-x="632" d="M-31 0l17 88q98 21 180 27l219 1153q-86 6 -168 26l16 88h502l-16 -88q-93 -20 -180 -26l-220 -1153q83 -6 170 -27l-16 -88h-504zM256 1702l94 108l246 -227l-74 -86z" />
<glyph unicode="&#xcd;" horiz-adv-x="632" d="M-31 0l17 88q98 21 180 27l219 1153q-86 6 -168 26l16 88h502l-16 -88q-93 -20 -180 -26l-220 -1153q83 -6 170 -27l-16 -88h-504zM385 1583l285 225l78 -104l-299 -207z" />
<glyph unicode="&#xce;" horiz-adv-x="632" d="M-31 0l17 88q98 21 180 27l219 1153q-86 6 -168 26l16 88h502l-16 -88q-93 -20 -180 -26l-220 -1153q83 -6 170 -27l-16 -88h-504zM242 1593l286 195l260 -191l-73 -90l-199 144l-215 -144z" />
<glyph unicode="&#xcf;" horiz-adv-x="632" d="M-31 0l17 88q98 21 180 27l219 1153q-86 6 -168 26l16 88h502l-16 -88q-93 -20 -180 -26l-220 -1153q83 -6 170 -27l-16 -88h-504zM233 1618q0 42 30.5 71t72.5 29q40 0 67 -27t27 -65q0 -44 -29 -73t-71 -29q-41 0 -69 27.5t-28 66.5zM618 1618q0 42 30.5 71t72.5 29 q39 0 66.5 -27.5t27.5 -64.5q0 -44 -29 -73t-71 -29q-41 0 -69 27.5t-28 66.5z" />
<glyph unicode="&#xd0;" horiz-adv-x="1413" d="M-45 0l16 88q95 21 179 27l104 538h-209l10 119h221l93 496q-86 6 -168 26l16 88h172q39 0 177 3.5t208 3.5q160 0 277 -37t186 -106t101 -158t32 -201q0 -139 -33.5 -267t-105.5 -242.5t-176 -199.5t-255.5 -134.5t-332.5 -49.5q-80 0 -189 3t-149 3h-174zM309 137 q96 -14 180 -14q149 0 271.5 43.5t203.5 116t137 169.5t80.5 201.5t24.5 214.5q0 89 -22.5 157.5t-73 123.5t-141 84t-217.5 29q-38 0 -230 -7l-92 -483h291l-10 -119h-305z" />
<glyph unicode="&#xd1;" horiz-adv-x="1490" d="M-29 0l17 88q98 21 180 27l217 1153q-86 6 -168 26l16 88h363l387 -907q72 -178 109 -287q45 283 92 529l98 551q-94 7 -158 26l17 88h456l-16 -88q-76 -20 -147 -26l-242 -1268h-188l-388 909q-62 144 -106 291q-36 -252 -96 -563l-95 -522q91 -6 160 -27l-16 -88h-492z M629 1679q37 35 87.5 56.5t102.5 21.5q55 0 106 -24t98 -48t93 -24q76 0 139 57l37 -100q-91 -76 -194 -76q-48 0 -90.5 15t-69 33t-63.5 33t-76 15q-75 0 -135 -57z" />
<glyph unicode="&#xd2;" horiz-adv-x="1415" d="M106 483q0 186 60.5 355t164 292.5t250 197t310.5 73.5q237 0 365 -130.5t128 -369.5q0 -155 -40 -297t-112.5 -254t-170 -195.5t-217.5 -128t-250 -44.5q-242 0 -365 130t-123 371zM274 504q0 -180 88.5 -282.5t251.5 -102.5q162 0 300.5 100t220.5 276.5t82 387.5 q0 181 -88 282t-263 101q-167 0 -303.5 -104t-212.5 -278t-76 -380zM705 1704l94 106l245 -227l-73 -86z" />
<glyph unicode="&#xd3;" horiz-adv-x="1415" d="M106 483q0 186 60.5 355t164 292.5t250 197t310.5 73.5q237 0 365 -130.5t128 -369.5q0 -155 -40 -297t-112.5 -254t-170 -195.5t-217.5 -128t-250 -44.5q-242 0 -365 130t-123 371zM274 504q0 -180 88.5 -282.5t251.5 -102.5q162 0 300.5 100t220.5 276.5t82 387.5 q0 181 -88 282t-263 101q-167 0 -303.5 -104t-212.5 -278t-76 -380zM836 1583l284 227l78 -106l-299 -207z" />
<glyph unicode="&#xd4;" horiz-adv-x="1415" d="M106 483q0 186 60.5 355t164 292.5t250 197t310.5 73.5q237 0 365 -130.5t128 -369.5q0 -155 -40 -297t-112.5 -254t-170 -195.5t-217.5 -128t-250 -44.5q-242 0 -365 130t-123 371zM274 504q0 -180 88.5 -282.5t251.5 -102.5q162 0 300.5 100t220.5 276.5t82 387.5 q0 181 -88 282t-263 101q-167 0 -303.5 -104t-212.5 -278t-76 -380zM696 1593l287 195l260 -189l-74 -90l-198 142l-215 -142z" />
<glyph unicode="&#xd5;" horiz-adv-x="1415" d="M106 483q0 186 60.5 355t164 292.5t250 197t310.5 73.5q237 0 365 -130.5t128 -369.5q0 -155 -40 -297t-112.5 -254t-170 -195.5t-217.5 -128t-250 -44.5q-242 0 -365 130t-123 371zM274 504q0 -180 88.5 -282.5t251.5 -102.5q162 0 300.5 100t220.5 276.5t82 387.5 q0 181 -88 282t-263 101q-167 0 -303.5 -104t-212.5 -278t-76 -380zM618 1681q36 35 87.5 56.5t103.5 21.5q55 0 106 -24t98 -48t93 -24q76 0 139 57l37 -100q-91 -76 -195 -76q-48 0 -90.5 15t-69 33t-63.5 33t-76 15q-75 0 -135 -57z" />
<glyph unicode="&#xd6;" horiz-adv-x="1415" d="M106 483q0 186 60.5 355t164 292.5t250 197t310.5 73.5q237 0 365 -130.5t128 -369.5q0 -155 -40 -297t-112.5 -254t-170 -195.5t-217.5 -128t-250 -44.5q-242 0 -365 130t-123 371zM274 504q0 -180 88.5 -282.5t251.5 -102.5q162 0 300.5 100t220.5 276.5t82 387.5 q0 181 -88 282t-263 101q-167 0 -303.5 -104t-212.5 -278t-76 -380zM662 1618q0 42 30 71t72 29q39 0 66.5 -27.5t27.5 -64.5q0 -43 -29.5 -72.5t-70.5 -29.5t-68.5 27.5t-27.5 66.5zM1047 1618q0 42 30 71t72 29q39 0 66.5 -27.5t27.5 -64.5q0 -43 -29.5 -72.5t-70.5 -29.5 t-68.5 27.5t-27.5 66.5z" />
<glyph unicode="&#xd8;" horiz-adv-x="1415" d="M106 483q0 149 38 288t109.5 252.5t167 198.5t217 132t253.5 47q82 0 156 -19l106 193l111 -49l-103 -187q223 -117 223 -438q0 -155 -40 -297t-112.5 -254t-170 -195.5t-217.5 -128t-250 -44.5q-92 0 -172 22l-113 -207l-110 49l110 203q-203 119 -203 434zM272 504 q0 -216 119 -305l584 1054q-60 13 -129 13q-162 -6 -294 -110.5t-206 -277t-74 -374.5zM496 137q57 -19 141 -16q117 5 223.5 66t185.5 161t126 240.5t47 296.5q0 221 -134 315z" />
<glyph unicode="&#xd9;" horiz-adv-x="1441" d="M184.5 316q1.5 73 14.5 155l151 797q-70 6 -139 26l16 88h463l-18 -88q-68 -19 -168 -26l-154 -799q-35 -181 30 -269.5t257 -88.5q193 0 302.5 94.5t152.5 318.5l141 744q-99 7 -162 26l16 88h461l-18 -88q-76 -20 -146 -26l-145 -762q-51 -266 -206.5 -395t-416.5 -129 q-117 0 -202 24.5t-132.5 69t-73 106t-24 134.5zM682 1704l94 106l246 -227l-74 -86z" />
<glyph unicode="&#xda;" horiz-adv-x="1441" d="M184.5 316q1.5 73 14.5 155l151 797q-70 6 -139 26l16 88h463l-18 -88q-68 -19 -168 -26l-154 -799q-35 -181 30 -269.5t257 -88.5q193 0 302.5 94.5t152.5 318.5l141 744q-99 7 -162 26l16 88h461l-18 -88q-76 -20 -146 -26l-145 -762q-51 -266 -206.5 -395t-416.5 -129 q-117 0 -202 24.5t-132.5 69t-73 106t-24 134.5zM795 1583l284 227l78 -106l-299 -207z" />
<glyph unicode="&#xdb;" horiz-adv-x="1441" d="M184.5 316q1.5 73 14.5 155l151 797q-70 6 -139 26l16 88h463l-18 -88q-68 -19 -168 -26l-154 -799q-35 -181 30 -269.5t257 -88.5q193 0 302.5 94.5t152.5 318.5l141 744q-99 7 -162 26l16 88h461l-18 -88q-76 -20 -146 -26l-145 -762q-51 -266 -206.5 -395t-416.5 -129 q-117 0 -202 24.5t-132.5 69t-73 106t-24 134.5zM647 1593l287 195l260 -189l-74 -90l-198 142l-215 -142z" />
<glyph unicode="&#xdc;" horiz-adv-x="1441" d="M184.5 316q1.5 73 14.5 155l151 797q-70 6 -139 26l16 88h463l-18 -88q-68 -19 -168 -26l-154 -799q-35 -181 30 -269.5t257 -88.5q193 0 302.5 94.5t152.5 318.5l141 744q-99 7 -162 26l16 88h461l-18 -88q-76 -20 -146 -26l-145 -762q-51 -266 -206.5 -395t-416.5 -129 q-117 0 -202 24.5t-132.5 69t-73 106t-24 134.5zM629 1618q0 42 30 71t72 29q39 0 66.5 -27.5t27.5 -64.5q0 -43 -29.5 -72.5t-70.5 -29.5t-68.5 27.5t-27.5 66.5zM1014 1618q0 42 30 71t72 29q39 0 66.5 -27.5t27.5 -64.5q0 -43 -29.5 -72.5t-70.5 -29.5t-68.5 27.5 t-27.5 66.5z" />
<glyph unicode="&#xdd;" horiz-adv-x="1181" d="M160 1294l16 88h457l-19 -88q-62 -19 -165 -26l104 -398q46 -179 57 -233h2q36 57 179 278l225 353q-87 7 -144 26l17 88h450l-16 -88q-67 -17 -133 -24l-526 -774l-72 -381q80 -5 168 -27l-17 -88h-501l16 88q94 21 180 27l72 381l-221 774q-65 7 -129 24zM649 1583 l283 225l80 -104l-301 -207z" />
<glyph unicode="&#xde;" horiz-adv-x="1077" d="M-70 0l17 88q100 22 180 27l219 1153q-88 6 -170 26l17 88h503l-16 -88q-93 -20 -180 -26l-25 -131q94 6 209 6q210 0 310 -89t100 -235q0 -100 -42.5 -192.5t-120 -165.5t-198.5 -116.5t-266 -43.5q-62 0 -148 12l-38 -198q80 -5 168 -27l-17 -88h-502zM342 440 q90 -12 137 -12q106 0 193 31.5t141 84t83.5 118t29.5 137.5q0 105 -69.5 163t-215.5 58q-116 0 -190 -14z" />
<glyph unicode="&#xdf;" horiz-adv-x="1187" d="M-338 -510l35 133q64 -20 139 -20q119 0 180.5 70.5t98.5 263.5l182 958q-76 13 -176 20l16 89q95 11 185 14q42 247 174 370t338 123q141 0 221 -64t80 -165q0 -63 -20 -113.5t-51.5 -84t-70.5 -61.5t-77.5 -52t-70 -49.5t-51.5 -61.5t-20 -80q0 -43 20.5 -82t51 -68 t66 -63.5t66 -67.5t51 -81.5t20.5 -104.5q0 -140 -115 -235.5t-299 -95.5q-102 0 -182 14l55 291h88q0 -101 -8 -172q52 -9 74 -9q108 0 169.5 48.5t61.5 132.5q0 50 -28.5 95t-69.5 81t-81.5 74.5t-69 93.5t-28.5 121q0 59 20 107.5t51.5 81.5t70 61.5t77.5 54t70.5 53 t51.5 66t20 84.5q0 59 -43.5 95t-120.5 36q-129 0 -216.5 -86.5t-121.5 -266.5l-209 -1099q-25 -132 -65.5 -222.5t-98.5 -143.5t-129 -76t-166 -23q-73 0 -145 16z" />
<glyph unicode="&#xe0;" d="M76 287q0 114 23 220t73 202.5t123 167.5t180 113t236 42q145 0 303 -28l-168 -881q84 -15 168 -21l-17 -88q-155 -21 -327 -14q22 115 127 449l-4 2q-209 -471 -494 -471q-223 0 -223 307zM231 313q0 -202 115 -202q75 0 156 71.5t145 178.5t111.5 225t66.5 217l17 88 q-86 20 -158 20q-79 0 -147 -25.5t-116.5 -70t-85.5 -102.5t-59.5 -126t-33.5 -136.5t-11 -137.5zM520 1393l94 106l246 -227l-74 -86z" />
<glyph unicode="&#xe1;" d="M76 287q0 114 23 220t73 202.5t123 167.5t180 113t236 42q145 0 303 -28l-168 -881q84 -15 168 -21l-17 -88q-155 -21 -327 -14q22 115 127 449l-4 2q-209 -471 -494 -471q-223 0 -223 307zM231 313q0 -202 115 -202q75 0 156 71.5t145 178.5t111.5 225t66.5 217l17 88 q-86 20 -158 20q-79 0 -147 -25.5t-116.5 -70t-85.5 -102.5t-59.5 -126t-33.5 -136.5t-11 -137.5zM666 1272l284 227l78 -106l-299 -207z" />
<glyph unicode="&#xe2;" d="M76 287q0 114 23 220t73 202.5t123 167.5t180 113t236 42q145 0 303 -28l-168 -881q84 -15 168 -21l-17 -88q-155 -21 -327 -14q22 115 127 449l-4 2q-209 -471 -494 -471q-223 0 -223 307zM231 313q0 -202 115 -202q75 0 156 71.5t145 178.5t111.5 225t66.5 217l17 88 q-86 20 -158 20q-79 0 -147 -25.5t-116.5 -70t-85.5 -102.5t-59.5 -126t-33.5 -136.5t-11 -137.5zM475 1282l287 195l260 -189l-74 -90l-198 141l-215 -141z" />
<glyph unicode="&#xe3;" d="M76 287q0 114 23 220t73 202.5t123 167.5t180 113t236 42q145 0 303 -28l-168 -881q84 -15 168 -21l-17 -88q-155 -21 -327 -14q22 115 127 449l-4 2q-209 -471 -494 -471q-223 0 -223 307zM231 313q0 -202 115 -202q75 0 156 71.5t145 178.5t111.5 225t66.5 217l17 88 q-86 20 -158 20q-79 0 -147 -25.5t-116.5 -70t-85.5 -102.5t-59.5 -126t-33.5 -136.5t-11 -137.5zM424 1368q37 35 87.5 56.5t102.5 21.5q55 0 106 -24t98 -48t93 -24q77 0 140 57l36 -100q-91 -76 -194 -76q-48 0 -90.5 15t-69 33t-63.5 33t-76 15q-75 0 -135 -57z" />
<glyph unicode="&#xe4;" d="M76 287q0 114 23 220t73 202.5t123 167.5t180 113t236 42q145 0 303 -28l-168 -881q84 -15 168 -21l-17 -88q-155 -21 -327 -14q22 115 127 449l-4 2q-209 -471 -494 -471q-223 0 -223 307zM231 313q0 -202 115 -202q75 0 156 71.5t145 178.5t111.5 225t66.5 217l17 88 q-86 20 -158 20q-79 0 -147 -25.5t-116.5 -70t-85.5 -102.5t-59.5 -126t-33.5 -136.5t-11 -137.5zM440 1341q0 42 30.5 71.5t72.5 29.5q39 0 66.5 -27.5t27.5 -64.5q0 -44 -29.5 -73.5t-70.5 -29.5t-69 27.5t-28 66.5zM825 1341q0 42 30.5 71.5t72.5 29.5q39 0 66.5 -27.5 t27.5 -64.5q0 -44 -30 -73.5t-70 -29.5q-41 0 -69 27.5t-28 66.5z" />
<glyph unicode="&#xe5;" d="M76 287q0 114 23 220t73 202.5t123 167.5t180 113t236 42q145 0 303 -28l-168 -881q84 -15 168 -21l-17 -88q-155 -21 -327 -14q22 115 127 449l-4 2q-209 -471 -494 -471q-223 0 -223 307zM231 313q0 -202 115 -202q75 0 156 71.5t145 178.5t111.5 225t66.5 217l17 88 q-86 20 -158 20q-79 0 -147 -25.5t-116.5 -70t-85.5 -102.5t-59.5 -126t-33.5 -136.5t-11 -137.5zM569 1352q4 91 73 154t159 63q92 0 151 -61.5t54 -151.5q-6 -89 -74.5 -153t-157.5 -64q-92 0 -150.5 60.5t-54.5 152.5zM674 1354q-3 -50 27 -84.5t79 -34.5q47 0 82.5 35 t38.5 84q2 51 -27.5 85t-78.5 34t-84 -34.5t-37 -84.5z" />
<glyph unicode="&#xe6;" horiz-adv-x="1568" d="M45 186q0 85 35.5 150t94 106.5t148 70.5t183 43t213.5 22l16 73q28 136 -10.5 199t-161.5 63q-97 0 -207 -26q-17 -66 -59 -178h-92l51 272q160 55 338 55q70 0 121 -13t81.5 -38.5t47.5 -53t28 -65.5q59 71 154.5 120.5t206.5 49.5q144 0 215.5 -63.5t71.5 -161.5 q0 -58 -18 -104t-64 -88.5t-121 -72.5t-192.5 -51t-274.5 -30q-10 -58 -10 -137q0 -128 50 -173.5t181 -45.5q150 0 285 61v-127q-144 -61 -338 -61q-80 0 -138.5 17.5t-94.5 51t-55.5 74.5t-29.5 96q-54 -97 -165.5 -168t-241.5 -71q-122 0 -185 55t-63 149zM203 225 q0 -54 36 -86.5t93 -32.5q132 0 233.5 104t130.5 251q-118 -7 -200 -20t-152.5 -39t-105.5 -70t-35 -107zM874 584q96 7 163.5 15t133.5 23t105.5 36.5t63.5 55.5t24 79q0 60 -41 92.5t-109 32.5q-123 0 -211 -93t-129 -241z" />
<glyph unicode="&#xe7;" horiz-adv-x="866" d="M76 317q0 197 69.5 359t202.5 259t305 97q104 0 236 -35l-55 -286h-93q0 92 9 178q-70 20 -115 20q-75 0 -140 -33.5t-111 -89t-79 -127.5t-49 -150.5t-16 -156.5q0 -49 8.5 -86.5t31.5 -73t70 -54.5t117 -19q139 0 256 57l-8 -135q-135 -53 -287 -53q-352 0 -352 329z M164 -418q203 138 147 314h150q62 -221 -240 -385z" />
<glyph unicode="&#xe8;" horiz-adv-x="970" d="M82 307q0 144 38 275.5t107.5 232.5t175 161t232.5 60q143 0 215 -63.5t72 -161.5q0 -158 -167.5 -247.5t-502.5 -102.5q-12 -66 -12 -133q0 -128 50.5 -173.5t182.5 -45.5q150 0 285 61v-127q-144 -61 -340 -61q-171 0 -253.5 76.5t-82.5 248.5zM274 582 q255 10 372.5 62.5t117.5 148.5q0 60 -40.5 92.5t-109.5 32.5q-123 0 -212 -94t-128 -242zM453 1393l94 106l246 -227l-74 -86z" />
<glyph unicode="&#xe9;" horiz-adv-x="970" d="M82 307q0 144 38 275.5t107.5 232.5t175 161t232.5 60q143 0 215 -63.5t72 -161.5q0 -158 -167.5 -247.5t-502.5 -102.5q-12 -66 -12 -133q0 -128 50.5 -173.5t182.5 -45.5q150 0 285 61v-127q-144 -61 -340 -61q-171 0 -253.5 76.5t-82.5 248.5zM274 582 q255 10 372.5 62.5t117.5 148.5q0 60 -40.5 92.5t-109.5 32.5q-123 0 -212 -94t-128 -242zM569 1272l285 227l78 -106l-299 -207z" />
<glyph unicode="&#xea;" horiz-adv-x="970" d="M82 307q0 144 38 275.5t107.5 232.5t175 161t232.5 60q143 0 215 -63.5t72 -161.5q0 -158 -167.5 -247.5t-502.5 -102.5q-12 -66 -12 -133q0 -128 50.5 -173.5t182.5 -45.5q150 0 285 61v-127q-144 -61 -340 -61q-171 0 -253.5 76.5t-82.5 248.5zM274 582 q255 10 372.5 62.5t117.5 148.5q0 60 -40.5 92.5t-109.5 32.5q-123 0 -212 -94t-128 -242zM389 1282l287 195l260 -189l-74 -90l-198 141l-215 -141z" />
<glyph unicode="&#xeb;" horiz-adv-x="970" d="M82 307q0 144 38 275.5t107.5 232.5t175 161t232.5 60q143 0 215 -63.5t72 -161.5q0 -158 -167.5 -247.5t-502.5 -102.5q-12 -66 -12 -133q0 -128 50.5 -173.5t182.5 -45.5q150 0 285 61v-127q-144 -61 -340 -61q-171 0 -253.5 76.5t-82.5 248.5zM274 582 q255 10 372.5 62.5t117.5 148.5q0 60 -40.5 92.5t-109.5 32.5q-123 0 -212 -94t-128 -242zM399 1341q0 42 30.5 71.5t72.5 29.5q39 0 66.5 -27.5t27.5 -64.5q0 -44 -30 -73.5t-70 -29.5q-41 0 -69 27.5t-28 66.5zM784 1341q0 42 30.5 71.5t72.5 29.5q39 0 66.5 -27.5 t27.5 -64.5q0 -44 -29.5 -73.5t-70.5 -29.5t-69 27.5t-28 66.5z" />
<glyph unicode="&#xec;" horiz-adv-x="606" d="M141 0l172 895q-81 14 -170 20l17 89q158 21 327 14l-170 -895q92 -16 168 -21l-16 -88q-155 -21 -328 -14zM201 1393l92 106l246 -227l-74 -86z" />
<glyph unicode="&#xed;" horiz-adv-x="606" d="M141 0l172 895q-81 14 -170 20l17 89q158 21 327 14l-170 -895q92 -16 168 -21l-16 -88q-155 -21 -328 -14zM279 1272l284 227l78 -106l-299 -207z" />
<glyph unicode="&#xee;" horiz-adv-x="606" d="M141 0l172 895q-81 14 -170 20l17 89q158 21 327 14l-170 -895q92 -16 168 -21l-16 -88q-155 -21 -328 -14zM162 1282l287 195l262 -189l-76 -90l-197 141l-215 -141z" />
<glyph unicode="&#xef;" horiz-adv-x="606" d="M141 0l172 895q-81 14 -170 20l17 89q158 21 327 14l-170 -895q92 -16 168 -21l-16 -88q-155 -21 -328 -14zM147 1341q0 42 29.5 71.5t71.5 29.5q40 0 67 -27t27 -65q0 -44 -29 -73.5t-71 -29.5q-40 0 -67.5 27.5t-27.5 66.5zM532 1341q0 42 29.5 71.5t71.5 29.5 q40 0 67 -27t27 -65q0 -44 -29 -73.5t-71 -29.5q-41 0 -68 27.5t-27 66.5z" />
<glyph unicode="&#xf0;" horiz-adv-x="1161" d="M86 350q0 122 39 239t109 211.5t178 152t235 57.5q98 0 162 -28t100 -91q6 120 -17.5 205t-84.5 164l-252 -140l-72 86l228 129q-101 62 -230 62q-34 0 -104 -8l22 118q30 6 84 6q213 0 353 -98l204 117l72 -88l-192 -109q133 -163 133 -426q0 -94 -9.5 -185.5 t-31 -184.5t-54 -174t-81.5 -152t-110.5 -122t-144 -80t-178.5 -29q-185 0 -271.5 99.5t-86.5 268.5zM240 375q0 -115 59.5 -188.5t169.5 -73.5q69 0 128 25t99 64.5t72 92.5t50.5 105.5t30.5 107t16.5 94t4.5 68.5t-5.5 57t-21.5 58t-40.5 52t-65.5 36t-94 14 q-81 0 -150 -35t-114.5 -89.5t-77.5 -124t-46.5 -136.5t-14.5 -127z" />
<glyph unicode="&#xf1;" horiz-adv-x="1249" d="M141 0l172 895q-81 14 -172 20l17 89q159 21 327 14q-37 -184 -118 -434l4 -2q38 90 86.5 168.5t109 144.5t135.5 104.5t154 38.5q137 0 189.5 -91t21.5 -257l-109 -567q81 -18 166 -21l-16 -88q-155 -21 -324 -14l125 655q26 131 1.5 191.5t-101.5 60.5q-74 0 -154 -71 t-143 -176.5t-110.5 -221.5t-65.5 -211l-45 -227h-150zM414 1368q37 35 87.5 56.5t102.5 21.5q55 0 106 -24t98 -48t93 -24q76 0 139 57l37 -100q-91 -76 -194 -76q-48 0 -90.5 15t-69 33t-63.5 33t-76 15q-75 0 -135 -57z" />
<glyph unicode="&#xf2;" horiz-adv-x="1099" d="M80 342q0 197 75.5 356t208.5 248.5t298 89.5q186 0 278 -98.5t92 -267.5q0 -153 -49.5 -284t-131.5 -218.5t-188 -136.5t-219 -49q-183 0 -273.5 91.5t-90.5 268.5zM238 371q0 -129 55.5 -193.5t177.5 -64.5q162 0 280.5 153t118.5 389q0 252 -231 252 q-116 0 -209 -76.5t-142.5 -198.5t-49.5 -261zM485 1393l95 106l245 -227l-73 -86z" />
<glyph unicode="&#xf3;" horiz-adv-x="1099" d="M80 342q0 197 75.5 356t208.5 248.5t298 89.5q186 0 278 -98.5t92 -267.5q0 -153 -49.5 -284t-131.5 -218.5t-188 -136.5t-219 -49q-183 0 -273.5 91.5t-90.5 268.5zM238 371q0 -129 55.5 -193.5t177.5 -64.5q162 0 280.5 153t118.5 389q0 252 -231 252 q-116 0 -209 -76.5t-142.5 -198.5t-49.5 -261zM610 1272l285 227l78 -106l-299 -207z" />
<glyph unicode="&#xf4;" horiz-adv-x="1099" d="M80 342q0 197 75.5 356t208.5 248.5t298 89.5q186 0 278 -98.5t92 -267.5q0 -153 -49.5 -284t-131.5 -218.5t-188 -136.5t-219 -49q-183 0 -273.5 91.5t-90.5 268.5zM238 371q0 -129 55.5 -193.5t177.5 -64.5q162 0 280.5 153t118.5 389q0 252 -231 252 q-116 0 -209 -76.5t-142.5 -198.5t-49.5 -261zM457 1282l286 195l261 -189l-74 -90l-199 141l-215 -141z" />
<glyph unicode="&#xf5;" horiz-adv-x="1099" d="M80 342q0 197 75.5 356t208.5 248.5t298 89.5q186 0 278 -98.5t92 -267.5q0 -153 -49.5 -284t-131.5 -218.5t-188 -136.5t-219 -49q-183 0 -273.5 91.5t-90.5 268.5zM238 371q0 -129 55.5 -193.5t177.5 -64.5q162 0 280.5 153t118.5 389q0 252 -231 252 q-116 0 -209 -76.5t-142.5 -198.5t-49.5 -261zM391 1368q36 35 87.5 56.5t103.5 21.5q55 0 106 -24t98 -48t93 -24q76 0 139 57l37 -100q-91 -76 -195 -76q-48 0 -90.5 15t-69 33t-63.5 33t-76 15q-75 0 -135 -57z" />
<glyph unicode="&#xf6;" horiz-adv-x="1099" d="M80 342q0 197 75.5 356t208.5 248.5t298 89.5q186 0 278 -98.5t92 -267.5q0 -153 -49.5 -284t-131.5 -218.5t-188 -136.5t-219 -49q-183 0 -273.5 91.5t-90.5 268.5zM238 371q0 -129 55.5 -193.5t177.5 -64.5q162 0 280.5 153t118.5 389q0 252 -231 252 q-116 0 -209 -76.5t-142.5 -198.5t-49.5 -261zM436 1341q0 42 30.5 71.5t72.5 29.5q39 0 66.5 -27.5t27.5 -64.5q0 -43 -30 -73t-71 -30t-68.5 27.5t-27.5 66.5zM821 1341q0 42 30.5 71.5t72.5 29.5q39 0 66.5 -27.5t27.5 -64.5q0 -44 -30 -73.5t-70 -29.5q-41 0 -69 27.5 t-28 66.5z" />
<glyph unicode="&#xf7;" horiz-adv-x="1388" d="M203 463l24 129h998l-23 -129h-999zM524 113q0 46 32.5 78t78.5 32q45 0 75.5 -31.5t30.5 -74.5q0 -47 -31 -80t-77 -33q-45 0 -77 32t-32 77zM686 938q0 47 32.5 80t78.5 33q44 0 75 -32t31 -77q0 -47 -32 -80t-78 -33q-44 0 -75.5 32.5t-31.5 76.5z" />
<glyph unicode="&#xf8;" horiz-adv-x="1099" d="M84 342q0 194 73 352.5t206.5 250t302.5 91.5q58 0 104 -12l113 203l98 -49l-107 -189q162 -86 162 -319q0 -153 -49 -284t-131 -218.5t-187.5 -136.5t-219.5 -49q-73 0 -132 18l-118 -209l-99 51l115 201q-131 90 -131 299zM238 375q0 -129 55 -193l409 723q-30 6 -69 6 q-112 -3 -203.5 -78t-141.5 -196.5t-50 -261.5zM385 123q49 -17 102 -14q160 5 278 160t118 386q0 145 -84 205z" />
<glyph unicode="&#xf9;" horiz-adv-x="1226" d="M123 915l16 89q156 21 328 14l-125 -656q-25 -130 0 -190.5t100 -60.5q74 0 155 71t144.5 177.5t111.5 225t67 218.5l18 92q-77 14 -164 20l17 89q154 21 319 14l-172 -895q82 -15 170 -21l-18 -88q-155 -21 -324 -14q22 131 121 434l-4 2q-39 -91 -87.5 -169 t-109.5 -144.5t-136 -104.5t-155 -38q-136 0 -189 91.5t-20 256.5l107 567q-75 13 -170 20zM492 1393l94 106l245 -227l-73 -86z" />
<glyph unicode="&#xfa;" horiz-adv-x="1226" d="M123 915l16 89q156 21 328 14l-125 -656q-25 -130 0 -190.5t100 -60.5q74 0 155 71t144.5 177.5t111.5 225t67 218.5l18 92q-77 14 -164 20l17 89q154 21 319 14l-172 -895q82 -15 170 -21l-18 -88q-155 -21 -324 -14q22 131 121 434l-4 2q-39 -91 -87.5 -169 t-109.5 -144.5t-136 -104.5t-155 -38q-136 0 -189 91.5t-20 256.5l107 567q-75 13 -170 20zM608 1272l285 227l78 -106l-299 -207z" />
<glyph unicode="&#xfb;" horiz-adv-x="1226" d="M123 915l16 89q156 21 328 14l-125 -656q-25 -130 0 -190.5t100 -60.5q74 0 155 71t144.5 177.5t111.5 225t67 218.5l18 92q-77 14 -164 20l17 89q154 21 319 14l-172 -895q82 -15 170 -21l-18 -88q-155 -21 -324 -14q22 131 121 434l-4 2q-39 -91 -87.5 -169 t-109.5 -144.5t-136 -104.5t-155 -38q-136 0 -189 91.5t-20 256.5l107 567q-75 13 -170 20zM451 1282l286 195l260 -189l-73 -90l-199 141l-215 -141z" />
<glyph unicode="&#xfc;" horiz-adv-x="1226" d="M123 915l16 89q156 21 328 14l-125 -656q-25 -130 0 -190.5t100 -60.5q74 0 155 71t144.5 177.5t111.5 225t67 218.5l18 92q-77 14 -164 20l17 89q154 21 319 14l-172 -895q82 -15 170 -21l-18 -88q-155 -21 -324 -14q22 131 121 434l-4 2q-39 -91 -87.5 -169 t-109.5 -144.5t-136 -104.5t-155 -38q-136 0 -189 91.5t-20 256.5l107 567q-75 13 -170 20zM446 1341q0 42 30.5 71.5t72.5 29.5q39 0 66.5 -27.5t27.5 -64.5q0 -44 -29.5 -73.5t-70.5 -29.5t-69 27.5t-28 66.5zM831 1341q0 42 30.5 71.5t72.5 29.5q39 0 66.5 -27.5 t27.5 -64.5q0 -44 -30 -73.5t-70 -29.5q-41 0 -69 27.5t-28 66.5z" />
<glyph unicode="&#xfd;" horiz-adv-x="1021" d="M-213 -510l27 141q56 -20 129 -20q57 0 120 34.5t119 96.5q66 72 95.5 153t29.5 197q0 336 -110 803q-81 14 -170 20l16 89q149 20 297 14q50 -212 80.5 -439.5t30.5 -388.5q0 -65 -17 -141h2q249 430 490 1010l141 -45q-426 -1008 -782 -1358q-186 -180 -357 -180 q-84 0 -141 14zM516 1272l285 227l78 -106l-299 -207z" />
<glyph unicode="&#xfe;" horiz-adv-x="1103" d="M-162 -510l17 88q90 23 180 29l338 1759l2 6q-83 15 -172 21l16 88q156 21 328 14l-84 -436q-43 -214 -129 -481l6 -3q40 99 90 180t111 146t134.5 101t153.5 36q222 0 222 -307q0 -114 -22.5 -220t-73 -202t-123 -166.5t-179.5 -112.5t-237 -42q-82 0 -156 12l-74 -393 q90 -6 170 -29l-16 -88h-502zM287 135q73 -26 157 -26q94 0 171.5 36.5t128.5 96t86 138t50 160t15 165.5q0 202 -113 202q-76 0 -157 -71.5t-144 -178.5t-110.5 -223.5t-67.5 -214.5z" />
<glyph unicode="&#xff;" horiz-adv-x="1067" d="M-168 -510l27 141q56 -20 129 -20q56 0 119 35t118 96q67 71 96 152t29 198q0 344 -108 803q-87 14 -170 20l16 89q148 20 297 14q50 -215 80.5 -442t30.5 -386q0 -56 -19 -141h4q242 418 488 1010l143 -45q-430 -1009 -782 -1358q-186 -180 -359 -180q-84 0 -139 14z M313 1341q0 42 30.5 71.5t72.5 29.5q39 0 66.5 -27.5t27.5 -64.5q0 -44 -30 -73.5t-70 -29.5q-41 0 -69 27.5t-28 66.5zM698 1341q0 42 30.5 71.5t72.5 29.5q39 0 66.5 -27.5t27.5 -64.5q0 -44 -29.5 -73.5t-70.5 -29.5t-69 27.5t-28 66.5z" />
<glyph unicode="&#x10c;" horiz-adv-x="1165" d="M117 455q0 149 31.5 286.5t97 256.5t157 207.5t220 139t278.5 50.5q165 0 316 -41l-60 -314h-102q0 32 6 191q-86 29 -199 29q-116 0 -212.5 -45t-162.5 -121t-112 -177.5t-67 -211.5t-21 -226q0 -82 18 -144.5t59.5 -111.5t114.5 -74.5t176 -25.5q179 0 336 72l-4 -140 q-181 -71 -379 -71q-491 0 -491 471zM705 1694l75 90l197 -142l215 142l61 -84l-288 -195z" />
<glyph unicode="&#x10d;" horiz-adv-x="866" d="M76 317q0 197 69.5 359t202.5 259t305 97q104 0 236 -35l-55 -286h-93q0 92 9 178q-70 20 -115 20q-75 0 -140 -33.5t-111 -89t-79 -127.5t-49 -150.5t-16 -156.5q0 -49 8.5 -86.5t31.5 -73t70 -54.5t117 -19q139 0 256 57l-8 -135q-135 -53 -287 -53q-352 0 -352 329z M444 1386l76 91l197 -142l215 142l61 -84l-288 -195z" />
<glyph unicode="&#x10e;" horiz-adv-x="1425" d="M-29 0l19 88q94 21 180 27l217 1153q-88 6 -170 26l19 88h172q50 0 183.5 3.5t199.5 3.5q161 0 278 -37t185 -106t100 -158t32 -201q0 -139 -33.5 -267t-105.5 -242.5t-176 -199.5t-255.5 -134.5t-332.5 -49.5q-80 0 -188.5 3t-147.5 3h-176zM326 137q96 -14 180 -14 q149 0 271.5 43.5t204 116t137.5 169.5t81 201.5t25 214.5q0 89 -23 157.5t-74 123.5t-142 84t-218 29q-36 0 -229 -7zM571 1690l76 90l197 -142l215 142l61 -84l-289 -195z" />
<glyph unicode="&#x10f;" d="M76 287q0 114 23 220t73 202.5t123 167.5t180 113t236 42q75 0 155 -12l66 352q-86 15 -170 21l18 88q155 21 328 14l-262 -1372q84 -15 168 -21l-17 -88q-154 -21 -325 -14q21 118 125 449l-4 2q-209 -471 -494 -471q-223 0 -223 307zM231 313q0 -202 115 -202 q75 0 156 71.5t145 178.5t111.5 225t66.5 217l17 88q-86 20 -158 20q-79 0 -147 -25.5t-116.5 -70t-85.5 -102.5t-59.5 -126t-33.5 -136.5t-11 -137.5zM1217 1081q203 172 139 287q-27 48 1 98t85 50q65 0 92 -58q36 -78 -23 -192q-67 -129 -237 -252z" />
<glyph unicode="&#x11a;" horiz-adv-x="1073" d="M-31 0l19 88q94 21 180 27l217 1153q-88 6 -170 26l18 88h857l-58 -307h-104q0 111 6 185h-397l-93 -488h318q29 96 59 150h88l-80 -418h-88q-11 60 -4 149h-315l-100 -526h399q17 55 67 188h103l-60 -315h-862zM463 1681l76 91l196 -142l215 142l62 -84l-289 -195z" />
<glyph unicode="&#x11b;" horiz-adv-x="970" d="M82 307q0 144 38 275.5t107.5 232.5t175 161t232.5 60q143 0 215 -63.5t72 -161.5q0 -158 -167.5 -247.5t-502.5 -102.5q-12 -66 -12 -133q0 -128 50.5 -173.5t182.5 -45.5q150 0 285 61v-127q-144 -61 -340 -61q-171 0 -253.5 76.5t-82.5 248.5zM274 582 q255 10 372.5 62.5t117.5 148.5q0 60 -40.5 92.5t-109.5 32.5q-123 0 -212 -94t-128 -242zM424 1386l76 91l196 -142l215 142l62 -84l-289 -195z" />
<glyph unicode="&#x131;" horiz-adv-x="446" d="M141 0l172 895q-81 14 -170 20l17 89q158 21 327 14l-170 -895q92 -16 168 -21l-16 -88q-155 -21 -328 -14z" />
<glyph unicode="&#x139;" horiz-adv-x="921" d="M-31 0l17 88q98 21 180 27l219 1153q-86 6 -168 26l16 88h502l-16 -88q-93 -20 -180 -26l-217 -1139h383q19 71 65 193h102l-61 -322h-842zM455 1579l284 227l78 -106l-299 -207z" />
<glyph unicode="&#x13a;" horiz-adv-x="573" d="M109 0l260 1372q-84 15 -170 21l16 88q158 21 328 14l-260 -1372q93 -16 170 -21l-17 -88q-158 -21 -327 -14zM453 1712l284 227l78 -106l-299 -207z" />
<glyph unicode="&#x13d;" horiz-adv-x="921" d="M-31 0l17 88q98 21 180 27l219 1153q-86 6 -168 26l16 88h502l-16 -88q-93 -20 -180 -26l-217 -1139h383q19 71 65 193h102l-61 -322h-842zM807 1143q203 172 139 287q-27 48 0.5 97.5t85.5 49.5q65 0 92 -58q36 -78 -23 -192q-67 -129 -237 -252z" />
<glyph unicode="&#x13e;" horiz-adv-x="573" d="M109 0l260 1372q-84 15 -170 21l16 88q158 21 328 14l-260 -1372q93 -16 170 -21l-17 -88q-158 -21 -327 -14zM643 1307q203 172 139 286q-27 48 1 98t85 50q65 0 92 -58q36 -78 -23 -192q-67 -129 -237 -252z" />
<glyph unicode="&#x147;" horiz-adv-x="1490" d="M-29 0l17 88q98 21 180 27l217 1153q-86 6 -168 26l16 88h363l387 -907q72 -178 109 -287q45 283 92 529l98 551q-94 7 -158 26l17 88h456l-16 -88q-76 -20 -147 -26l-242 -1268h-188l-388 909q-62 144 -106 291q-36 -252 -96 -563l-95 -522q91 -6 160 -27l-16 -88h-492z M688 1673l76 90l197 -141l215 141l61 -84l-289 -194z" />
<glyph unicode="&#x148;" horiz-adv-x="1249" d="M141 0l172 895q-81 14 -172 20l17 89q159 21 327 14q-37 -184 -118 -434l4 -2q38 90 86.5 168.5t109 144.5t135.5 104.5t154 38.5q137 0 189.5 -91t21.5 -257l-109 -567q81 -18 166 -21l-16 -88q-155 -21 -324 -14l125 655q26 131 1.5 191.5t-101.5 60.5q-74 0 -154 -71 t-143 -176.5t-110.5 -221.5t-65.5 -211l-45 -227h-150zM465 1386l76 91l196 -142l215 142l62 -84l-289 -195z" />
<glyph unicode="&#x152;" horiz-adv-x="1687" d="M106 479q0 188 58.5 356t160.5 291t248.5 195t315.5 72q50 0 133.5 -5.5t120.5 -5.5h561l-59 -307h-103q0 136 4 185h-395l-94 -488h317q28 94 62 150h86l-80 -418h-88q-11 60 -4 149h-314l-102 -526h399q28 82 68 188h102l-59 -315h-561q-58 0 -151 -5t-132 -5 q-254 0 -374 128t-120 361zM272 508q0 -184 87.5 -283.5t265.5 -99.5q95 0 159 12l211 1112q-76 13 -135 13q-164 0 -300 -103t-212 -276t-76 -375z" />
<glyph unicode="&#x153;" horiz-adv-x="1720" d="M80 342q0 194 73 352.5t206.5 250t302.5 91.5q257 0 331 -211q70 98 170.5 154.5t220.5 56.5q144 0 216.5 -63.5t72.5 -161.5q0 -158 -168 -247.5t-504 -102.5q-10 -83 -10 -133q0 -128 51 -173.5t183 -45.5q149 0 284 61v-127q-147 -61 -340 -61q-140 0 -214 46.5 t-95 161.5q-72 -99 -183.5 -153.5t-232.5 -54.5q-181 0 -272.5 92t-91.5 268zM238 371q0 -129 55.5 -193.5t177.5 -64.5q162 0 280.5 153t118.5 389q0 252 -231 252q-116 0 -209 -76.5t-142.5 -198.5t-49.5 -261zM1026 582q256 10 374 61.5t118 149.5q0 60 -41.5 92.5 t-110.5 32.5q-123 0 -211 -93.5t-129 -242.5z" />
<glyph unicode="&#x154;" horiz-adv-x="1161" d="M-29 0l17 88q98 21 180 27l217 1153q-86 6 -168 26l16 88h156q39 0 148 3.5t180 3.5q202 0 300.5 -77t98.5 -220q0 -129 -70.5 -229.5t-188 -155t-263.5 -60.5q13 -21 68 -129l206 -403q69 -5 146 -27l-21 -88h-256l-303 639h-16l-96 -524q87 -7 153 -27l-16 -88h-488z M442 760q46 -4 119 -4q172 0 282.5 83t110.5 234q0 98 -62 144.5t-198 46.5q-85 0 -157 -7zM598 1579l285 227l78 -106l-299 -207z" />
<glyph unicode="&#x155;" horiz-adv-x="790" d="M141 0l172 889v6q-76 13 -172 20l17 89q160 21 327 14q-27 -139 -112 -404h4q41 89 73 149.5t76.5 123t88.5 96t102.5 49.5t124.5 2l-29 -151q-63 23 -129 -12.5t-120 -108t-101.5 -167t-79.5 -188.5t-47 -174l-43 -233h-152zM496 1272l284 227l78 -106l-299 -207z" />
<glyph unicode="&#x158;" horiz-adv-x="1161" d="M-29 0l17 88q98 21 180 27l217 1153q-86 6 -168 26l16 88h156q39 0 148 3.5t180 3.5q202 0 300.5 -77t98.5 -220q0 -129 -70.5 -229.5t-188 -155t-263.5 -60.5q13 -21 68 -129l206 -403q69 -5 146 -27l-21 -88h-256l-303 639h-16l-96 -524q87 -7 153 -27l-16 -88h-488z M442 760q46 -4 119 -4q172 0 282.5 83t110.5 234q0 98 -62 144.5t-198 46.5q-85 0 -157 -7zM496 1694l75 90l197 -142l215 142l61 -84l-288 -195z" />
<glyph unicode="&#x159;" horiz-adv-x="790" d="M141 0l172 889v6q-76 13 -172 20l17 89q160 21 327 14q-27 -139 -112 -404h4q41 89 73 149.5t76.5 123t88.5 96t102.5 49.5t124.5 2l-29 -151q-63 23 -129 -12.5t-120 -108t-101.5 -167t-79.5 -188.5t-47 -174l-43 -233h-152zM350 1386l76 91l197 -142l215 142l61 -84 l-289 -195z" />
<glyph unicode="&#x160;" horiz-adv-x="931" d="M39 10l57 312h107q-1 -22 -4.5 -90t-5.5 -99q58 -14 98 -14q162 0 255 78t93 202q0 52 -24 95.5t-62 76t-84.5 63.5t-93 65t-84.5 73.5t-62 96t-24 124.5q0 82 34 155.5t96 130t158 89.5t212 33q95 0 206 -21l-59 -303h-100q0 99 10 187q-33 8 -90 8q-146 0 -228 -74 t-82 -172q0 -54 24.5 -99.5t63 -79.5t85.5 -66t94.5 -66.5t86 -73t63 -94t24.5 -121.5q0 -191 -152 -317.5t-387 -126.5q-142 0 -225 28zM442 1694l76 90l197 -142l215 142l61 -84l-289 -195z" />
<glyph unicode="&#x161;" horiz-adv-x="802" d="M37 -2l55 287h88q0 -102 -8 -170q56 -9 86 -9q112 0 179 46t67 133q0 35 -19.5 65.5t-51 54.5t-69.5 47.5t-76.5 50.5t-70 57.5t-51 74.5t-19.5 96q0 132 104.5 218.5t291.5 86.5q99 0 194 -20l-53 -273h-88q0 87 6 170q-44 7 -82 7q-103 0 -161 -46t-58 -120 q0 -41 26.5 -77.5t66.5 -62.5t86 -57.5t86 -62.5t66.5 -78.5t26.5 -104.5q0 -136 -118.5 -232.5t-317.5 -96.5q-95 0 -186 16zM307 1386l76 91l197 -142l215 142l61 -84l-287 -195z" />
<glyph unicode="&#x164;" horiz-adv-x="1105" d="M141 1057l64 325h1028l-62 -325h-102q1 28 3 98.5t5 99.5h-307l-215 -1140q78 -5 170 -27l-18 -88h-502l16 88q100 22 180 27l217 1140h-307q-18 -64 -67 -198h-103zM522 1683l76 91l197 -142l215 142l61 -84l-289 -195z" />
<glyph unicode="&#x165;" horiz-adv-x="747" d="M82 897l24 121h218l65 338l158 37l-72 -375h293l-27 -121h-288l-107 -561q-25 -128 -4.5 -172.5t102.5 -44.5q80 0 146 16l-8 -131q-95 -20 -183 -20q-151 0 -197.5 75.5t-13.5 247.5l113 590h-219zM653 1245q204 173 140 287q-27 48 0.5 97.5t85.5 49.5q65 0 92 -58 q36 -78 -23 -192q-68 -129 -237 -251z" />
<glyph unicode="&#x16e;" horiz-adv-x="1441" d="M184.5 316q1.5 73 14.5 155l151 797q-70 6 -139 26l16 88h463l-18 -88q-68 -19 -168 -26l-154 -799q-35 -181 30 -269.5t257 -88.5q193 0 302.5 94.5t152.5 318.5l141 744q-99 7 -162 26l16 88h461l-18 -88q-76 -20 -146 -26l-145 -762q-51 -266 -206.5 -395t-416.5 -129 q-117 0 -202 24.5t-132.5 69t-73 106t-24 134.5zM717 1706q4 91 72.5 154t158.5 63q92 0 151 -61.5t54 -151.5q-6 -89 -74 -153t-157 -64q-92 0 -150.5 60.5t-54.5 152.5zM821 1708q-3 -50 27.5 -84.5t79.5 -34.5q47 0 82.5 35t38.5 84q2 50 -28 84.5t-79 34.5t-84 -34.5 t-37 -84.5z" />
<glyph unicode="&#x16f;" horiz-adv-x="1226" d="M123 915l16 89q156 21 328 14l-125 -656q-25 -130 0 -190.5t100 -60.5q74 0 155 71t144.5 177.5t111.5 225t67 218.5l18 92q-77 14 -164 20l17 89q154 21 319 14l-172 -895q82 -15 170 -21l-18 -88q-155 -21 -324 -14q22 131 121 434l-4 2q-39 -91 -87.5 -169 t-109.5 -144.5t-136 -104.5t-155 -38q-136 0 -189 91.5t-20 256.5l107 567q-75 13 -170 20zM553 1389q4 91 72.5 154t158.5 63q92 0 151 -61.5t54 -151.5q-6 -89 -74 -153t-157 -64q-92 0 -150.5 60.5t-54.5 152.5zM657 1391q-3 -50 27.5 -84.5t79.5 -34.5q47 0 82.5 35 t38.5 84q2 50 -28 84t-79 34t-84 -34t-37 -84z" />
<glyph unicode="&#x178;" horiz-adv-x="1212" d="M168 1294l18 88h455l-16 -88q-65 -19 -168 -26l104 -398q46 -179 57 -233h5q22 36 48 77.5t63.5 100t64.5 100.5l225 353q-85 7 -143 26l16 88h451l-17 -88q-67 -17 -133 -24l-526 -774l-72 -381q80 -5 168 -27l-16 -88h-502l16 88q94 21 180 27l72 381l-221 774 q-65 7 -129 24zM494 1618q0 42 30 71t72 29q39 0 66.5 -27.5t27.5 -64.5q0 -43 -29.5 -72.5t-70.5 -29.5t-68.5 27.5t-27.5 66.5zM879 1618q0 42 30 71t72 29q39 0 66.5 -27.5t27.5 -64.5q0 -43 -29.5 -72.5t-70.5 -29.5t-68.5 27.5t-27.5 66.5z" />
<glyph unicode="&#x17d;" horiz-adv-x="1062" d="M-4 0l20 115l758 956q60 77 156 180q-144 -4 -291 -4h-256q-22 -80 -61 -184h-103l60 319h858l-23 -116l-801 -1002q-65 -80 -110 -131q45 4 334 4h237q12 41 64 191h102l-61 -328h-883zM516 1694l74 90l198 -142l216 142l59 -84l-287 -195z" />
<glyph unicode="&#x17e;" horiz-adv-x="882" d="M0 0l23 111l647 788q-132 -4 -256 -4h-115q-29 -101 -55 -160h-92l55 283h663l-20 -109l-645 -782q122 4 262 4h127q30 93 59 164h90l-55 -295h-688zM340 1386l76 91l196 -142l215 142l62 -84l-289 -195z" />
<glyph unicode="&#x192;" horiz-adv-x="860" d="M-311 -428l28 131q56 -16 136 -16q95 0 155 62t96 192l228 807h-203l23 118h215l69 252q59 211 160.5 302t282.5 91q59 0 129 -12l-29 -129q-62 16 -133 16q-95 0 -156 -59.5t-96 -187.5l-76 -273h275l-25 -118h-285l-225 -805q-60 -208 -161 -295.5t-277 -87.5 q-57 0 -131 12z" />
<glyph unicode="&#x2c6;" horiz-adv-x="874" d="M254 1282l287 195l260 -189l-74 -90l-199 141l-215 -141z" />
<glyph unicode="&#x2c7;" horiz-adv-x="874" d="M322 1386l75 91l197 -142l215 142l61 -84l-288 -195z" />
<glyph unicode="&#x2d8;" horiz-adv-x="823" d="M369 1470h102q-10 -60 19 -100.5t92 -40.5q62 0 104.5 37t52.5 104h113q-16 -110 -91 -185t-196 -75q-81 0 -130.5 37.5t-63.5 94.5t-2 128z" />
<glyph unicode="&#x2d9;" horiz-adv-x="565" d="M358 1343q3 43 35.5 74t75.5 31q40 0 68.5 -30.5t27.5 -74.5q-3 -42 -35.5 -72t-74.5 -30q-41 0 -69.5 29.5t-27.5 72.5z" />
<glyph unicode="&#x2da;" horiz-adv-x="782" d="M348 1337q4 91 73 154t159 63q92 0 150.5 -61.5t53.5 -151.5q-6 -89 -74 -153t-157 -64q-92 0 -150.5 60.5t-54.5 152.5zM453 1339q-3 -50 27 -84t79 -34q47 0 82.5 34.5t38.5 83.5q2 50 -28 84.5t-79 34.5t-83.5 -34.5t-36.5 -84.5z" />
<glyph unicode="&#x2db;" horiz-adv-x="585" d="M-6 -311q0 136 145 311h121q-127 -168 -127 -270q0 -108 160 -66v-102q-70 -17 -131 -17q-92 0 -130 37.5t-38 106.5z" />
<glyph unicode="&#x2dc;" horiz-adv-x="1017" d="M268 1368q36 35 87.5 56.5t103.5 21.5q55 0 106 -24t98 -48t93 -24q76 0 139 57l37 -100q-91 -76 -195 -76q-48 0 -90.5 15t-69 33t-63.5 33t-76 15q-75 0 -135 -57z" />
<glyph unicode="&#x2dd;" horiz-adv-x="1007" d="M322 1262l245 254l95 -95l-265 -235zM659 1270l293 233l82 -104l-307 -213z" />
<glyph unicode="&#x3a9;" horiz-adv-x="1652" d="M80 0l22 117h312q-201 152 -201 438q0 118 30.5 237.5t94.5 230t152.5 195.5t215 136t271.5 51q224 0 353.5 -132t129.5 -378q0 -66 -11.5 -139.5t-42 -164.5t-77 -174t-123.5 -163.5t-174 -136.5h295l-22 -117h-451l25 125q204 124 314 327.5t110 432.5q0 179 -90 287 t-267 108q-98 0 -184 -33.5t-149 -90t-113 -129.5t-80.5 -155t-46 -162t-15.5 -155q0 -139 49.5 -242.5t153.5 -187.5l-26 -125h-455z" />
<glyph unicode="&#x3c0;" horiz-adv-x="1349" d="M119 895l24 123h1147l-24 -123h-230l-94 -492q-27 -137 -29.5 -197t17.5 -82t76 -22q54 0 110 17l-6 -117q-74 -18 -180 -18q-124 0 -155.5 66t-2.5 220l119 625h-399l-170 -895h-146l170 895h-227z" />
<glyph unicode="&#x2000;" horiz-adv-x="1194" />
<glyph unicode="&#x2001;" horiz-adv-x="2389" />
<glyph unicode="&#x2002;" horiz-adv-x="1194" />
<glyph unicode="&#x2003;" horiz-adv-x="2389" />
<glyph unicode="&#x2004;" horiz-adv-x="796" />
<glyph unicode="&#x2005;" horiz-adv-x="597" />
<glyph unicode="&#x2006;" horiz-adv-x="398" />
<glyph unicode="&#x2007;" horiz-adv-x="398" />
<glyph unicode="&#x2008;" horiz-adv-x="298" />
<glyph unicode="&#x2009;" horiz-adv-x="477" />
<glyph unicode="&#x200a;" horiz-adv-x="132" />
<glyph unicode="&#x2010;" horiz-adv-x="671" d="M96 449v122h473v-122h-473z" />
<glyph unicode="&#x2011;" horiz-adv-x="671" d="M96 449v122h473v-122h-473z" />
<glyph unicode="&#x2012;" horiz-adv-x="671" d="M96 449v122h473v-122h-473z" />
<glyph unicode="&#x2013;" horiz-adv-x="1024" d="M0 524v135h1024v-135h-1024z" />
<glyph unicode="&#x2014;" horiz-adv-x="2048" d="M0 524v135h2048v-135h-2048z" />
<glyph unicode="&#x2018;" horiz-adv-x="471" d="M252 1084q-37 78 23 192q66 130 237 254l57 -70q-202 -171 -139 -286q27 -48 -1 -98t-85 -50q-64 0 -92 58z" />
<glyph unicode="&#x2019;" horiz-adv-x="471" d="M193 1081q203 172 139 287q-27 48 1 98t85 50q65 0 92 -58q36 -78 -23 -192q-68 -130 -237 -252z" />
<glyph unicode="&#x201a;" horiz-adv-x="471" d="M-70 -231q204 171 140 288q-27 48 0.5 97t85.5 49q65 0 92 -58q36 -78 -23 -192q-67 -129 -237 -252z" />
<glyph unicode="&#x201c;" horiz-adv-x="827" d="M252 1084q-37 78 23 192q66 130 237 254l57 -70q-202 -171 -139 -286q27 -48 -1 -98t-85 -50q-64 0 -92 58zM616 1085q-37 78 22 193q67 129 236 252l58 -70q-202 -171 -139 -286q27 -47 0 -97.5t-84 -50.5q-66 0 -93 59z" />
<glyph unicode="&#x201d;" horiz-adv-x="827" d="M193 1081q203 172 139 287q-27 48 1 98t85 50q65 0 92 -58q36 -78 -23 -192q-68 -130 -237 -252zM553 1081q205 172 141 287q-29 47 -1.5 97.5t85.5 50.5q65 0 93 -58q36 -78 -23 -192q-67 -129 -238 -252z" />
<glyph unicode="&#x201e;" horiz-adv-x="827" d="M-70 -231q204 171 140 288q-27 48 0.5 97t85.5 49q65 0 92 -58q36 -78 -23 -192q-67 -129 -237 -252zM293 -231q204 171 141 288q-29 47 -1.5 96.5t85.5 49.5q65 0 93 -58q36 -78 -23 -192q-67 -129 -238 -252z" />
<glyph unicode="&#x2020;" horiz-adv-x="933" d="M184 1010l23 120h321l37 365h187l-105 -365h320l-21 -120h-321l-25 -308l-180 -706h-96l90 706l94 308h-324z" />
<glyph unicode="&#x2021;" horiz-adv-x="933" d="M66 385l22 119h322l16 258l82 256h-322l23 119h319l37 358h187l-103 -358h320l-21 -119h-321l-17 -256l-82 -258h322l-23 -119h-321l-39 -385h-186l106 385h-321z" />
<glyph unicode="&#x2022;" horiz-adv-x="868" d="M209 588q0 98 66 165.5t163 67.5q90 0 153.5 -64.5t63.5 -152.5q0 -100 -65 -166.5t-162 -66.5q-91 0 -155 64t-64 153z" />
<glyph unicode="&#x2026;" horiz-adv-x="1306" d="M49 92q1 47 35 80t80 33q45 0 75.5 -32t28.5 -77q-3 -47 -37 -79.5t-79 -32.5q-46 0 -76 32t-27 76zM471 92q3 47 37 80t80 33q45 0 75 -32t27 -77q-1 -47 -35 -79.5t-80 -32.5q-45 0 -75.5 31.5t-28.5 76.5zM895 92q3 47 37 80t80 33q45 0 74.5 -32t27.5 -77 q-1 -47 -36 -79.5t-81 -32.5q-44 0 -74.5 32t-27.5 76z" />
<glyph unicode="&#x202f;" horiz-adv-x="477" />
<glyph unicode="&#x2030;" horiz-adv-x="2072" d="M121 35l1190 1392l94 -84l-1190 -1390zM207 983q0 189 97 306.5t257 117.5q109 0 170.5 -61t61.5 -181q0 -189 -97.5 -307.5t-257.5 -118.5q-107 0 -169 60t-62 184zM344 1001q0 -73 25 -111t92 -38q90 0 142 89t52 208q0 71 -25 108t-93 37q-61 0 -106 -44t-66 -109.5 t-21 -139.5zM735 221q0 188 97 305t258 117q109 0 170 -60.5t61 -179.5q0 -191 -97.5 -309.5t-258.5 -118.5q-105 0 -167.5 60.5t-62.5 185.5zM872 238q0 -73 24.5 -111.5t90.5 -38.5q62 0 108 44t67.5 110.5t21.5 142.5q0 71 -25.5 108t-93.5 37q-90 0 -141.5 -88 t-51.5 -204zM1393 221q0 188 96.5 305t257.5 117q109 0 170 -60.5t61 -179.5q0 -190 -97 -309t-257 -119q-107 0 -169 60.5t-62 185.5zM1530 238q0 -73 25 -111.5t92 -38.5q90 0 142 89t52 208q0 71 -25.5 108t-93.5 37q-61 0 -105.5 -44t-65.5 -109t-21 -139z" />
<glyph unicode="&#x2039;" horiz-adv-x="636" d="M123 502l289 360l106 -71l-244 -291l179 -281l-123 -72z" />
<glyph unicode="&#x203a;" horiz-adv-x="636" d="M123 219l244 289l-179 283l121 69l209 -354l-289 -361z" />
<glyph unicode="&#x2044;" horiz-adv-x="827" d="M-137 -182l1204 1726l113 -67l-1203 -1727z" />
<glyph unicode="&#x205f;" horiz-adv-x="597" />
<glyph unicode="&#x20ac;" horiz-adv-x="1126" d="M25 469l20 102h168q9 83 31 183h-164l18 102h174q28 88 65 164.5t91 147.5t119.5 121.5t152 81t185.5 30.5q125 0 270 -33l-53 -285h-92q-3 72 8 168q-75 21 -156 21t-150.5 -34t-121 -94.5t-89 -131t-65.5 -156.5h393l-20 -102h-403q-22 -100 -31 -183h401l-20 -102 h-389q-2 -12 -2 -35q0 -319 270 -319q163 0 303 65l-6 -133q-154 -65 -340 -65q-191 0 -289 112.5t-98 331.5v43h-180z" />
<glyph unicode="&#x2122;" horiz-adv-x="1599" d="M223 793l15 67q65 16 116 21l78 409h-94q-17 -62 -43 -116h-66l41 208h480l-41 -208h-66q-2 40 2 116h-94l-78 -409q49 -5 111 -21l-13 -67h-348zM655 793l15 67q35 10 92 17l147 417q-45 5 -92 19l12 69h269l32 -346l5 -98q35 94 118 258.5t93 185.5h264l-15 -69 q-42 -12 -96 -19l-12 -417q35 -2 84 -17l-12 -67h-289l14 67q55 13 86 17l8 258l6 108q-31 -68 -68 -143.5t-81.5 -165t-69.5 -141.5h-127l-37 362l-6 88q-10 -36 -22 -74.5t-24.5 -75t-24.5 -70.5t-26 -74t-24 -72q31 -4 80 -17l-10 -67h-289z" />
<glyph unicode="&#x2202;" horiz-adv-x="1302" d="M197 336q0 118 41 221t112 176.5t170.5 115.5t212.5 42q118 0 207 -57t115 -158q1 23 13 118.5t11 153.5q-3 203 -111.5 318.5t-301.5 115.5l43 127q253 -12 389.5 -159.5t136.5 -382.5q0 -110 -18.5 -223.5t-54 -224t-93 -207t-129.5 -170t-169.5 -116t-207.5 -42.5 q-95 0 -167 27.5t-114.5 76.5t-63.5 111t-21 137zM352 362q0 -116 62 -181.5t178 -65.5q150 0 263.5 119t113.5 290q0 101 -65.5 169.5t-196.5 68.5q-150 0 -252.5 -114.5t-102.5 -285.5z" />
<glyph unicode="&#x220f;" horiz-adv-x="1738" d="M203 -516l364 1878h-219l27 133h1386l-24 -133h-219l-365 -1878h-147l364 1878h-655l-365 -1878h-147z" />
<glyph unicode="&#x2211;" horiz-adv-x="1388" d="M-53 -516l24 119l805 907l-430 868l23 117h966l-24 -133h-791l436 -866l-784 -875h836l-29 -137h-1032z" />
<glyph unicode="&#x221a;" horiz-adv-x="1394" d="M80 899l24 119h306l82 -617q20 -166 26 -245h4q81 180 103 227l600 1257h1319l-25 -127h-1188l-753 -1513h-175l-133 899h-190z" />
<glyph unicode="&#x221e;" horiz-adv-x="2015" d="M129 485q0 111 57 204t151.5 145.5t203.5 52.5q115 0 223.5 -63.5t236.5 -176.5q174 114 304 177t237 63q153 0 228 -71.5t75 -186.5q0 -71 -27.5 -141.5t-78 -129t-131 -95t-176.5 -36.5q-116 0 -223.5 62.5t-233.5 175.5q-166 -111 -298.5 -174.5t-242.5 -63.5 q-153 0 -229 70t-76 188zM285 510q0 -67 41 -107.5t118 -40.5q76 0 174 49.5t248 147.5q-71 63 -115.5 98t-106 65t-114.5 30q-105 0 -175 -71t-70 -171zM1108 555q105 -95 182 -144t152 -49q108 0 179 71t71 173q0 64 -42.5 105t-121.5 41q-52 0 -127 -31t-132 -65 t-161 -101z" />
<glyph unicode="&#x222b;" horiz-adv-x="688" d="M-176 -520l24 137q54 -16 99 -16q83 0 132 74t87 278q26 136 79 465t99 567q38 199 91.5 314t127 164.5t182.5 49.5q53 0 97 -12l-27 -137q-45 18 -98 18q-55 0 -92 -29.5t-69.5 -110t-59.5 -224.5q-30 -154 -81.5 -473.5t-95.5 -550.5q-38 -198 -91 -313t-126 -164 t-180 -49q-54 0 -98 12z" />
<glyph unicode="&#x2248;" horiz-adv-x="1218" d="M145 367q121 108 254 108q64 0 123 -19.5t98 -43t93.5 -43t109.5 -19.5q93 0 197 80l51 -108q-126 -101 -256 -101q-56 0 -104.5 12.5t-83.5 30.5t-69 36.5t-75.5 31t-87.5 12.5q-92 0 -198 -86zM145 705q118 110 258 110q63 0 122.5 -20t98.5 -43.5t92 -43.5t105 -20 q94 0 197 90l51 -108q-111 -111 -254 -111q-55 0 -102.5 12.5t-82.5 30.5t-69 36.5t-76.5 31t-89.5 12.5q-92 0 -198 -86z" />
<glyph unicode="&#x2260;" horiz-adv-x="1374" d="M119 289l24 129h373l119 205h-453l27 129h500l180 305h141l-180 -305h328l-25 -129h-377l-121 -205h457l-25 -129h-507l-177 -297h-139l176 297h-321z" />
<glyph unicode="&#x2264;" horiz-adv-x="1230" d="M47 -113l25 129h821l-27 -129h-819zM166 635l840 500l69 -113l-690 -397l535 -385l-99 -107z" />
<glyph unicode="&#x2265;" horiz-adv-x="1230" d="M31 -113l24 129h819l-22 -129h-821zM106 244l693 399l-529 387l97 105l653 -502l-838 -500z" />
<glyph unicode="&#x25ca;" horiz-adv-x="1261" d="M86 698l500 701h92l512 -713l-496 -702h-98zM254 702l395 -548l375 522l-397 555z" />
<glyph unicode="&#xe000;" horiz-adv-x="1075" d="M0 0v1075h1075v-1075h-1075z" />
<glyph unicode="&#xf8ff;" horiz-adv-x="4020" d="M424 776q-7 97 0 162l356 -20q-3 -62 0 -121zM852 1907q43 51 111 108l237 -264q-51 -44 -86 -82zM1253 856q0 154 60 294t161 241t241.5 161t295.5 60q153 0 292.5 -60t240.5 -161t161 -241t60 -294q0 -160 -61 -300t-160 -234v-244l-52 -12l101 -238l-96 -25l96 -225 l-96 -24l32 -80l-92 -213h-151q-9 -57 -88 -96t-187 -39q-110 0 -188 39t-84 96h-154l-158 377l99 26l-99 236l109 28l-59 148v243q-101 101 -162.5 241.5t-61.5 295.5zM1393 856q0 -137 56 -261t161 -212h202l-53 457q-24 -5 -45.5 -12.5t-41.5 -15.5t-30 -11 q-26 -7 -38.5 21t-7.5 60.5t20 35.5q195 63 395 63q197 0 399 -63q14 -3 18.5 -35.5t-7.5 -60.5t-37 -21q-54 23 -125 39l-47 -457h201q94 83 155.5 206t61.5 267q0 168 -83 311t-225.5 226.5t-310.5 83.5t-310.5 -83.5t-225 -226.5t-82.5 -311zM1589 -166l58 -137l784 197 l-59 139zM1589 -428l86 -207h672l49 111l-20 49l-248 -62l-37 95l342 86l-55 129zM1604 86l53 -127l760 195v118h-813v-186zM1860 856l47 -473h207l45 473q-59 12 -148 12q-92 0 -151 -12zM1931 2386q82 6 160 0l-18 -354q-65 3 -123 0zM1976 918h9v2h-5l5 12h-5zM1987 920 q-1 -3 3 -3t5 3l2 8h-2l-2 -8q0 -2 -2 -2t-2 2l2 8h-2zM1998 922q0 -5 3 -5q2 0 4 1v2q-3 -2 -3 1q-2 6 3 6q1 0 2 -1v2q-7 3 -9 -6zM2009 913h2q0 13 4 21h-2q-4 -8 -4 -21zM2019 920q4 0 4 6q-3 0 -4 -6zM2020 923l1 -3v-2h2l5 10q-6 2 -8 0t0 -5zM2028 918q7 0 8 2 q0 1 -2 3q-2 3 2 3v2q-9 0 -5.5 -4t-2.5 -4v-2zM2036 913h2q4 8 4 21h-2q0 -13 -4 -21zM2820 1751l238 262q59 -51 110 -110l-264 -236q-48 55 -84 84zM3240 797q3 61 0 121l356 18q6 -80 0 -160z" />
<glyph unicode="&#xfb01;" horiz-adv-x="1210" d="M-362 -508l36 133q70 -22 154 -22q121 0 190 75.5t103 260.5l184 958h-219l25 121h219l8 49q68 440 528 440q141 0 273 -39l-56 -127q-106 39 -229 39q-307 0 -362 -293l-13 -69h617l-170 -895q92 -16 168 -21l-17 -88q-155 -21 -325 -14l170 897h-467l-181 -954 q-49 -247 -161.5 -358t-300.5 -111q-92 0 -174 18z" />
<glyph unicode="&#xfb02;" horiz-adv-x="1214" d="M-362 -508l36 133q70 -22 154 -22q121 0 190 75.5t103 260.5l184 958h-219l25 121h217l22 112q72 377 498 377q161 0 336 -28l-256 -1356q93 -16 170 -21l-17 -88q-158 -21 -327 -14l260 1366q-88 16 -180 16q-146 0 -227 -61t-107 -195l-21 -108h289l-25 -121h-288 l-181 -954q-49 -247 -161.5 -358t-300.5 -111q-92 0 -174 18z" />
</font>
</defs>
</svg>
